<svg width="700" height="701" viewBox="0 0 700 701" fill="none" xmlns="http://www.w3.org/2000/svg">
<path d="M350.001 669.602C532.159 669.602 679.827 584.344 679.827 479.174C679.827 374.004 532.159 288.746 350.001 288.746C167.843 288.746 20.1748 374.004 20.1748 479.174C20.1748 584.344 167.843 669.602 350.001 669.602Z" fill="white" fill-opacity="0.4"/>
<path d="M281.75 623.472C344.565 623.472 395.486 594.075 395.486 557.812C395.486 521.549 344.565 492.152 281.75 492.152C218.935 492.152 168.014 521.549 168.014 557.812C168.014 594.075 218.935 623.472 281.75 623.472Z" fill="#E0E0E0"/>
<path d="M605.193 475.66L591.851 467.96C591.851 467.96 588.589 439.4 590.759 417.28C593.811 386.2 613.887 348.792 637.841 357.584C661.795 366.362 626.865 398.016 619.081 424.392C611.297 450.754 605.193 475.66 605.193 475.66Z" fill="url(#paint0_linear_596_928)"/>
<path opacity="0.15" d="M605.193 475.66L591.851 467.96C591.851 467.96 588.589 439.4 590.759 417.28C593.811 386.2 613.887 348.792 637.841 357.584C661.795 366.362 626.865 398.016 619.081 424.392C611.297 450.754 605.193 475.66 605.193 475.66Z" fill="black"/>
<path d="M598.179 472.426C598.193 472.426 598.193 472.426 598.207 472.426C598.655 472.412 599.005 472.034 598.991 471.586C596.653 402.524 631.023 367.776 631.373 367.44C631.695 367.132 631.695 366.614 631.387 366.292C631.065 365.97 630.561 365.97 630.239 366.278C629.889 366.628 595.001 401.866 597.367 471.628C597.381 472.076 597.745 472.426 598.179 472.426Z" fill="white"/>
<path d="M613.579 480.462L604.087 474.988C604.087 474.988 602.477 455.388 612.081 431.574C620.453 410.84 641.201 393.648 651.645 397.26C662.089 400.872 661.823 408.278 656.741 416.048C651.645 423.818 620.677 442.326 613.579 480.462Z" fill="url(#paint1_linear_596_928)"/>
<path d="M608.567 478.39C609.015 478.39 609.379 478.026 609.379 477.578C609.197 433.912 650.189 404.4 650.609 404.106C650.973 403.854 651.057 403.35 650.805 402.986C650.553 402.622 650.049 402.538 649.685 402.79C649.265 403.084 607.587 433.086 607.769 477.592C607.755 478.026 608.119 478.39 608.567 478.39Z" fill="white"/>
<path d="M111.523 458.51L123.843 450.194C123.843 450.194 129.261 417.924 124.221 389.588C117.137 349.744 89.6552 336.486 79.8552 340.644C70.0552 344.802 67.9552 356.688 86.2532 379.438C97.0472 392.864 111.145 421.41 111.523 458.51Z" fill="url(#paint2_linear_596_928)"/>
<g opacity="0.15">
<path d="M111.523 458.51L123.843 450.194C123.843 450.194 129.261 417.924 124.221 389.588C117.137 349.744 89.6552 336.486 79.8552 340.644C70.0552 344.802 67.9552 356.688 86.2532 379.438C97.0472 392.864 111.145 421.41 111.523 458.51Z" fill="black"/>
</g>
<path d="M115.751 442.55C115.709 442.55 115.667 442.55 115.625 442.55C115.135 442.494 114.785 442.046 114.841 441.556C119.293 404.036 103.445 363.338 86.2248 347.14C85.8608 346.804 85.8468 346.244 86.1828 345.88C86.5188 345.53 87.0788 345.502 87.4428 345.838C104.999 362.316 121.127 403.686 116.619 441.752C116.563 442.2 116.185 442.536 115.751 442.55Z" fill="white"/>
<path d="M79.2678 480.266C77.3078 481.442 71.5958 477.2 70.0138 476.178C67.3118 474.442 65.0998 471.936 63.6018 469.094C61.8658 465.79 61.3758 462.206 61.8238 458.51C62.0618 456.592 62.5658 454.716 63.0558 452.84C63.5458 451.006 64.0358 449.172 64.5258 447.324C65.0158 445.518 65.4918 443.642 65.2258 441.78C64.6798 438.042 61.2918 435.48 58.2258 433.268C54.8378 430.832 51.2818 427.584 51.2118 423.076C51.1558 419.59 52.9058 416.328 55.0058 413.556C57.1058 410.784 59.6258 408.32 61.5158 405.394C62.8738 403.294 63.9238 400.83 63.6578 398.338C63.4898 396.784 62.8178 395.342 62.0478 393.984C60.3958 391.072 58.2398 388.426 57.0778 385.29C55.9158 382.154 55.9998 378.22 58.4218 375.924C60.4098 374.034 63.4058 373.712 66.1498 373.838C68.6838 373.95 71.1758 375.056 73.4158 376.246C80.6538 380.096 84.9098 388.496 92.5678 391.422C95.5218 392.542 98.7418 392.738 101.808 393.494C104.874 394.236 108.024 395.748 109.494 398.548C112.392 404.064 107.352 411.036 109.424 416.916C111.258 422.124 116.382 424.028 119.336 428.69C120.624 430.734 120.96 433.114 120.806 435.522C120.54 439.596 120.008 442.592 118.146 447.156C116.606 450.922 112.028 458.174 112.028 458.174C112.028 458.174 79.5618 480.084 79.2678 480.266Z" fill="url(#paint3_linear_596_928)"/>
<path d="M98.1959 468.66C98.1819 468.66 98.1679 468.66 98.1679 468.66C97.6639 468.646 97.2719 468.24 97.2859 467.75C98.0699 432.302 80.6399 393.536 68.2779 382.406C67.9139 382.07 67.8859 381.51 68.2079 381.146C68.5439 380.782 69.1039 380.754 69.4679 381.076C82.0679 392.43 99.8619 431.84 99.0639 467.792C99.0639 468.268 98.6719 468.646 98.1959 468.66Z" fill="white"/>
<path d="M91.6577 425.47C91.5737 425.47 91.4757 425.456 91.3917 425.428C79.9397 422.124 65.7577 421.788 65.6037 421.788C65.1137 421.774 64.7217 421.368 64.7357 420.878C64.7497 420.388 65.1137 419.996 65.6457 420.01C65.7857 420.01 80.2057 420.36 91.8817 423.734C92.3577 423.874 92.6237 424.364 92.4977 424.84C92.3857 425.218 92.0497 425.47 91.6577 425.47Z" fill="white"/>
<path d="M421.624 434.136L416.318 431.07C414.638 430.104 413.294 427.752 413.294 425.82V205.292C413.294 203.36 414.652 201.008 416.332 200.042L563.822 114.894C565.502 113.928 568.204 113.928 569.884 114.894L575.19 117.96C576.87 118.926 578.228 121.278 578.228 123.21V343.738C578.228 345.67 576.87 348.022 575.19 348.988L427.7 434.15C426.006 435.116 423.29 435.116 421.624 434.136Z" fill="#455A64"/>
<path d="M578.173 122.72C577.963 121.152 576.689 120.578 575.163 121.46L427.687 206.622C426.847 207.112 426.105 207.924 425.545 208.876L414.163 202.31C414.709 201.358 415.465 200.532 416.305 200.042L563.795 114.894C565.461 113.928 568.177 113.928 569.857 114.894L575.163 117.96C576.703 118.842 577.977 120.9 578.173 122.72Z" fill="#455A64"/>
<path d="M427.168 434.388C425.488 435.102 423.136 435.018 421.624 434.15L416.304 431.07C414.638 430.104 413.28 427.752 413.28 425.82V205.292C413.28 204.326 413.616 203.262 414.162 202.31L425.544 208.876C424.984 209.828 424.648 210.906 424.648 211.872V432.4C424.648 434.136 425.74 434.934 427.168 434.388Z" fill="#263238"/>
<path d="M424.648 211.872V432.4C424.648 434.332 426.006 435.116 427.686 434.15L575.176 348.988C576.856 348.022 578.214 345.67 578.214 343.738V123.21C578.214 121.278 576.856 120.494 575.176 121.46L427.686 206.622C426.006 207.588 424.648 209.94 424.648 211.872Z" fill="#37474F"/>
<path d="M390.208 295.928C388.304 294.794 379.47 289.768 379.008 289.502C377.608 288.648 377.104 286.576 378.406 285.176L413.28 247.768L424.648 254.292L389.788 291.714C388.528 293.058 388.934 295.004 390.208 295.928Z" fill="#455A64"/>
<path d="M424.649 254.306L389.789 291.714C388.039 293.59 389.523 296.628 392.071 296.418L424.649 293.73V254.306Z" fill="#37474F"/>
<path d="M501.425 186.98C518.617 177.054 532.547 185.104 532.547 204.942C532.547 224.794 518.617 248.93 501.425 258.842C484.233 268.768 470.303 260.718 470.303 240.866C470.303 221.042 484.233 196.906 501.425 186.98Z" fill="url(#paint4_linear_596_928)"/>
<path d="M501.215 202.604C506.787 199.384 511.309 201.988 511.309 208.428C511.309 214.868 506.787 222.694 501.215 225.914C495.643 229.134 491.121 226.53 491.121 220.09C491.107 213.65 495.629 205.824 501.215 202.604Z" fill="white"/>
<path d="M521.108 236.932C521.108 226.348 513.674 222.064 504.518 227.356L498.792 230.66C489.636 235.952 482.202 248.818 482.202 259.388V262.272C483.854 262.818 485.646 263.098 487.55 263.098C491.722 263.112 496.44 261.726 501.424 258.842C508.886 254.53 515.746 247.53 521.108 239.368V236.932Z" fill="white"/>
<path d="M481.712 357.122L521.15 334.358C522.83 333.392 524.188 334.176 524.188 336.108V348.806C524.188 350.738 522.83 353.09 521.15 354.056L481.712 376.82C480.032 377.786 478.674 377.002 478.674 375.07V362.372C478.674 360.44 480.032 358.088 481.712 357.122Z" fill="url(#paint5_linear_596_928)"/>
<path d="M462.407 328.758L540.429 283.706C542.431 282.544 544.069 283.482 544.069 285.806V290.538C544.069 292.862 542.445 295.676 540.429 296.838L462.407 341.89C460.405 343.052 458.767 342.114 458.767 339.79V335.058C458.781 332.734 460.405 329.906 462.407 328.758Z" fill="#FAFAFA"/>
<path d="M471.534 296.152C472.598 295.536 473.424 295.452 474.012 295.872C474.6 296.306 474.894 297.258 474.894 298.742C474.894 300.226 474.6 301.528 474.012 302.662C473.424 303.782 472.598 304.65 471.534 305.266L469.434 306.484V311.006C469.434 311.16 469.392 311.3 469.322 311.454C469.252 311.608 469.168 311.706 469.07 311.762L468.006 312.378C467.908 312.434 467.824 312.434 467.754 312.364C467.684 312.294 467.642 312.196 467.642 312.042V298.952C467.642 298.798 467.684 298.658 467.754 298.504C467.824 298.35 467.908 298.252 468.006 298.196L471.534 296.152ZM469.434 303.95L471.478 302.774C471.982 302.48 472.374 302.102 472.682 301.626C472.976 301.15 473.13 300.534 473.13 299.778C473.13 299.022 472.976 298.588 472.682 298.462C472.388 298.35 471.982 298.434 471.478 298.714L469.434 299.89V303.95Z" fill="#FAFAFA"/>
<path d="M480.759 290.818C480.899 290.734 481.011 290.734 481.081 290.804C481.151 290.874 481.207 291.014 481.263 291.21L484.483 302.158C484.497 302.2 484.497 302.242 484.497 302.298C484.497 302.452 484.455 302.592 484.385 302.746C484.315 302.9 484.231 302.998 484.133 303.054L483.181 303.6C483.013 303.698 482.887 303.712 482.817 303.642C482.747 303.572 482.705 303.488 482.677 303.39L482.117 301.472L477.959 303.88L477.399 306.456C477.371 306.582 477.329 306.722 477.259 306.876C477.189 307.03 477.063 307.156 476.895 307.268L475.943 307.814C475.845 307.87 475.761 307.87 475.691 307.8C475.621 307.73 475.579 307.632 475.579 307.478C475.579 307.422 475.579 307.38 475.593 307.324L478.813 292.652C478.869 292.386 478.925 292.19 478.995 292.022C479.065 291.868 479.163 291.742 479.317 291.672L480.759 290.818ZM481.487 299.302L480.045 294.36L478.603 300.968L481.487 299.302Z" fill="#FAFAFA"/>
<path d="M489.398 285.624C489.986 285.288 490.504 285.106 490.952 285.092C491.4 285.078 491.778 285.162 492.072 285.358C492.366 285.554 492.59 285.82 492.744 286.17C492.898 286.52 492.982 286.884 492.996 287.262C493.01 287.416 492.968 287.57 492.898 287.71C492.828 287.85 492.73 287.948 492.646 288.004L491.722 288.536C491.568 288.62 491.456 288.648 491.386 288.592C491.316 288.55 491.246 288.466 491.176 288.354C491.05 288.088 490.84 287.906 490.574 287.822C490.308 287.724 489.902 287.836 489.384 288.13C489.16 288.256 488.936 288.424 488.74 288.62C488.53 288.816 488.348 289.026 488.194 289.264C488.04 289.488 487.914 289.74 487.83 289.992C487.746 290.244 487.704 290.496 487.704 290.762C487.704 291.07 487.746 291.308 487.83 291.448C487.914 291.602 488.054 291.686 488.25 291.714C488.446 291.742 488.712 291.728 489.034 291.658C489.356 291.588 489.762 291.504 490.252 291.378C490.784 291.252 491.232 291.196 491.61 291.21C491.988 291.224 492.296 291.336 492.548 291.518C492.786 291.714 492.968 291.994 493.094 292.358C493.206 292.722 493.276 293.184 493.276 293.73C493.276 294.332 493.192 294.948 493.01 295.578C492.842 296.194 492.59 296.796 492.254 297.342C491.932 297.902 491.526 298.42 491.05 298.91C490.574 299.4 490.042 299.82 489.454 300.156C488.964 300.436 488.488 300.618 488.04 300.688C487.592 300.758 487.2 300.73 486.85 300.59C486.5 300.45 486.22 300.184 486.01 299.82C485.8 299.456 485.688 298.98 485.66 298.406C485.646 298.252 485.688 298.098 485.758 297.958C485.828 297.818 485.912 297.72 486.01 297.664L486.934 297.132C487.088 297.048 487.2 297.02 487.27 297.062C487.354 297.104 487.41 297.174 487.466 297.314C487.522 297.454 487.606 297.594 487.69 297.72C487.774 297.846 487.9 297.93 488.04 297.986C488.194 298.042 488.376 298.042 488.6 298C488.824 297.958 489.104 297.846 489.44 297.65C489.706 297.496 489.958 297.328 490.21 297.118C490.448 296.922 490.672 296.684 490.854 296.446C491.036 296.194 491.19 295.942 491.302 295.662C491.414 295.382 491.47 295.088 491.47 294.78C491.47 294.486 491.414 294.276 491.288 294.164C491.162 294.052 490.98 293.996 490.728 293.996C490.476 294.01 490.168 294.052 489.804 294.15C489.44 294.234 489.006 294.332 488.53 294.416C488.096 294.514 487.704 294.542 487.382 294.5C487.046 294.472 486.78 294.346 486.57 294.15C486.36 293.954 486.192 293.66 486.094 293.282C485.982 292.904 485.94 292.414 485.94 291.798C485.94 291.196 486.024 290.58 486.206 289.964C486.374 289.348 486.626 288.774 486.934 288.228C487.242 287.682 487.606 287.192 488.04 286.73C488.46 286.282 488.908 285.918 489.398 285.624Z" fill="#FAFAFA"/>
<path d="M498.596 280.332C499.184 279.996 499.702 279.814 500.15 279.8C500.598 279.786 500.976 279.87 501.27 280.066C501.564 280.262 501.788 280.528 501.942 280.878C502.096 281.228 502.18 281.592 502.194 281.97C502.208 282.124 502.166 282.278 502.096 282.418C502.026 282.558 501.928 282.656 501.844 282.712L500.92 283.244C500.766 283.328 500.654 283.356 500.584 283.3C500.514 283.258 500.444 283.174 500.374 283.062C500.248 282.796 500.038 282.614 499.772 282.53C499.506 282.432 499.114 282.544 498.582 282.838C498.358 282.964 498.134 283.132 497.938 283.328C497.728 283.524 497.546 283.734 497.392 283.958C497.238 284.182 497.112 284.434 497.028 284.686C496.944 284.938 496.902 285.19 496.902 285.456C496.902 285.764 496.944 286.002 497.028 286.142C497.112 286.296 497.252 286.38 497.448 286.408C497.644 286.436 497.91 286.422 498.232 286.352C498.554 286.282 498.96 286.198 499.45 286.072C499.982 285.946 500.43 285.89 500.808 285.904C501.186 285.918 501.508 286.016 501.746 286.212C501.984 286.408 502.166 286.688 502.292 287.052C502.404 287.416 502.474 287.878 502.474 288.424C502.474 289.026 502.39 289.642 502.208 290.272C502.04 290.888 501.788 291.49 501.452 292.036C501.13 292.596 500.724 293.114 500.248 293.604C499.772 294.094 499.24 294.514 498.652 294.85C498.162 295.13 497.686 295.312 497.238 295.396C496.79 295.466 496.398 295.438 496.048 295.298C495.698 295.158 495.418 294.906 495.208 294.528C494.998 294.164 494.872 293.688 494.858 293.114C494.844 292.96 494.886 292.806 494.956 292.666C495.026 292.526 495.11 292.428 495.208 292.372L496.132 291.84C496.286 291.756 496.398 291.728 496.468 291.77C496.552 291.798 496.608 291.882 496.664 292.022C496.72 292.162 496.804 292.302 496.888 292.428C496.972 292.554 497.098 292.638 497.238 292.694C497.392 292.75 497.574 292.75 497.798 292.708C498.022 292.666 498.302 292.554 498.638 292.358C498.904 292.204 499.156 292.036 499.394 291.826C499.632 291.63 499.856 291.406 500.038 291.154C500.22 290.902 500.374 290.65 500.486 290.37C500.598 290.09 500.654 289.796 500.654 289.488C500.654 289.194 500.598 288.984 500.472 288.858C500.346 288.746 500.164 288.69 499.912 288.69C499.66 288.704 499.352 288.746 498.988 288.844C498.624 288.942 498.19 289.026 497.714 289.11C497.28 289.194 496.888 289.236 496.566 289.194C496.244 289.166 495.964 289.04 495.754 288.844C495.544 288.648 495.376 288.354 495.278 287.976C495.166 287.598 495.124 287.108 495.124 286.492C495.124 285.89 495.208 285.274 495.39 284.658C495.558 284.042 495.81 283.468 496.118 282.922C496.426 282.376 496.79 281.886 497.224 281.424C497.644 280.976 498.106 280.612 498.596 280.332Z" fill="#FAFAFA"/>
<path d="M508.802 282.082L507.668 288.802C507.626 289.026 507.57 289.222 507.5 289.39C507.43 289.558 507.332 289.684 507.206 289.754L506.142 290.37C506.016 290.44 505.904 290.44 505.834 290.356C505.764 290.272 505.708 290.132 505.68 289.95L503.986 278.134C503.972 278.078 503.972 278.022 503.972 277.98C503.972 277.826 504.014 277.686 504.084 277.532C504.154 277.378 504.238 277.28 504.336 277.224L505.316 276.664C505.4 276.608 505.484 276.608 505.568 276.636C505.652 276.678 505.694 276.776 505.722 276.972L506.828 284.924L507.808 278.946C507.822 278.834 507.864 278.694 507.934 278.512C508.004 278.33 508.116 278.19 508.27 278.092L509.348 277.462C509.502 277.364 509.614 277.378 509.684 277.49C509.754 277.602 509.796 277.7 509.81 277.784L510.79 282.628L511.896 273.402C511.924 273.178 511.98 273.01 512.05 272.884C512.134 272.758 512.218 272.674 512.302 272.618L513.282 272.058C513.38 272.002 513.464 272.002 513.534 272.072C513.604 272.142 513.646 272.24 513.646 272.394C513.646 272.436 513.646 272.492 513.632 272.562L511.952 286.324C511.924 286.548 511.882 286.73 511.798 286.912C511.728 287.08 511.616 287.206 511.49 287.29L510.426 287.906C510.3 287.976 510.188 287.976 510.132 287.892C510.062 287.794 510.006 287.668 509.964 287.486L508.802 282.082Z" fill="#FAFAFA"/>
<path d="M515.353 276.146C515.381 275.376 515.479 274.606 515.633 273.85C515.801 273.094 516.039 272.366 516.347 271.694C516.669 271.022 517.061 270.392 517.537 269.832C518.013 269.272 518.573 268.796 519.231 268.418C519.875 268.054 520.435 267.872 520.897 267.872C521.373 267.886 521.765 268.04 522.087 268.362C522.409 268.684 522.647 269.118 522.815 269.692C522.983 270.266 523.081 270.924 523.109 271.68C523.123 271.932 523.123 272.212 523.123 272.52C523.123 272.828 523.123 273.15 523.123 273.472C523.123 273.794 523.123 274.13 523.123 274.438C523.123 274.746 523.109 275.04 523.109 275.306C523.081 276.076 522.983 276.846 522.829 277.602C522.661 278.358 522.423 279.086 522.115 279.758C521.793 280.43 521.401 281.046 520.925 281.606C520.449 282.166 519.889 282.628 519.245 283.006C518.601 283.384 518.027 283.566 517.551 283.552C517.075 283.538 516.683 283.384 516.361 283.076C516.039 282.768 515.801 282.32 515.647 281.746C515.479 281.172 515.395 280.514 515.367 279.772C515.353 279.52 515.353 279.24 515.353 278.932C515.353 278.624 515.353 278.302 515.353 277.98C515.353 277.644 515.353 277.322 515.353 277.014C515.339 276.692 515.339 276.398 515.353 276.146ZM521.317 272.8C521.275 271.848 521.079 271.218 520.701 270.896C520.323 270.574 519.833 270.602 519.217 270.952C518.601 271.302 518.111 271.862 517.733 272.604C517.355 273.36 517.159 274.228 517.117 275.222C517.103 275.74 517.089 276.328 517.089 276.958C517.089 277.588 517.103 278.148 517.117 278.652C517.145 279.604 517.355 280.234 517.733 280.542C518.111 280.85 518.601 280.836 519.217 280.472C519.833 280.122 520.323 279.562 520.701 278.834C521.079 278.092 521.275 277.224 521.317 276.23C521.331 275.712 521.345 275.124 521.345 274.508C521.345 273.892 521.331 273.304 521.317 272.8Z" fill="#FAFAFA"/>
<path d="M529.242 262.832C530.334 262.202 531.174 262.104 531.748 262.566C532.322 263.028 532.602 263.938 532.602 265.338C532.602 266.332 532.462 267.256 532.168 268.11C531.874 268.978 531.44 269.748 530.866 270.406L532.686 274.368C532.714 274.438 532.728 274.494 532.728 274.564C532.728 274.69 532.7 274.802 532.644 274.928C532.588 275.054 532.518 275.124 532.434 275.18L531.314 275.824C531.146 275.922 531.006 275.936 530.922 275.852C530.838 275.768 530.782 275.684 530.74 275.6L529.018 271.876L527.268 272.884V277.602C527.268 277.756 527.226 277.896 527.156 278.05C527.086 278.204 527.002 278.302 526.904 278.358L525.84 278.974C525.742 279.03 525.658 279.03 525.588 278.96C525.518 278.89 525.476 278.792 525.476 278.638V265.548C525.476 265.394 525.504 265.254 525.588 265.1C525.658 264.946 525.742 264.848 525.84 264.792L529.242 262.832ZM527.268 270.364L529.172 269.258C529.676 268.964 530.068 268.6 530.376 268.166C530.67 267.718 530.824 267.13 530.824 266.36C530.824 265.604 530.67 265.184 530.376 265.1C530.082 265.016 529.676 265.114 529.172 265.408L527.268 266.514V270.364Z" fill="#FAFAFA"/>
<path d="M538.579 257.442C539.223 257.064 539.797 256.868 540.273 256.854C540.749 256.84 541.155 256.98 541.477 257.288C541.799 257.582 542.037 258.03 542.219 258.632C542.387 259.22 542.499 259.934 542.527 260.76C542.569 261.74 542.569 262.734 542.527 263.756C542.485 264.624 542.387 265.464 542.219 266.248C542.051 267.032 541.799 267.76 541.491 268.432C541.169 269.104 540.777 269.706 540.315 270.238C539.853 270.77 539.293 271.218 538.663 271.582L535.345 273.5C535.247 273.556 535.163 273.556 535.093 273.486C535.023 273.416 534.981 273.318 534.981 273.164V260.074C534.981 259.92 535.023 259.78 535.093 259.626C535.163 259.472 535.247 259.374 535.345 259.318L538.579 257.442ZM540.735 261.782C540.721 261.362 540.665 260.984 540.567 260.676C540.469 260.354 540.343 260.116 540.161 259.934C539.979 259.766 539.755 259.682 539.489 259.682C539.209 259.682 538.887 259.794 538.509 260.018L536.745 261.04V270.168L538.579 269.118C538.943 268.908 539.251 268.656 539.517 268.348C539.783 268.04 539.993 267.704 540.175 267.326C540.343 266.948 540.483 266.556 540.581 266.122C540.679 265.688 540.721 265.254 540.749 264.806C540.777 263.77 540.777 262.776 540.735 261.782Z" fill="#FAFAFA"/>
<path d="M346.332 54.246C348.782 54.792 351.092 55.66 353.248 56.85C355.418 58.04 357.252 59.496 358.75 61.218C360.248 62.94 361.34 64.9 361.998 67.098C362.656 69.296 362.712 71.662 362.138 74.21C361.676 76.296 360.948 78.032 359.968 79.418C358.974 80.804 357.84 82.008 356.552 83.002C355.264 83.996 353.906 84.878 352.492 85.62C351.064 86.376 349.72 87.09 348.46 87.762C347.186 88.434 346.038 89.176 345.016 89.988C343.994 90.8 343.266 91.766 342.86 92.872C342.622 93.418 342.286 93.866 341.824 94.202C341.362 94.538 340.858 94.636 340.284 94.51L334.348 93.194C333.774 93.068 333.312 92.746 332.962 92.228C332.612 91.71 332.528 91.178 332.71 90.618C333.27 88.616 334.082 86.922 335.188 85.55C336.28 84.178 337.498 83.002 338.842 82.022C340.186 81.042 341.572 80.188 343.014 79.46C344.456 78.746 345.8 78.046 347.046 77.36C348.292 76.674 349.342 75.96 350.224 75.204C351.106 74.448 351.666 73.51 351.904 72.418C352.338 70.444 351.876 68.624 350.49 66.986C349.104 65.348 347.032 64.214 344.274 63.598C339.85 62.618 336.112 64.116 333.046 68.078C332.654 68.596 332.29 68.96 331.94 69.184C331.59 69.408 331.072 69.45 330.4 69.296L324.072 67.896C323.61 67.798 323.232 67.546 322.966 67.154C322.7 66.762 322.616 66.314 322.728 65.796C323.176 63.99 324.156 62.254 325.64 60.588C327.124 58.922 328.944 57.522 331.072 56.388C333.214 55.254 335.594 54.456 338.24 54.008C340.872 53.56 343.574 53.644 346.332 54.246ZM339.626 99.298C340.2 99.424 340.648 99.746 340.97 100.25C341.292 100.754 341.39 101.3 341.264 101.874L339.738 108.748C339.612 109.322 339.29 109.77 338.786 110.092C338.282 110.414 337.736 110.512 337.162 110.386L330.442 108.902C329.868 108.776 329.42 108.454 329.098 107.95C328.776 107.446 328.678 106.9 328.804 106.326L330.33 99.452C330.456 98.878 330.778 98.43 331.282 98.108C331.786 97.786 332.332 97.688 332.906 97.814L339.626 99.298Z" fill="url(#paint6_linear_596_928)"/>
<path d="M353.808 119.92C355.516 119.64 357.21 119.598 358.904 119.808C360.598 120.018 362.152 120.48 363.552 121.194C364.952 121.922 366.156 122.902 367.136 124.134C368.13 125.366 368.76 126.878 369.054 128.656C369.292 130.112 369.264 131.414 368.998 132.562C368.718 133.71 368.298 134.76 367.724 135.74C367.15 136.706 366.506 137.616 365.792 138.456C365.078 139.296 364.392 140.094 363.748 140.864C363.104 141.62 362.558 142.39 362.11 143.174C361.662 143.958 361.452 144.756 361.466 145.568C361.452 145.988 361.354 146.352 361.144 146.688C360.934 147.024 360.626 147.22 360.234 147.29L356.09 147.962C355.684 148.032 355.306 147.934 354.956 147.696C354.606 147.458 354.41 147.136 354.382 146.73C354.228 145.302 354.326 144.014 354.676 142.852C355.026 141.69 355.502 140.626 356.104 139.646C356.706 138.666 357.378 137.77 358.12 136.944C358.862 136.118 359.548 135.32 360.164 134.564C360.78 133.808 361.284 133.08 361.648 132.366C362.012 131.652 362.138 130.91 362.012 130.154C361.788 128.782 361.018 127.732 359.716 127.032C358.414 126.332 356.79 126.136 354.872 126.458C351.778 126.962 349.762 128.88 348.824 132.198C348.712 132.632 348.572 132.954 348.404 133.192C348.236 133.43 347.914 133.584 347.452 133.654L343.042 134.382C342.72 134.438 342.412 134.368 342.146 134.2C341.88 134.018 341.712 133.752 341.656 133.388C341.488 132.114 341.656 130.756 342.188 129.3C342.72 127.858 343.518 126.486 344.596 125.212C345.674 123.938 347.004 122.818 348.572 121.852C350.126 120.886 351.876 120.242 353.808 119.92ZM361.032 150.51C361.438 150.44 361.802 150.538 362.138 150.776C362.474 151.014 362.67 151.336 362.74 151.742L363.524 156.544C363.594 156.95 363.496 157.314 363.258 157.65C363.02 157.986 362.698 158.182 362.292 158.252L357.602 159.022C357.196 159.092 356.832 158.994 356.496 158.756C356.16 158.518 355.95 158.196 355.894 157.79L355.11 152.988C355.04 152.596 355.138 152.218 355.376 151.882C355.614 151.546 355.936 151.336 356.342 151.28L361.032 150.51Z" fill="url(#paint7_linear_596_928)"/>
<g opacity="0.2">
<path d="M353.808 119.92C355.516 119.64 357.21 119.598 358.904 119.808C360.598 120.018 362.152 120.48 363.552 121.194C364.952 121.922 366.156 122.902 367.136 124.134C368.13 125.366 368.76 126.878 369.054 128.656C369.292 130.112 369.264 131.414 368.998 132.562C368.718 133.71 368.298 134.76 367.724 135.74C367.15 136.706 366.506 137.616 365.792 138.456C365.078 139.296 364.392 140.094 363.748 140.864C363.104 141.62 362.558 142.39 362.11 143.174C361.662 143.958 361.452 144.756 361.466 145.568C361.452 145.988 361.354 146.352 361.144 146.688C360.934 147.024 360.626 147.22 360.234 147.29L356.09 147.962C355.684 148.032 355.306 147.934 354.956 147.696C354.606 147.458 354.41 147.136 354.382 146.73C354.228 145.302 354.326 144.014 354.676 142.852C355.026 141.69 355.502 140.626 356.104 139.646C356.706 138.666 357.378 137.77 358.12 136.944C358.862 136.118 359.548 135.32 360.164 134.564C360.78 133.808 361.284 133.08 361.648 132.366C362.012 131.652 362.138 130.91 362.012 130.154C361.788 128.782 361.018 127.732 359.716 127.032C358.414 126.332 356.79 126.136 354.872 126.458C351.778 126.962 349.762 128.88 348.824 132.198C348.712 132.632 348.572 132.954 348.404 133.192C348.236 133.43 347.914 133.584 347.452 133.654L343.042 134.382C342.72 134.438 342.412 134.368 342.146 134.2C341.88 134.018 341.712 133.752 341.656 133.388C341.488 132.114 341.656 130.756 342.188 129.3C342.72 127.858 343.518 126.486 344.596 125.212C345.674 123.938 347.004 122.818 348.572 121.852C350.126 120.886 351.876 120.242 353.808 119.92ZM361.032 150.51C361.438 150.44 361.802 150.538 362.138 150.776C362.474 151.014 362.67 151.336 362.74 151.742L363.524 156.544C363.594 156.95 363.496 157.314 363.258 157.65C363.02 157.986 362.698 158.182 362.292 158.252L357.602 159.022C357.196 159.092 356.832 158.994 356.496 158.756C356.16 158.518 355.95 158.196 355.894 157.79L355.11 152.988C355.04 152.596 355.138 152.218 355.376 151.882C355.614 151.546 355.936 151.336 356.342 151.28L361.032 150.51Z" fill="black"/>
</g>
<path d="M393.386 127.466C393.778 127.746 394.016 128.124 394.1 128.614C394.184 129.104 394.086 129.538 393.806 129.93L390.474 134.62C390.194 135.012 389.816 135.25 389.326 135.334C388.836 135.418 388.402 135.32 388.01 135.04L383.432 131.778C383.04 131.498 382.802 131.12 382.718 130.63C382.634 130.14 382.732 129.706 383.012 129.314L386.344 124.624C386.624 124.232 387.002 123.994 387.492 123.91C387.982 123.826 388.416 123.924 388.808 124.204L393.386 127.466ZM412.776 95.672C414.442 96.862 415.912 98.248 417.158 99.83C418.404 101.412 419.328 103.092 419.916 104.87C420.504 106.648 420.686 108.468 420.49 110.33C420.294 112.192 419.566 113.998 418.334 115.734C417.326 117.162 416.22 118.24 415.03 118.968C413.84 119.696 412.608 120.242 411.32 120.578C410.032 120.928 408.73 121.152 407.428 121.264C406.112 121.376 404.88 121.488 403.704 121.586C402.528 121.684 401.436 121.88 400.4 122.174C399.364 122.454 398.524 122.958 397.866 123.658C397.516 123.994 397.11 124.218 396.662 124.33C396.214 124.442 395.794 124.358 395.402 124.078L391.356 121.194C390.964 120.914 390.712 120.522 390.614 120.032C390.516 119.528 390.614 119.108 390.936 118.73C392 117.4 393.148 116.392 394.408 115.706C395.668 115.02 396.956 114.53 398.286 114.208C399.602 113.886 400.932 113.69 402.248 113.606C403.564 113.522 404.796 113.424 405.944 113.312C407.092 113.2 408.128 112.99 409.024 112.696C409.92 112.402 410.648 111.884 411.18 111.142C412.146 109.798 412.356 108.272 411.838 106.592C411.32 104.912 410.116 103.4 408.24 102.07C405.216 99.928 401.926 99.858 398.356 101.86C397.894 102.126 397.502 102.28 397.166 102.336C396.83 102.392 396.438 102.252 395.976 101.93L391.65 98.864C391.328 98.64 391.132 98.332 391.048 97.954C390.964 97.576 391.062 97.212 391.314 96.848C392.238 95.63 393.512 94.636 395.164 93.852C396.816 93.068 398.622 92.592 400.596 92.424C402.57 92.242 404.614 92.41 406.756 92.914C408.884 93.404 410.9 94.328 412.776 95.672Z" fill="url(#paint8_linear_596_928)"/>
<g opacity="0.6">
<path d="M393.386 127.466C393.778 127.746 394.016 128.124 394.1 128.614C394.184 129.104 394.086 129.538 393.806 129.93L390.474 134.62C390.194 135.012 389.816 135.25 389.326 135.334C388.836 135.418 388.402 135.32 388.01 135.04L383.432 131.778C383.04 131.498 382.802 131.12 382.718 130.63C382.634 130.14 382.732 129.706 383.012 129.314L386.344 124.624C386.624 124.232 387.002 123.994 387.492 123.91C387.982 123.826 388.416 123.924 388.808 124.204L393.386 127.466ZM412.776 95.672C414.442 96.862 415.912 98.248 417.158 99.83C418.404 101.412 419.328 103.092 419.916 104.87C420.504 106.648 420.686 108.468 420.49 110.33C420.294 112.192 419.566 113.998 418.334 115.734C417.326 117.162 416.22 118.24 415.03 118.968C413.84 119.696 412.608 120.242 411.32 120.578C410.032 120.928 408.73 121.152 407.428 121.264C406.112 121.376 404.88 121.488 403.704 121.586C402.528 121.684 401.436 121.88 400.4 122.174C399.364 122.454 398.524 122.958 397.866 123.658C397.516 123.994 397.11 124.218 396.662 124.33C396.214 124.442 395.794 124.358 395.402 124.078L391.356 121.194C390.964 120.914 390.712 120.522 390.614 120.032C390.516 119.528 390.614 119.108 390.936 118.73C392 117.4 393.148 116.392 394.408 115.706C395.668 115.02 396.956 114.53 398.286 114.208C399.602 113.886 400.932 113.69 402.248 113.606C403.564 113.522 404.796 113.424 405.944 113.312C407.092 113.2 408.128 112.99 409.024 112.696C409.92 112.402 410.648 111.884 411.18 111.142C412.146 109.798 412.356 108.272 411.838 106.592C411.32 104.912 410.116 103.4 408.24 102.07C405.216 99.928 401.926 99.858 398.356 101.86C397.894 102.126 397.502 102.28 397.166 102.336C396.83 102.392 396.438 102.252 395.976 101.93L391.65 98.864C391.328 98.64 391.132 98.332 391.048 97.954C390.964 97.576 391.062 97.212 391.314 96.848C392.238 95.63 393.512 94.636 395.164 93.852C396.816 93.068 398.622 92.592 400.596 92.424C402.57 92.242 404.614 92.41 406.756 92.914C408.884 93.404 410.9 94.328 412.776 95.672Z" fill="white"/>
</g>
<path d="M289.142 251.394H239.4V130.882C239.4 109.084 257.068 91.416 278.866 91.416H283.458C305.256 91.416 322.924 109.084 322.924 130.882V217.612C322.924 236.274 307.79 251.394 289.142 251.394Z" fill="#263238"/>
<path d="M234.556 541.516C234.15 544.54 233.282 548.082 233.114 556.636C232.946 565.82 231.252 569.082 231.028 576.614C230.776 585.224 232.26 588.444 235.76 593.288C239.26 598.132 248.43 602.514 252.294 594.338C256.214 586.064 255.668 580.8 254.436 572.358C253.148 563.622 252.994 558.806 252.252 552.142C251.594 546.276 250.81 541.81 250.81 541.81L234.556 541.516Z" fill="#263238"/>
<path d="M260.624 480.518L230.384 479.972C230.832 500.16 234.038 522.574 234.57 541.516C234.668 545.086 234.486 569.222 235.83 576.558C237.846 587.576 250.936 586.092 251.636 579.498C252.336 572.904 250.796 544.708 250.838 541.81C250.726 529.658 256.41 509.148 259.406 487.336C259.532 486.272 260.484 481.568 260.624 480.518Z" fill="#FFA8A7"/>
<path d="M299.473 525.808C299.473 525.808 298.283 525.164 298.031 526.438C297.737 527.95 297.303 531.086 296.673 533.564C295.791 537.022 295.077 542.72 295.595 545.534C296.113 548.348 302.693 551.988 306.963 553.29C313.263 555.222 317.575 558.372 321.019 561.62C325.247 565.596 334.361 569.348 340.577 569.306C347.927 569.25 353.051 566.856 355.473 562.922C358.007 558.82 353.261 558.512 344.875 553.066C342.971 551.834 340.801 550.434 338.351 548.838C325.051 540.144 320.179 535.496 316.413 526.802L299.473 525.808Z" fill="#263238"/>
<path d="M316.512 520.418C316.288 514.16 320.572 461.128 320.572 461.128L291.844 474.218C297.99 510.926 299.306 519.592 299.418 525.598C299.376 525.738 299.25 526.242 299.25 527.138C299.278 534.264 307.328 538.114 313.6 542.874C316.078 544.75 323.288 550.294 330.582 553.962C335.146 556.258 344.414 556.468 345.562 553.528C337.918 547.69 326.802 538.954 320.726 532.304C317.842 529.126 316.736 526.676 316.512 520.418Z" fill="#FFA8A7"/>
<path d="M242.774 283.524C231.742 307.744 231.742 326.462 233.576 357.36C235.242 385.696 237.916 410.658 237.916 410.658C237.496 415.684 230.496 425.498 229.6 447.73C228.76 468.506 231.028 494.924 231.028 494.924C231.028 494.924 246.722 503.618 258.328 494.854C258.328 494.854 269.528 441.388 272.804 415.376C275.674 392.682 280.644 363.674 280.644 363.674L291.186 415.25C291.186 415.25 287.182 427.962 286.244 437.65C284.76 452.952 293.314 482.996 293.314 482.996C293.314 482.996 309.526 487.84 319.424 479.048C319.424 479.048 323.134 430.202 324.506 411.778C326.354 387.096 322.462 320.288 319.424 284.91L242.774 283.524Z" fill="#455A64"/>
<path d="M280.629 363.674L284.983 324.852C284.983 324.852 304.499 322.248 313.347 313.932C313.347 313.932 306.711 326.098 290.345 328.464L284.045 364.598L291.171 415.264L280.629 363.674Z" fill="#263238"/>
<path d="M359.66 273.976C360.878 262.076 360.822 254.152 360.724 252.626C360.304 246.466 359.198 245.458 350.588 234.552C338.954 219.81 329.028 206.566 318.542 193.392C311.052 183.984 303.17 182.528 295.47 182.962C290.094 183.256 300.58 209.114 305.872 224.416L336.042 256.868C336.966 258.156 337.4 259.724 337.246 261.306L335.398 288.928L344.428 301.01C344.414 301.01 358.092 289.208 359.66 273.976Z" fill="#FFA8A7"/>
<path d="M266.392 183.788C260.554 184.194 249.942 185.118 249.942 185.118C243.824 188.534 242.27 191.334 241.136 199.468C240.646 202.926 243.474 212.152 245.896 225.27L250.488 249.588L249.984 261.656C247.604 269.02 242.2 278.162 237.454 291.644C260.834 304.692 280.434 305.168 298.214 302.886C311.766 301.15 318.948 297.86 321.342 294.626C320.838 281.298 319.9 273.08 319.676 259.164C319.578 253.312 319.928 247.418 320.152 240.698C329.252 233.222 329.35 220.804 324.394 212.768C312.872 194.106 301.658 182.36 294.238 182.962L266.392 183.788Z" fill="url(#paint9_linear_596_928)"/>
<path opacity="0.6" d="M266.392 183.788C260.554 184.194 249.942 185.118 249.942 185.118C243.824 188.534 242.27 191.334 241.136 199.468C240.646 202.926 243.474 212.152 245.896 225.27L250.488 249.588L249.984 261.656C247.604 269.02 242.2 278.162 237.454 291.644C260.834 304.692 280.434 305.168 298.214 302.886C311.766 301.15 318.948 297.86 321.342 294.626C320.838 281.298 319.9 273.08 319.676 259.164C319.578 253.312 319.928 247.418 320.152 240.698C329.252 233.222 329.35 220.804 324.394 212.768C312.872 194.106 301.658 182.36 294.238 182.962L266.392 183.788Z" fill="white"/>
<path opacity="0.1" d="M302.05 240.908C302.05 240.908 291.368 249.196 279.188 244.87C267.008 240.544 265.23 229.904 265.23 229.904C265.23 229.904 263.942 243.834 279.3 248.58C294.14 253.158 302.05 240.908 302.05 240.908Z" fill="black"/>
<path d="M316.526 145.554C316.064 165.77 309.512 170.768 306.222 172.196C302.932 173.638 296.59 172.756 290.43 171.734V183.858C290.43 183.858 297.542 191.306 297.01 196.864C296.464 202.436 285.838 203.052 277.858 197.606C272.034 193.644 267.876 189.108 266.056 186.952C265.398 186.168 265.034 185.188 265.034 184.166V155.62C265.034 155.62 261.66 159.19 255.682 155.102C249.718 151.028 249.214 143.412 252.854 139.114C255.458 136.062 262.052 135.838 265.23 140.598C267.008 144.084 267.26 147.584 269.248 146.142C274.568 142.306 271.712 133.598 278.152 129.286C278.166 129.286 278.166 129.272 278.18 129.272C280.098 128.236 282.282 127.256 284.732 126.416C296.198 122.454 306.138 119.122 308.532 111.282C313.054 113.97 317.086 121.712 316.526 145.554Z" fill="#FFA8A7"/>
<path d="M293.916 163.614C295.385 163.614 296.576 162.423 296.576 160.954C296.576 159.485 295.385 158.294 293.916 158.294C292.447 158.294 291.256 159.485 291.256 160.954C291.256 162.423 292.447 163.614 293.916 163.614Z" fill="#B16668"/>
<path d="M292.152 142.488C292.236 144.084 291.046 145.442 289.506 145.526C287.966 145.596 286.65 144.364 286.566 142.754C286.482 141.158 287.672 139.8 289.212 139.716C290.752 139.646 292.068 140.892 292.152 142.488Z" fill="#263238"/>
<path d="M313.362 142.768C313.432 144.224 312.354 145.456 310.954 145.526C309.414 145.596 308.364 144.616 308.28 143.006C308.21 141.55 309.288 140.318 310.688 140.248C312.088 140.178 313.292 141.312 313.362 142.768Z" fill="#263238"/>
<path d="M288.555 149.684C283.529 149.684 279.455 145.596 279.455 140.584C279.455 134.396 285.839 134.396 288.555 134.396C291.285 134.396 297.655 134.396 297.655 140.584C297.655 145.596 293.567 149.684 288.555 149.684ZM288.555 135.824C283.039 135.824 280.883 137.154 280.883 140.584C280.883 144.812 284.327 148.256 288.555 148.256C292.783 148.256 296.227 144.812 296.227 140.584C296.227 137.154 294.071 135.824 288.555 135.824Z" fill="#455A64"/>
<path d="M311.668 149.684C306.642 149.684 302.568 145.596 302.568 140.584C302.568 134.396 308.952 134.396 311.668 134.396C314.398 134.396 320.768 134.396 320.768 140.584C320.768 145.596 316.68 149.684 311.668 149.684ZM311.668 135.824C306.152 135.824 303.996 137.154 303.996 140.584C303.996 144.812 307.44 148.256 311.668 148.256C315.896 148.256 319.34 144.812 319.34 140.584C319.34 137.154 317.184 135.824 311.668 135.824Z" fill="#455A64"/>
<path d="M299.068 137.644L299.516 154.654L308.462 151.882L299.068 137.644Z" fill="#F28F8F"/>
<path d="M290.416 171.734C283.92 170.88 270.55 167.044 268.464 161.752C268.464 161.752 269.164 165.07 273.154 168.5C277.144 171.93 290.416 175.78 290.416 175.78V171.734Z" fill="#F28F8F"/>
<path d="M290.738 129.384L284.802 132.996C283.836 131.288 284.368 129.09 286.006 128.096C287.644 127.102 289.758 127.676 290.738 129.384Z" fill="#263238"/>
<path d="M314.889 133.416L308.281 131.106C308.855 129.244 310.801 128.25 312.621 128.88C314.455 129.524 315.463 131.554 314.889 133.416Z" fill="#263238"/>
<path d="M296.94 141.312C296.548 141.312 296.226 140.99 296.226 140.584C296.226 139.422 298.536 138.666 300.594 138.666C302.652 138.666 303.996 139.422 303.996 140.584C303.996 140.976 303.674 141.298 303.282 141.298C302.89 141.298 302.568 140.976 302.568 140.584C302.498 140.458 301.84 140.108 300.594 140.108C299.348 140.108 297.724 140.458 297.654 140.598C297.654 140.99 297.332 141.312 296.94 141.312Z" fill="#455A64"/>
<path d="M280.182 140.696C280.154 140.696 280.126 140.696 280.098 140.696L264.096 139.24C263.802 138.974 263.046 138.19 261.478 137.532L280.266 139.268C280.658 139.31 280.938 139.674 280.896 140.066C280.854 140.43 280.546 140.696 280.182 140.696Z" fill="#455A64"/>
<path d="M214.48 157.384C219.716 150.398 223.286 145.106 228.06 139.114C230.776 135.712 232.512 133.276 235.116 129.79C236.908 127.382 237.958 125.366 239.96 124.61C242.2 123.77 244.356 122.118 245.798 120.606C246.834 119.528 247.674 118.282 248.556 117.078C251.552 113.046 255.122 109.448 259.126 106.424C263.34 103.246 268.016 100.824 272.342 97.8C274.918 95.994 277.69 92.998 274.554 90.198C273.616 89.358 272.426 88.868 271.208 88.602C263.592 86.936 256.942 89.568 249.494 91.472C246.26 92.298 243.068 93.334 240.002 94.678C238.518 95.322 237.034 96.036 235.802 97.086C233.884 98.724 232.736 101.062 231.49 103.26C228.144 109.168 221.2 114.376 216.314 118.968C210.588 124.358 205.464 129.3 198.926 135.25C193.046 140.598 187.292 145.54 181.888 151.378C177.422 156.208 179.046 160.002 179.69 161.304C183.33 168.78 187.404 171.468 192.262 176.102C200.69 184.124 229.712 207.224 239.344 214.84C241.402 216.478 243.026 218.592 244.062 221L245.896 225.27C256.872 227.286 264.194 210.808 255.108 190.97C253.638 187.75 251.3 185.006 248.43 182.92C236.964 174.576 214.48 157.384 214.48 157.384Z" fill="#FFA8A7"/>
<path d="M214.48 157.384C214.48 157.384 209.524 164.02 201.068 166.624C201.068 166.624 208.068 168.416 217.658 159.806L214.48 157.384Z" fill="#F28F8F"/>
<path d="M356.803 259.374H356.845L355.053 257.834V257.862C354.647 257.54 354.017 257.442 353.205 257.652L333.773 262.944C331.967 263.434 330.021 265.268 329.405 267.032L315.419 307.394C315.097 308.332 315.223 309.046 315.671 309.452H315.657L317.505 311.048V311.02C317.911 311.356 318.541 311.468 319.367 311.244L338.799 305.952C340.605 305.462 342.551 303.628 343.167 301.864C345.911 293.926 354.409 269.44 357.153 261.502C357.503 260.508 357.335 259.752 356.803 259.374Z" fill="#455A64"/>
<path d="M317.198 308.92L331.184 268.558C331.8 266.794 333.746 264.96 335.552 264.47L354.998 259.178C356.804 258.688 357.77 259.724 357.154 261.488C354.41 269.426 345.912 293.912 343.168 301.85C342.552 303.614 340.606 305.448 338.8 305.938L319.368 311.23C317.562 311.72 316.596 310.684 317.198 308.92Z" fill="url(#paint10_linear_596_928)"/>
<path d="M333.452 265.604C332.444 266.402 331.576 267.508 331.198 268.572L317.198 308.92C316.89 309.83 316.988 310.53 317.394 310.95L315.658 309.452L315.672 309.438C315.21 309.032 315.084 308.318 315.406 307.38L329.406 267.018C329.742 266.024 330.54 265.016 331.478 264.218L333.452 265.604Z" fill="#37474F"/>
<path d="M351.469 277.77C350.097 281.886 345.211 284.63 337.189 286.534C329.167 288.438 324.715 296.964 326.003 299.554C327.305 302.144 340.269 304.552 345.463 303.81C350.657 303.068 355.879 295.564 357.447 293.24C359.015 290.916 360.849 274.704 359.183 272.478C357.517 270.252 354.003 270.602 354.003 270.602L351.469 277.77Z" fill="#F28F8F"/>
<defs>
<linearGradient id="paint0_linear_596_928" x1="590.014" y1="356.28" x2="687.135" y2="401.701" gradientUnits="userSpaceOnUse">
<stop stop-color="#3FAEBF"/>
<stop offset="1" stop-color="#1C5C94"/>
</linearGradient>
<linearGradient id="paint1_linear_596_928" x1="603.985" y1="396.778" x2="685.935" y2="451.527" gradientUnits="userSpaceOnUse">
<stop stop-color="#3FAEBF"/>
<stop offset="1" stop-color="#1C5C94"/>
</linearGradient>
<linearGradient id="paint2_linear_596_928" x1="72.4551" y1="339.914" x2="166.881" y2="382.637" gradientUnits="userSpaceOnUse">
<stop stop-color="#3FAEBF"/>
<stop offset="1" stop-color="#1C5C94"/>
</linearGradient>
<linearGradient id="paint3_linear_596_928" x1="51.2104" y1="373.814" x2="154.516" y2="440.938" gradientUnits="userSpaceOnUse">
<stop stop-color="#3FAEBF"/>
<stop offset="1" stop-color="#1C5C94"/>
</linearGradient>
<linearGradient id="paint4_linear_596_928" x1="470.303" y1="182.729" x2="552.684" y2="246.234" gradientUnits="userSpaceOnUse">
<stop stop-color="#3FAEBF"/>
<stop offset="1" stop-color="#1C5C94"/>
</linearGradient>
<linearGradient id="paint5_linear_596_928" x1="478.674" y1="333.944" x2="524.514" y2="381.913" gradientUnits="userSpaceOnUse">
<stop stop-color="#3FAEBF"/>
<stop offset="1" stop-color="#1C5C94"/>
</linearGradient>
<linearGradient id="paint6_linear_596_928" x1="322.68" y1="53.724" x2="379.15" y2="93.2179" gradientUnits="userSpaceOnUse">
<stop stop-color="#3FAEBF"/>
<stop offset="1" stop-color="#1C5C94"/>
</linearGradient>
<linearGradient id="paint7_linear_596_928" x1="341.594" y1="119.676" x2="380.772" y2="147.036" gradientUnits="userSpaceOnUse">
<stop stop-color="#3FAEBF"/>
<stop offset="1" stop-color="#1C5C94"/>
</linearGradient>
<linearGradient id="paint8_linear_596_928" x1="382.688" y1="92.3528" x2="427.887" y2="131.969" gradientUnits="userSpaceOnUse">
<stop stop-color="#3FAEBF"/>
<stop offset="1" stop-color="#1C5C94"/>
</linearGradient>
<linearGradient id="paint9_linear_596_928" x1="237.454" y1="182.94" x2="360.213" y2="274.038" gradientUnits="userSpaceOnUse">
<stop stop-color="#3FAEBF"/>
<stop offset="1" stop-color="#1C5C94"/>
</linearGradient>
<linearGradient id="paint10_linear_596_928" x1="317.02" y1="259.056" x2="370.565" y2="300.147" gradientUnits="userSpaceOnUse">
<stop stop-color="#3FAEBF"/>
<stop offset="1" stop-color="#1C5C94"/>
</linearGradient>
</defs>
</svg>
