<svg width="700" height="700" viewBox="0 0 700 700" fill="none" xmlns="http://www.w3.org/2000/svg">
<path d="M348.67 680.47C530.843 680.47 678.524 595.206 678.524 490.028C678.524 384.85 530.843 299.586 348.67 299.586C166.497 299.586 18.8159 384.85 18.8159 490.028C18.8159 595.206 166.497 680.47 348.67 680.47Z" fill="#F0F0F0" fill-opacity="0.2"/>
<path d="M538.103 556.108C516.473 543.62 516.473 523.376 538.103 510.888C559.733 498.4 594.803 498.4 616.433 510.888C638.063 523.376 638.063 543.62 616.433 556.108C594.803 568.596 559.733 568.596 538.103 556.108Z" fill="#E0E0E0"/>
<path d="M98.1682 557.844L41.2722 525C38.0662 523.152 38.0662 520.142 41.2722 518.294L372.218 327.222C375.424 325.374 380.632 325.374 383.838 327.222L440.734 360.066C443.94 361.914 443.94 364.924 440.734 366.772L109.788 557.844C106.568 559.692 101.374 559.692 98.1682 557.844Z" fill="#E0E0E0"/>
<path d="M302.682 499.296L351.598 471.016C356.638 468.104 359.158 464.296 359.158 460.474C359.158 456.652 359.186 453.67 359.186 453.67L308.436 425.054C305.748 423.5 303.564 419.72 303.564 416.626V356.328L218.136 405.692V465.99C218.136 469.098 220.32 472.864 223.008 474.418L266.184 499.296C276.25 505.12 292.602 505.12 302.682 499.296Z" fill="url(#paint0_linear_596_338)"/>
<g opacity="0.6">
<path d="M302.682 499.296L351.598 471.016C356.638 468.104 359.158 464.296 359.158 460.474C359.158 456.652 359.186 453.67 359.186 453.67L308.436 425.054C305.748 423.5 303.564 419.72 303.564 416.626V356.328L218.136 405.692V465.99C218.136 469.098 220.32 472.864 223.008 474.418L266.184 499.296C276.25 505.12 292.602 505.12 302.682 499.296Z" fill="black"/>
</g>
<path opacity="0.3" d="M238.631 476.672V483.448L222.979 474.418C220.305 472.878 218.121 469.098 218.121 465.99V405.692L234.403 396.298C234.739 400.428 235.103 404.698 235.439 408.87L224.029 415.478V462.588C224.029 465.71 226.199 469.476 228.887 471.016L238.631 476.672Z" fill="black"/>
<path d="M224.016 462.602C224.016 465.71 226.2 469.476 228.888 471.03L266.156 492.492C276.236 498.316 292.588 498.316 302.682 492.492L351.612 464.212C361.692 458.388 361.692 448.952 351.612 443.128L314.316 421.638C311.628 420.084 309.444 416.304 309.444 413.21V366.086L224.016 415.45V462.602Z" fill="url(#paint1_linear_596_338)"/>
<path opacity="0.3" d="M224.016 462.602C224.016 465.71 226.2 469.476 228.888 471.03L266.156 492.492C276.236 498.316 292.588 498.316 302.682 492.492L351.612 464.212C361.692 458.388 361.692 448.952 351.612 443.128L314.316 421.638C311.628 420.084 309.444 416.304 309.444 413.21V366.086L224.016 415.45V462.602Z" fill="black"/>
<path opacity="0.5" d="M324.241 427.392L314.329 421.666C311.641 420.112 309.457 416.332 309.457 413.238V366.114L224.029 415.478V462.602C224.029 465.71 226.213 469.476 228.901 471.03L238.645 476.658L324.241 427.392Z" fill="black"/>
<path d="M359.172 453.684C359.172 453.684 359.172 456.666 359.172 460.488C359.172 464.31 356.638 468.104 351.612 471.03L302.696 499.296C297.866 502.11 291.594 503.51 285.266 503.622V496.846C291.594 496.762 297.866 495.306 302.696 492.52L351.612 464.226C356.638 461.328 359.172 457.506 359.172 453.684Z" fill="url(#paint2_linear_596_338)"/>
<path opacity="0.5" d="M359.172 453.684C359.172 453.684 359.172 456.666 359.172 460.488C359.172 464.31 356.638 468.104 351.612 471.03L302.696 499.296C297.866 502.11 291.594 503.51 285.266 503.622V496.846C291.594 496.762 297.866 495.306 302.696 492.52L351.612 464.226C356.638 461.328 359.172 457.506 359.172 453.684Z" fill="black"/>
<path d="M86.8429 521.164C89.9929 522.984 95.2709 522.886 98.6449 520.94C140.645 496.692 387.045 354.438 429.045 330.19C432.405 328.244 435.135 323.526 435.135 319.648V52.3739C435.135 48.4959 432.573 43.8759 429.423 42.0559C426.273 40.2359 420.995 40.3339 417.621 42.2799L87.2209 233.03C83.8609 234.976 81.1309 239.694 81.1309 243.572V510.846C81.1309 514.724 83.6929 519.344 86.8429 521.164Z" fill="url(#paint3_linear_596_338)"/>
<path d="M98.6452 520.94L429.045 330.19C432.405 328.244 435.135 323.526 435.135 319.648V52.3739C435.135 48.4959 432.405 46.9139 429.045 48.8599L98.6452 239.61C95.2852 241.556 92.5552 246.274 92.5552 250.152V517.426C92.5552 521.304 95.2852 522.886 98.6452 520.94Z" fill="url(#paint4_linear_596_338)"/>
<path opacity="0.5" d="M98.6452 520.94L429.045 330.19C432.405 328.244 435.135 323.526 435.135 319.648V52.3739C435.135 48.4959 432.405 46.9139 429.045 48.8599L98.6452 239.61C95.2852 241.556 92.5552 246.274 92.5552 250.152V517.426C92.5552 521.304 95.2852 522.886 98.6452 520.94Z" fill="black"/>
<path d="M97.7489 527.884C94.3749 529.368 89.7129 529.312 86.8429 527.66C83.6929 525.826 81.1309 521.22 81.1309 517.314V492.982L92.5409 499.59V523.922C92.5409 527.464 94.7949 529.074 97.7489 527.884Z" fill="url(#paint5_linear_596_338)"/>
<path opacity="0.5" d="M97.7489 527.884C94.3749 529.368 89.7129 529.312 86.8429 527.66C83.6929 525.826 81.1309 521.22 81.1309 517.314V492.982L92.5409 499.59V523.922C92.5409 527.464 94.7949 529.074 97.7489 527.884Z" fill="black"/>
<path d="M92.54 499.59L92.554 523.922C92.554 527.8 95.284 529.382 98.644 527.436L429.044 336.686C432.404 334.74 435.134 330.022 435.134 326.144V301.77L92.54 499.59Z" fill="url(#paint6_linear_596_338)"/>
<path opacity="0.3" d="M92.5552 499.534V523.908C92.5552 527.786 95.2852 529.368 98.6452 527.422L429.045 336.672C432.405 334.726 435.135 330.008 435.135 326.13V301.756L92.5552 499.534Z" fill="black"/>
<path d="M103.965 469.056V253.932C103.965 251.608 105.603 248.766 107.619 247.604L420.043 67.2418C422.059 66.0798 423.697 67.0178 423.697 69.3558L423.711 284.48C423.711 286.804 422.073 289.646 420.057 290.808L107.619 471.17C105.603 472.332 103.965 471.38 103.965 469.056Z" fill="url(#paint7_linear_596_338)"/>
<path d="M103.965 469.056V253.932C103.965 251.608 105.603 248.766 107.619 247.604L420.043 67.2418C422.059 66.0798 423.697 67.0178 423.697 69.3558L423.711 284.48C423.711 286.804 422.073 289.646 420.057 290.808L107.619 471.17C105.603 472.332 103.965 471.38 103.965 469.056Z" fill="#263238"/>
<path d="M263.832 408.422C260.682 410.242 258.12 414.666 258.12 418.32C258.12 421.96 260.682 423.444 263.832 421.61C266.982 419.79 269.544 415.366 269.544 411.712C269.544 408.072 266.982 406.602 263.832 408.422Z" fill="url(#paint8_linear_596_338)"/>
<path opacity="0.7" d="M94.348 244.132C93.256 246.05 92.584 248.206 92.556 250.152V499.59L81.146 492.982V243.558C81.146 241.612 81.846 239.456 82.938 237.538L94.348 244.132Z" fill="black"/>
<path opacity="0.3" d="M435.065 51.3659C434.631 48.2299 432.097 47.0959 429.031 48.8459L98.645 239.61C96.979 240.576 95.467 242.214 94.347 244.132L82.937 237.538C84.043 235.648 85.555 233.982 87.235 233.016L417.621 42.2799C420.995 40.3339 426.259 40.2359 429.423 42.0699C432.293 43.7079 434.673 47.7259 435.065 51.3659Z" fill="black"/>
<path d="M452.886 84.266C452.088 83.79 451.01 83.804 449.778 84.518L138.026 264.53C135.674 265.888 133.756 269.192 133.756 271.908V485.716C133.756 487.368 134.47 488.838 135.548 489.426C136.248 489.804 139.902 491.932 140.994 492.52C141.694 492.898 142.548 492.912 143.472 492.38L455.224 312.284C457.576 310.926 459.494 307.622 459.494 304.906V90.062C459.494 88.662 458.99 87.682 458.178 87.262C457.408 86.856 453.67 84.728 452.886 84.266Z" fill="url(#paint9_linear_596_338)"/>
<path d="M142.07 492.086C140.88 492.086 139.914 490.616 139.914 488.81V275.002C139.914 272.552 141.706 269.444 143.834 268.226L455.586 88.2001C456.146 87.8781 456.678 87.7101 457.14 87.7101C458.176 87.7101 458.806 88.5921 458.806 90.0481V304.892C458.806 307.342 457.014 310.45 454.886 311.668L143.12 491.764C142.756 491.974 142.406 492.086 142.07 492.086Z" fill="#FAFAFA"/>
<path d="M457.142 88.41C457.982 88.41 458.108 89.446 458.108 90.048V304.892C458.108 307.118 456.47 309.946 454.538 311.066L142.772 491.162C142.506 491.316 142.268 491.386 142.058 491.386C141.274 491.386 140.602 490.182 140.602 488.81V275.002C140.602 272.776 142.24 269.948 144.172 268.828L455.938 88.816C456.498 88.48 456.904 88.41 457.142 88.41ZM457.142 87.01C456.568 87.01 455.924 87.192 455.238 87.598L143.472 267.624C141.12 268.982 139.202 272.286 139.202 275.016V488.824C139.202 490.98 140.392 492.8 142.058 492.8C142.506 492.8 142.968 492.674 143.472 492.394L455.224 312.298C457.576 310.94 459.494 307.636 459.494 304.92V90.062C459.494 88.13 458.542 87.01 457.142 87.01Z" fill="#E0E0E0"/>
<path d="M135.548 489.426C136.01 489.678 139.328 491.568 140.784 492.394C139.804 491.694 139.286 490.49 139.216 488.81V288.96L133.756 285.768V485.73C133.756 487.368 134.47 488.852 135.548 489.426Z" fill="#F0F0F0"/>
<path d="M459.494 90.02C459.48 87.332 457.576 86.24 455.238 87.584L143.472 267.624C141.12 268.982 139.202 272.286 139.202 275.016V288.96L459.494 104.02V90.02Z" fill="url(#paint10_linear_596_338)"/>
<g opacity="0.4">
<path d="M455.238 87.598L143.472 267.61C142.31 268.296 141.232 269.444 140.462 270.774L135.044 267.638C135.814 266.322 136.864 265.174 138.012 264.53L449.778 84.504C450.996 83.79 452.088 83.776 452.872 84.252C453.642 84.728 457.184 86.73 458.08 87.22C457.338 86.856 456.33 86.968 455.238 87.598Z" fill="white"/>
</g>
<path opacity="0.15" d="M133.756 285.782V271.922C133.756 270.536 134.26 269.01 135.058 267.652L140.49 270.774C139.692 272.118 139.216 273.63 139.216 275.016V288.96L133.756 285.782Z" fill="black"/>
<path d="M393.751 251.188L207.033 358.988C205.311 359.982 203.911 362.404 203.911 364.392V417.928C203.911 419.916 205.311 422.324 207.033 423.318L212.493 426.454C214.215 427.448 217.001 427.448 218.723 426.454L405.427 318.668C407.149 317.674 408.549 315.252 408.549 313.264L408.577 259.714C408.577 257.726 407.177 255.318 405.455 254.324L399.995 251.188C398.259 250.194 395.473 250.194 393.751 251.188Z" fill="url(#paint11_linear_596_338)"/>
<path opacity="0.5" d="M408.534 259.21C408.324 257.6 407.008 257.012 405.44 257.908L218.721 365.708C217.853 366.198 217.084 367.066 216.524 368.046L204.833 361.298C205.393 360.332 206.177 359.478 207.017 359.002L393.75 251.202C395.458 250.208 398.258 250.194 399.98 251.188L405.44 254.324C407.022 255.234 408.338 257.348 408.534 259.21Z" fill="white"/>
<path d="M218.191 426.706C216.469 427.434 214.047 427.35 212.493 426.468L207.033 423.332C205.311 422.338 203.911 419.916 203.911 417.928V364.406C203.911 363.398 204.275 362.292 204.835 361.312L216.525 368.06C215.951 369.04 215.601 370.132 215.601 371.126V424.662C215.601 426.44 216.721 427.266 218.191 426.706Z" fill="#263238"/>
<path d="M218.724 365.722L405.442 257.922C407.164 256.928 408.564 257.74 408.55 259.728L408.522 313.278C408.522 315.266 407.122 317.688 405.4 318.682L218.696 426.468C216.974 427.462 215.574 426.65 215.574 424.662V371.126C215.602 369.138 217.002 366.716 218.724 365.722Z" fill="url(#paint12_linear_596_338)"/>
<path d="M344.245 279.776L207.017 359.002C206.163 359.492 205.393 360.346 204.833 361.298L216.524 368.046C217.084 367.066 217.867 366.198 218.721 365.708L355.921 286.496L344.245 279.776Z" fill="#455A64"/>
<path d="M355.924 286.51L218.724 365.722C217.002 366.716 215.602 369.138 215.602 371.126V424.662C215.602 426.65 217.002 427.448 218.724 426.468L355.924 347.256V286.51Z" fill="#37474F"/>
<path d="M250.361 359.212L321.159 318.332C324.099 316.638 326.479 317.842 326.479 321.02C326.479 324.198 324.099 328.146 321.159 329.84L250.375 370.706C247.435 372.4 245.055 371.196 245.055 368.018C245.041 364.854 247.421 360.906 250.361 359.212Z" fill="url(#paint13_linear_596_338)"/>
<path d="M264.868 372.736C264.952 372.694 265.022 372.708 265.078 372.778C265.134 372.848 265.162 372.946 265.162 373.1V381.066C265.162 381.864 265.092 382.634 264.966 383.362C264.84 384.09 264.644 384.762 264.378 385.378C264.112 385.994 263.79 386.54 263.398 387.03C263.006 387.506 262.544 387.898 262.026 388.192C261.494 388.5 261.046 388.64 260.654 388.612C260.262 388.584 259.94 388.416 259.674 388.094C259.408 387.786 259.212 387.338 259.086 386.764C258.96 386.19 258.89 385.504 258.89 384.692V376.726C258.89 376.586 258.918 376.446 258.974 376.306C259.03 376.166 259.1 376.082 259.184 376.026L260.066 375.508C260.15 375.466 260.22 375.466 260.276 375.55C260.332 375.62 260.36 375.732 260.36 375.872V383.754C260.36 384.286 260.402 384.72 260.486 385.042C260.57 385.378 260.682 385.616 260.822 385.77C260.962 385.924 261.144 385.994 261.354 385.994C261.564 385.98 261.788 385.91 262.026 385.77C262.264 385.63 262.488 385.448 262.698 385.21C262.908 384.986 263.09 384.706 263.23 384.384C263.37 384.062 263.496 383.684 263.58 383.264C263.664 382.844 263.706 382.368 263.706 381.836V373.968C263.706 373.828 263.734 373.688 263.79 373.548C263.846 373.408 263.916 373.324 264 373.268L264.868 372.736Z" fill="#FAFAFA"/>
<path d="M270.356 380.268C270.356 380.128 270.328 380.03 270.272 379.96C270.216 379.904 270.132 379.862 270.006 379.862C269.88 379.862 269.712 379.876 269.502 379.918C269.292 379.96 269.026 380.016 268.69 380.072C268.368 380.128 268.102 380.114 267.892 380.044C267.682 379.974 267.514 379.848 267.388 379.652C267.262 379.47 267.178 379.218 267.122 378.924C267.066 378.63 267.052 378.28 267.052 377.888C267.052 377.496 267.108 377.09 267.206 376.656C267.304 376.222 267.458 375.802 267.654 375.396C267.85 374.99 268.088 374.626 268.354 374.276C268.634 373.94 268.942 373.66 269.306 373.45C269.656 373.24 269.978 373.128 270.258 373.114C270.538 373.086 270.776 373.142 270.972 373.268C271.168 373.394 271.322 373.562 271.434 373.814C271.546 374.052 271.602 374.332 271.616 374.626C271.63 374.766 271.602 374.906 271.532 375.046C271.462 375.186 271.392 375.284 271.322 375.326L270.482 375.816C270.37 375.886 270.286 375.886 270.23 375.858C270.174 375.816 270.118 375.774 270.048 375.718C269.978 375.662 269.894 375.634 269.782 375.634C269.67 375.62 269.516 375.69 269.292 375.816C269.068 375.942 268.886 376.11 268.718 376.32C268.55 376.53 268.466 376.796 268.466 377.09C268.466 377.23 268.494 377.342 268.522 377.412C268.564 377.482 268.634 377.524 268.746 377.538C268.858 377.552 269.012 377.538 269.222 377.51C269.418 377.482 269.684 377.426 270.006 377.356C270.65 377.23 271.112 377.342 271.378 377.72C271.644 378.098 271.784 378.672 271.784 379.442C271.784 379.834 271.728 380.24 271.616 380.674C271.504 381.108 271.35 381.528 271.14 381.934C270.93 382.34 270.678 382.732 270.37 383.082C270.062 383.432 269.726 383.712 269.348 383.936C268.956 384.16 268.62 384.272 268.326 384.286C268.032 384.3 267.78 384.23 267.584 384.09C267.374 383.95 267.22 383.754 267.108 383.488C266.996 383.222 266.94 382.942 266.926 382.634C266.912 382.494 266.94 382.354 267.01 382.214C267.066 382.074 267.136 381.976 267.22 381.934L268.06 381.444C268.172 381.388 268.256 381.374 268.312 381.444C268.368 381.5 268.424 381.57 268.494 381.654C268.564 381.738 268.662 381.78 268.788 381.794C268.914 381.808 269.096 381.752 269.348 381.612C269.46 381.542 269.572 381.472 269.684 381.374C269.796 381.276 269.908 381.178 270.006 381.066C270.104 380.954 270.188 380.828 270.258 380.688C270.328 380.562 270.356 380.422 270.356 380.268Z" fill="#FAFAFA"/>
<path d="M273.212 376.474C273.212 375.746 273.268 375.032 273.394 374.318C273.52 373.604 273.702 372.946 273.926 372.33C274.164 371.728 274.444 371.182 274.78 370.72C275.116 370.258 275.48 369.908 275.886 369.67C276.292 369.432 276.67 369.348 276.992 369.432C277.328 369.502 277.608 369.698 277.846 370.02C278.084 370.328 278.266 370.748 278.392 371.28C278.518 371.812 278.588 372.4 278.588 373.072V373.94C278.588 374.08 278.56 374.22 278.504 374.36C278.448 374.5 278.378 374.584 278.294 374.64L274.64 376.754C274.64 377.048 274.682 377.3 274.752 377.482C274.822 377.664 274.92 377.804 275.032 377.902C275.144 377.986 275.284 378.028 275.438 378.014C275.592 378 275.746 377.944 275.914 377.86C276.152 377.72 276.334 377.58 276.488 377.412C276.628 377.244 276.754 377.076 276.852 376.88C276.936 376.726 276.992 376.628 277.048 376.558C277.104 376.488 277.174 376.432 277.258 376.376L278.14 375.872C278.224 375.83 278.294 375.83 278.35 375.9C278.406 375.97 278.434 376.082 278.434 376.222C278.42 376.404 278.364 376.67 278.266 377.02C278.154 377.37 278 377.734 277.79 378.126C277.58 378.518 277.314 378.91 277.006 379.274C276.698 379.652 276.334 379.946 275.928 380.184C275.522 380.422 275.144 380.506 274.822 380.45C274.486 380.394 274.206 380.198 273.968 379.862C273.73 379.526 273.562 379.078 273.436 378.504C273.268 377.916 273.212 377.244 273.212 376.474ZM275.9 372.008C275.69 372.134 275.508 372.288 275.354 372.484C275.2 372.68 275.074 372.89 274.976 373.128C274.878 373.366 274.794 373.604 274.738 373.842C274.682 374.094 274.654 374.318 274.626 374.514L277.104 373.086C277.09 372.904 277.062 372.708 277.02 372.526C276.978 372.33 276.908 372.176 276.824 372.05C276.726 371.924 276.614 371.854 276.46 371.826C276.32 371.812 276.124 371.868 275.9 372.008Z" fill="#FAFAFA"/>
<path d="M282.984 368.102C282.55 368.354 282.228 368.704 282.032 369.166C281.836 369.628 281.738 370.244 281.738 371.014V376.068C281.738 376.208 281.71 376.348 281.654 376.488C281.598 376.628 281.528 376.712 281.444 376.768L280.618 377.244C280.534 377.286 280.464 377.272 280.408 377.202C280.352 377.132 280.324 377.02 280.324 376.88V367.822C280.324 367.682 280.352 367.542 280.408 367.402C280.464 367.262 280.534 367.178 280.618 367.122L281.444 366.646C281.528 366.604 281.598 366.604 281.654 366.688C281.71 366.758 281.738 366.87 281.738 367.01V367.458C281.934 367.038 282.13 366.674 282.34 366.394C282.55 366.1 282.83 365.848 283.194 365.652L283.684 365.372C283.768 365.33 283.838 365.344 283.894 365.414C283.95 365.484 283.978 365.596 283.978 365.736V367.024C283.978 367.164 283.95 367.304 283.894 367.444C283.838 367.584 283.768 367.668 283.684 367.724L282.984 368.102Z" fill="#FAFAFA"/>
<path d="M293.429 367.43C293.513 367.388 293.583 367.402 293.639 367.472C293.695 367.542 293.723 367.654 293.723 367.794V369.18C293.723 369.32 293.695 369.46 293.639 369.6C293.583 369.74 293.513 369.824 293.429 369.88L288.641 372.652C288.557 372.694 288.487 372.68 288.431 372.61C288.375 372.54 288.347 372.428 288.347 372.288V359.73C288.347 359.59 288.375 359.45 288.431 359.31C288.487 359.17 288.557 359.086 288.641 359.03L289.523 358.512C289.607 358.47 289.677 358.484 289.733 358.554C289.789 358.624 289.817 358.722 289.817 358.876V369.53L293.429 367.43Z" fill="#FAFAFA"/>
<path d="M297.726 357.07C298.132 356.832 298.496 356.734 298.818 356.776C299.14 356.804 299.42 356.944 299.658 357.21C299.896 357.462 300.092 357.798 300.232 358.246C300.372 358.68 300.456 359.198 300.484 359.772C300.498 359.884 300.498 360.024 300.498 360.22C300.498 360.402 300.498 360.584 300.498 360.766C300.498 360.948 300.498 361.13 300.498 361.298C300.498 361.466 300.498 361.62 300.484 361.746C300.456 362.362 300.372 362.964 300.232 363.566C300.092 364.168 299.91 364.728 299.672 365.246C299.434 365.764 299.154 366.226 298.832 366.632C298.51 367.038 298.146 367.36 297.74 367.584C297.334 367.808 296.97 367.92 296.648 367.878C296.326 367.85 296.046 367.71 295.808 367.458C295.57 367.22 295.388 366.87 295.248 366.436C295.108 366.002 295.024 365.484 294.996 364.91C294.996 364.798 294.982 364.658 294.982 364.476C294.982 364.308 294.982 364.126 294.982 363.944C294.982 363.762 294.982 363.58 294.982 363.398C294.982 363.216 294.996 363.062 294.996 362.936C295.024 362.32 295.108 361.718 295.248 361.116C295.388 360.514 295.584 359.954 295.822 359.422C296.06 358.89 296.34 358.428 296.662 358.022C296.956 357.616 297.32 357.308 297.726 357.07ZM299.042 360.682C299.014 360.29 298.972 359.996 298.888 359.772C298.804 359.562 298.706 359.408 298.58 359.324C298.454 359.24 298.328 359.212 298.174 359.24C298.034 359.268 297.88 359.324 297.726 359.408C297.572 359.492 297.432 359.618 297.278 359.758C297.138 359.898 296.998 360.08 296.872 360.318C296.746 360.542 296.648 360.822 296.564 361.13C296.48 361.438 296.424 361.802 296.41 362.222C296.396 362.334 296.396 362.46 296.396 362.628C296.396 362.782 296.382 362.95 296.382 363.118C296.382 363.286 296.382 363.454 296.396 363.608C296.396 363.762 296.41 363.888 296.41 363.986C296.438 364.378 296.48 364.672 296.564 364.896C296.648 365.12 296.746 365.26 296.872 365.344C296.998 365.428 297.124 365.456 297.278 365.428C297.418 365.4 297.572 365.344 297.726 365.26C297.88 365.176 298.034 365.064 298.174 364.91C298.314 364.77 298.454 364.588 298.58 364.35C298.706 364.126 298.804 363.846 298.888 363.538C298.972 363.23 299.028 362.866 299.042 362.446C299.042 362.348 299.056 362.222 299.056 362.054C299.056 361.886 299.056 361.732 299.056 361.55C299.056 361.382 299.056 361.228 299.056 361.06C299.056 360.906 299.056 360.78 299.042 360.682Z" fill="#FAFAFA"/>
<path d="M304.754 365.26C304.908 365.176 305.062 365.036 305.23 364.868C305.384 364.686 305.538 364.476 305.664 364.224C305.79 363.972 305.902 363.678 305.986 363.342C306.07 363.02 306.112 362.67 306.112 362.292V361.578C306.056 361.732 305.972 361.9 305.888 362.096C305.79 362.292 305.678 362.488 305.538 362.67C305.398 362.866 305.244 363.048 305.062 363.23C304.88 363.412 304.684 363.566 304.46 363.692C304.096 363.902 303.76 363.972 303.466 363.888C303.172 363.804 302.92 363.608 302.71 363.314C302.5 363.02 302.332 362.628 302.22 362.138C302.094 361.662 302.038 361.116 302.01 360.528C301.996 360.332 301.996 360.108 301.996 359.856C301.996 359.604 301.996 359.366 302.01 359.17C302.024 358.568 302.094 357.952 302.22 357.336C302.346 356.72 302.5 356.132 302.71 355.6C302.92 355.054 303.172 354.578 303.466 354.158C303.76 353.738 304.096 353.416 304.46 353.206C304.684 353.08 304.894 352.996 305.062 352.968C305.244 352.94 305.398 352.954 305.538 352.982C305.678 353.024 305.79 353.08 305.888 353.164C305.986 353.248 306.056 353.332 306.112 353.416V352.968C306.112 352.828 306.14 352.688 306.196 352.548C306.252 352.408 306.322 352.324 306.406 352.268L307.232 351.792C307.316 351.75 307.386 351.764 307.442 351.834C307.498 351.904 307.526 352.016 307.526 352.156V361.27C307.526 362.838 307.274 364.168 306.784 365.246C306.294 366.324 305.608 367.122 304.74 367.612C304.376 367.822 304.026 367.934 303.704 367.948C303.382 367.962 303.116 367.878 302.878 367.724C302.64 367.57 302.458 367.346 302.318 367.052C302.178 366.758 302.108 366.422 302.094 366.044C302.08 365.904 302.108 365.764 302.178 365.624C302.234 365.484 302.304 365.386 302.388 365.344L303.13 364.91C303.228 364.854 303.312 364.868 303.396 364.938C303.466 365.022 303.536 365.092 303.578 365.176C303.676 365.344 303.802 365.442 303.97 365.498C304.152 365.54 304.404 365.456 304.754 365.26ZM303.438 358.47C303.41 358.848 303.41 359.212 303.438 359.562C303.48 360.374 303.634 360.906 303.872 361.13C304.124 361.354 304.418 361.368 304.782 361.158C305.146 360.948 305.44 360.584 305.678 360.066C305.916 359.548 306.07 358.932 306.098 358.204C306.112 358.008 306.126 357.756 306.126 357.448C306.126 357.154 306.112 356.902 306.098 356.72C306.056 356.062 305.916 355.614 305.678 355.362C305.44 355.11 305.132 355.096 304.782 355.306C304.432 355.516 304.124 355.866 303.872 356.384C303.634 356.916 303.48 357.602 303.438 358.47Z" fill="#FAFAFA"/>
<path d="M310.774 346.038C310.858 345.996 310.928 345.996 310.984 346.066C311.04 346.136 311.068 346.248 311.068 346.388V347.9C311.068 348.04 311.04 348.18 310.984 348.32C310.928 348.46 310.858 348.544 310.774 348.6L309.836 349.146C309.752 349.188 309.682 349.174 309.626 349.104C309.57 349.034 309.542 348.922 309.542 348.782V347.27C309.542 347.13 309.57 346.99 309.626 346.85C309.682 346.71 309.752 346.626 309.836 346.57L310.774 346.038ZM311.012 359.184C311.012 359.324 310.984 359.464 310.928 359.604C310.872 359.744 310.802 359.828 310.718 359.884L309.892 360.36C309.808 360.402 309.738 360.388 309.682 360.318C309.626 360.248 309.598 360.15 309.598 359.996V350.938C309.598 350.798 309.626 350.658 309.682 350.518C309.738 350.378 309.808 350.294 309.892 350.238L310.718 349.762C310.802 349.72 310.872 349.734 310.928 349.804C310.984 349.874 311.012 349.972 311.012 350.126V359.184Z" fill="#FAFAFA"/>
<path d="M318.403 354.914C318.403 355.054 318.375 355.194 318.319 355.334C318.263 355.474 318.193 355.558 318.109 355.614L317.283 356.09C317.199 356.132 317.129 356.118 317.073 356.048C317.017 355.978 316.989 355.866 316.989 355.726V350.784C316.989 350 316.891 349.44 316.681 349.09C316.471 348.74 316.163 348.684 315.743 348.936C315.351 349.16 315.057 349.566 314.833 350.168C314.609 350.756 314.497 351.456 314.497 352.226V357.168C314.497 357.308 314.469 357.448 314.413 357.588C314.357 357.728 314.287 357.812 314.203 357.868L313.377 358.344C313.293 358.386 313.223 358.372 313.167 358.302C313.111 358.232 313.083 358.12 313.083 357.98V348.922C313.083 348.782 313.111 348.642 313.167 348.502C313.223 348.362 313.293 348.278 313.377 348.222L314.203 347.746C314.287 347.704 314.357 347.704 314.413 347.788C314.469 347.858 314.497 347.97 314.497 348.11V348.558C314.693 348.11 314.903 347.704 315.169 347.34C315.421 346.976 315.729 346.682 316.079 346.486C316.527 346.234 316.891 346.136 317.199 346.206C317.493 346.276 317.745 346.472 317.913 346.78C318.095 347.088 318.221 347.494 318.305 347.998C318.375 348.502 318.417 349.062 318.417 349.678V354.914H318.403Z" fill="#FAFAFA"/>
<path d="M389.017 314.16L375.423 322.014L377.537 302.946C375.913 302.092 374.877 299.964 374.877 296.926C374.877 291.508 378.167 285.222 382.227 282.87C386.287 280.532 389.577 283.01 389.577 288.428C389.577 291.466 388.541 294.784 386.917 297.514L389.017 314.16Z" fill="#455A64"/>
<path d="M389.016 314.16L377.06 307.258L375.422 322.014L389.016 314.16Z" fill="#37474F"/>
<path d="M382.228 282.87C379.568 284.41 377.244 287.63 375.956 291.2L386.918 297.528C388.542 294.784 389.578 291.48 389.578 288.442C389.578 283.01 386.288 280.532 382.228 282.87Z" fill="#37474F"/>
<path d="M316.12 219.38C311.472 216.692 305.046 217.07 297.934 221.172C283.738 229.362 272.23 249.298 272.23 265.692C272.23 273.91 275.128 279.678 279.818 282.352C281.036 283.052 287.644 286.888 288.876 287.602C293.524 290.29 299.95 289.912 307.048 285.81C321.244 277.62 332.752 257.684 332.752 241.29C332.752 233.1 329.882 227.346 325.234 224.658" fill="url(#paint14_linear_596_338)"/>
<path d="M307.048 226.45C292.852 234.654 281.344 254.576 281.344 270.97C281.344 287.364 292.852 294 307.048 285.81C321.244 277.62 332.766 257.684 332.752 241.29C332.738 224.91 321.23 218.26 307.048 226.45Z" fill="url(#paint15_linear_596_338)"/>
<path d="M321.229 262.822V264.698C317.575 270.942 312.563 276.388 307.033 279.566C301.503 282.758 296.505 283.108 292.837 281.064V277.186C292.837 269.696 297.919 260.904 304.401 257.152L308.139 255.01C311.457 253.092 314.663 252.854 317.183 254.31C319.773 255.794 321.229 258.888 321.229 262.822Z" fill="url(#paint16_linear_596_338)"/>
<path opacity="0.4" d="M316.121 219.38L325.235 224.658C320.587 221.97 314.161 222.348 307.063 226.45C297.767 231.826 289.633 242.228 285.111 253.372L275.997 248.094C280.505 236.95 288.653 226.548 297.949 221.186C305.047 217.084 311.473 216.692 316.121 219.38Z" fill="white"/>
<path opacity="0.2" d="M288.54 287.406C286.93 286.482 280.952 282.996 279.818 282.352C275.142 279.678 272.23 273.91 272.23 265.692L281.344 270.97C281.344 278.964 284.088 284.648 288.54 287.406Z" fill="black"/>
<path opacity="0.1" d="M275.982 248.094L285.096 253.372C282.716 259.252 281.344 265.328 281.344 270.97L272.23 265.692C272.23 260.036 273.616 253.96 275.982 248.094Z" fill="black"/>
<path d="M303.813 254.128C302.917 254.128 302.091 253.918 301.335 253.484C299.599 252.49 298.647 250.502 298.647 247.912C298.647 243.166 301.867 237.58 305.983 235.2C308.223 233.898 310.407 233.744 312.157 234.738C313.893 235.732 314.845 237.72 314.845 240.31C314.845 245.056 311.625 250.642 307.509 253.022C306.235 253.764 304.975 254.128 303.813 254.128Z" fill="white"/>
<path d="M317.198 254.31C314.678 252.854 311.458 253.092 308.154 255.01L304.416 257.152C297.934 260.904 292.852 269.71 292.852 277.186V281.064C296.506 283.094 301.518 282.744 307.048 279.566C312.564 276.388 317.576 270.942 321.244 264.698V262.822C321.23 258.888 319.774 255.794 317.198 254.31Z" fill="white"/>
<path d="M605.009 496.51C605.009 496.51 606.871 480.158 615.005 467.474C623.139 454.79 634.311 446.866 644.741 446.04C655.171 445.214 663.585 454.804 652.427 461.398C641.269 467.992 621.445 474.712 612.331 499.352L605.009 496.51Z" fill="url(#paint17_linear_596_338)"/>
<path opacity="0.1" d="M605.009 496.51C605.009 496.51 606.871 480.158 615.005 467.474C623.139 454.79 634.311 446.866 644.741 446.04C655.171 445.214 663.585 454.804 652.427 461.398C641.269 467.992 621.445 474.712 612.331 499.352L605.009 496.51Z" fill="black"/>
<path d="M608.075 492.254C608.033 492.254 608.005 492.24 607.963 492.226C607.683 492.114 607.543 491.792 607.655 491.498C618.659 464.394 639.603 453.082 649.151 450.884C649.445 450.814 649.753 450.996 649.823 451.304C649.893 451.598 649.711 451.906 649.403 451.976C640.051 454.132 619.527 465.248 608.691 491.918C608.593 492.17 608.327 492.31 608.075 492.254Z" fill="white"/>
<path d="M663.767 492.576C662.829 494.704 660.505 495.81 658.335 496.678C656.179 497.546 653.827 498.484 652.665 500.5C650.313 504.56 654.177 510.286 651.643 514.234C650.579 515.9 648.605 516.768 646.673 517.118C645.063 517.426 643.425 517.412 641.787 517.552C641.003 517.538 640.219 517.482 639.463 517.37C637.223 517.048 634.787 516.936 632.743 518.084C629.509 519.904 628.515 523.978 626.555 527.128C624.203 530.894 620.045 533.358 615.677 533.96C614.221 534.156 611.519 534.408 610.049 533.582C609.937 533.512 609.839 533.456 609.741 533.386C609.727 533.386 609.727 533.372 609.713 533.358C609.517 533.134 609.251 532.84 609.139 532.672C609.111 532.644 609.097 532.616 609.083 532.574C608.509 530.46 609.447 528.276 609.489 526.092C609.489 525.952 609.489 525.826 609.489 525.7C609.405 523.166 609.321 520.646 609.265 518.126C609.153 513.478 609.097 508.83 609.125 504.182C609.153 501.158 608.789 497.854 610.077 495.012C611.491 491.89 615.005 491.82 616.335 488.74C616.867 487.522 617.147 486.206 617.665 484.974C619.205 481.348 622.929 478.73 626.877 478.548C633.023 478.24 638.525 483.21 644.671 482.762C646.253 482.636 647.807 482.16 649.375 481.866C654.345 480.928 660.099 482.356 662.899 486.556C664.061 488.334 664.621 490.644 663.767 492.576Z" fill="url(#paint18_linear_596_338)"/>
<path d="M608.58 522.928C608.566 522.928 608.552 522.928 608.538 522.914C608.258 522.844 608.09 522.55 608.174 522.27C616.658 490.434 650.216 485.828 658.056 486.388C658.336 486.416 658.56 486.654 658.546 486.948C658.532 487.242 658.28 487.452 657.986 487.438C650.314 486.878 617.498 491.386 609.182 522.536C609.112 522.816 608.846 522.97 608.58 522.928Z" fill="white"/>
<path d="M645.863 506.786C645.765 506.772 645.667 506.716 645.583 506.646C645.499 506.562 636.945 498.12 622.749 500.22C622.469 500.262 622.203 500.066 622.147 499.772C622.105 499.492 622.301 499.212 622.595 499.17C637.337 497 646.241 505.806 646.325 505.904C646.535 506.114 646.521 506.436 646.325 506.646C646.199 506.772 646.031 506.828 645.863 506.786Z" fill="white"/>
<path d="M527.968 112.014L532.42 113.722V103.908C532.42 96.124 538.622 94.262 545.37 98.154C552.104 102.046 557.564 111.51 557.564 119.28V120.708C559.09 120.092 561.064 120.33 563.22 121.576C568.064 124.376 571.998 131.18 571.998 136.78V137.424L578.214 141.008C581.406 142.856 583.996 147.336 583.996 151.018C583.996 154.7 581.406 156.198 578.214 154.35L527.954 125.328C524.762 123.48 522.172 119 522.172 115.318C522.186 111.664 524.762 110.166 527.968 112.014Z" fill="#E6E6E6"/>
<path d="M587.592 104.244L595.67 108.906C595.628 108.542 595.6 108.192 595.6 107.842V105.504C595.6 101.346 598.526 99.6519 602.124 101.738C603.58 102.578 604.924 103.922 606.016 105.476C606.604 100.24 610.72 98.2939 615.704 101.164C621.094 104.272 625.476 111.86 625.476 118.09V121.59C625.476 123.2 625.182 124.558 624.65 125.65L631.356 129.528C633.358 130.69 634.982 133.49 634.982 135.8C634.982 138.11 633.358 139.048 631.356 137.886L587.592 112.616C585.59 111.468 583.966 108.654 583.966 106.344C583.966 104.034 585.59 103.096 587.592 104.244Z" fill="#E6E6E6"/>
<path d="M556.317 316.722C550.437 326.662 544.781 335.3 540.805 339.444C533.259 342.958 515.535 348.348 508.605 349.244C507.373 349.398 506.141 349.09 505.119 348.418C502.389 346.626 500.289 346.346 497.405 345.352C495.151 344.568 494.199 343.504 493.779 343.91C493.233 344.442 492.645 345.926 494.017 347.48C494.703 348.264 495.963 349.104 497.573 350.14C497.573 350.14 492.617 351.456 488.193 350.294C482.187 348.712 479.359 351.61 483.419 358.12C484.875 360.458 490.601 364.196 502.193 363.188C505.539 362.894 510.355 362.614 514.513 361.732C525.643 359.352 538.005 357.056 545.607 354.788C547.525 354.214 550.955 352.002 552.985 349.664C565.767 335.09 570.009 324.702 575.609 315.266L575.119 299.838C566.075 299.572 561.231 308.406 556.317 316.722Z" fill="#FFA8A7"/>
<path d="M576.7 299.572C576.7 299.572 568.79 297.892 562.84 305.494C556.61 313.46 545.606 332.584 545.606 332.584C545.606 332.584 549.218 342.174 558.934 343.756L574.544 322.672C574.544 322.672 581.936 308.084 576.7 299.572Z" fill="#455A64"/>
<path d="M610.454 514.556H600.276V532.7H610.454V514.556Z" fill="#FFA8A7"/>
<path d="M575.175 513.576L565.011 513.94L564.493 494.746L575.175 494.382V513.576Z" fill="#FFA8A7"/>
<path d="M611.883 357.49C611.883 367.612 610.399 449.05 610.399 449.05C610.637 451.962 613.255 457.324 612.695 468.51C611.925 483.7 610.903 523.628 610.903 523.628C610.903 523.628 605.961 526.638 599.577 523.866C599.577 523.866 591.331 467.922 589.511 452.872C587.915 439.726 583.841 396.144 583.841 396.144L578.325 447.58C578.325 447.58 580.201 455.42 579.585 464.422C579.109 471.38 575.833 507.654 575.833 507.654C575.833 507.654 571.045 511.042 564.087 508.592C564.087 508.592 558.305 453.978 558.179 447.58C558.039 440.3 561.567 357.392 561.567 357.392L611.883 357.49Z" fill="#37474F"/>
<path d="M600.277 527.464V525.952C599.297 526.4 597.043 535.388 593.011 539.21C589.805 542.262 585.423 545.776 584.317 549.178C583.155 552.72 590.407 554.666 593.417 554.106C596.903 553.462 602.937 550.914 604.449 548.534C605.961 546.168 606.675 542.668 607.907 540.932C609.139 539.196 611.981 537.264 612.639 535.248C613.003 534.142 612.569 531.734 612.051 529.69C611.575 527.814 611.071 525.756 610.455 525.938C610.455 526.162 610.455 527.1 610.455 527.1C609.713 527.954 607.669 528.794 605.373 528.892C603.875 528.948 600.263 528.64 600.277 527.464Z" fill="#263238"/>
<path d="M564.898 510.678C564.366 510.692 563.946 511.476 562.77 512.792C561.356 514.374 559.06 516.096 556.778 517.272C552.97 519.26 545.564 522.312 542.204 523.88C540.104 524.86 540.202 527.492 542.372 528.99C544.542 530.488 549.764 531.566 556.036 530.11C559.452 529.312 563.904 526.022 566.718 526.204C569.532 526.386 574.81 526.344 576.882 524.846C578.968 523.348 578.128 520.17 577.54 517.426C576.896 514.43 576.098 509.768 575.146 509.978V511.014C573.928 512.946 567.614 513.73 564.926 512.302L564.898 510.678Z" fill="#263238"/>
<path d="M583.813 396.13C583.813 396.13 575.679 393.75 569.645 387.674C569.645 387.674 572.375 393.008 580.509 397.964L578.773 443.898L583.813 396.13Z" fill="#263238"/>
<path d="M606.185 301.084C606.185 301.084 614.557 303.016 613.983 318.192L612.219 342.356L612.261 378.616C604.785 387.1 571.605 386.47 560.251 377.944C560.251 377.944 561.539 335.034 562.309 318.528C562.855 306.796 565.557 300.874 577.093 299.586L591.275 300.216L606.185 301.084Z" fill="url(#paint19_linear_596_338)"/>
<path d="M595.504 269.556C595.504 278.264 588.728 285.334 580.356 285.334C571.984 285.334 567.042 278.082 565.208 269.556C561.862 253.974 571.984 253.778 580.356 253.778C588.714 253.778 595.504 260.834 595.504 269.556Z" fill="#263238"/>
<path d="M603.232 275.926C603.232 275.926 600.908 287.294 599.984 289.156C599.046 291.018 597.128 291.55 597.128 291.55L597.296 283.556L603.232 275.926Z" fill="#263238"/>
<path d="M600.305 259.644C600.305 259.644 601.971 259.224 603.735 261.996C605.247 264.362 605.597 269.696 603.217 275.94L598.835 276.458L600.305 259.644Z" fill="#263238"/>
<path d="M601.917 261.954L607.279 262.052C607.405 260.512 606.313 259.238 604.829 259.21C603.359 259.182 602.057 260.414 601.917 261.954Z" fill="#263238"/>
<path d="M602.574 260.68L606.55 256.858C605.57 255.724 603.89 255.654 602.784 256.704C601.692 257.754 601.594 259.532 602.574 260.68Z" fill="#263238"/>
<path d="M597.535 276.458C598.417 277.004 599.663 275.254 600.741 274.064C601.819 272.888 605.221 271.768 606.985 275.632C608.777 279.58 605.739 283.318 603.219 284.578C598.697 286.818 597.269 283.556 597.269 283.556L596.905 301.56C590.535 311.402 576.129 311.052 581.309 301.084L581.323 295.61C581.323 295.61 576.983 296.296 574.855 295.96C571.327 295.386 569.115 292.502 568.037 288.526C566.315 282.142 565.671 276.99 567.127 264.432C568.723 250.67 584.095 250.53 592.383 255.976C600.699 261.408 597.535 276.458 597.535 276.458Z" fill="#FFA8A7"/>
<path d="M578.383 262.29C582.051 261.926 585.677 261.17 589.359 260.904C590.157 260.848 590.969 260.806 591.739 261.016C594.553 261.772 594.189 265.048 594.637 267.344C595.407 271.292 596.051 277.97 597.535 277.998C597.983 278.012 599.649 275.1 600.741 274.078C601.455 273.406 601.567 271.964 601.721 271.068C602.001 269.43 602.155 267.778 602.281 266.126C602.393 264.726 602.533 263.312 602.519 261.898C602.519 260.33 602.547 258.72 602.155 257.18C601.805 255.78 601.147 254.744 600.195 253.652C600.097 253.554 600.013 253.442 599.915 253.344C598.109 251.398 595.799 249.928 593.349 248.92C589.835 247.464 586.013 246.89 582.233 246.498C578.453 246.106 574.631 245.896 570.907 245.14C570.683 245.098 570.459 245.056 570.249 245.126C569.927 245.252 569.787 245.63 569.717 245.966C569.381 247.688 570.165 249.578 571.621 250.572C569.087 250.768 566.175 249.452 563.725 248.794C563.319 248.682 562.843 248.584 562.479 248.794C562.227 248.948 562.073 249.228 561.989 249.508C561.779 250.152 561.821 250.866 561.919 251.538C562.185 253.54 562.871 255.514 564.103 257.11C565.881 259.406 568.793 261.478 571.663 262.052C573.945 262.514 576.059 262.514 578.383 262.29Z" fill="#263238"/>
<path d="M581.336 295.624C581.336 295.624 589.204 293.972 591.962 292.446C593.81 291.424 595.322 289.66 595.77 288.526C595.77 288.526 595.252 290.962 593.614 293.146C591.598 295.82 581.35 297.794 581.35 297.794L581.336 295.624Z" fill="#F28F8F"/>
<path d="M583.228 274.414C583.228 275.352 583.928 276.122 584.81 276.122C585.678 276.122 586.392 275.352 586.392 274.414C586.392 273.476 585.692 272.706 584.81 272.706C583.928 272.706 583.228 273.462 583.228 274.414Z" fill="#263238"/>
<path d="M585.748 267.61L589.122 269.542C589.626 268.534 589.262 267.274 588.338 266.742C587.414 266.21 586.252 266.602 585.748 267.61Z" fill="#263238"/>
<path d="M582.038 285.754L578.44 287.154C578.79 288.232 579.896 288.778 580.89 288.4C581.884 288.022 582.402 286.832 582.038 285.754Z" fill="#F28F8F"/>
<path d="M568.751 269.052L571.832 266.588C571.202 265.664 570.012 265.482 569.158 266.154C568.304 266.84 568.135 268.142 568.751 269.052Z" fill="#263238"/>
<path d="M570.11 273.938C570.11 274.876 570.81 275.646 571.692 275.646C572.56 275.646 573.274 274.876 573.274 273.938C573.274 273 572.574 272.23 571.692 272.23C570.81 272.23 570.11 273 570.11 273.938Z" fill="#263238"/>
<path d="M578.553 272.622L578.371 282.576L572.715 281.288L578.553 272.622Z" fill="#F28F8F"/>
<path d="M444.233 355.992L453.011 350.924L456.483 346.71L447.719 351.778L444.233 355.992Z" fill="url(#paint20_linear_596_338)"/>
<path opacity="0.4" d="M444.233 355.992L453.011 350.924L456.483 346.71L447.719 351.778L444.233 355.992Z" fill="black"/>
<path d="M468.104 369.768L476.883 364.7L484.204 358.218L475.441 363.272L468.104 369.768Z" fill="url(#paint21_linear_596_338)"/>
<path opacity="0.4" d="M468.104 369.768L476.883 364.7L484.204 358.218L475.441 363.272L468.104 369.768Z" fill="black"/>
<path d="M542.668 387.254C544.586 389.704 545.986 393.288 546.294 396.802C544.376 394.352 542.976 390.768 542.668 387.254ZM563.066 387.52C560.112 367.43 549.318 347.55 536.452 340.13C530.278 336.56 524.566 336.434 519.988 339.108C518.644 339.892 513.688 342.748 511.728 343.868C511.574 343.952 511.406 344.036 511.266 344.148C510.902 344.344 510.552 344.582 510.202 344.82C509.544 345.282 508.9 345.8 508.298 346.388C508.214 346.458 508.13 346.556 508.018 346.64C507.752 346.906 507.5 347.186 507.262 347.48C506.954 347.83 506.66 348.18 506.38 348.558C505.806 349.314 505.26 350.14 504.77 351.036C504.532 351.47 504.28 351.932 504.056 352.408L431.928 310.772L423.164 315.826V321.412L423.906 321.846L424.592 322.252V323.428L423.15 324.268V327.516L433.748 349.944L444.22 356.006L447.706 351.792L456.946 357.322L462.252 366.422L468.09 369.796L475.412 363.3L484.414 368.494L487.438 380.954L502.502 389.648C503.258 392.84 504.224 395.962 505.358 399.014C505.456 399.336 505.568 399.644 505.708 399.994C510.72 413.168 518.686 424.438 527.674 429.632C528.822 430.29 529.942 430.836 531.062 431.256C531.692 431.522 532.322 431.718 532.952 431.886C533.512 432.04 534.072 432.18 534.632 432.264C536.494 432.6 538.286 432.586 539.966 432.25C540.204 432.194 540.456 432.138 540.694 432.082C541.044 432.012 541.38 431.914 541.716 431.774C541.968 431.676 542.234 431.578 542.5 431.466C542.78 431.368 543.046 431.242 543.312 431.088C543.564 430.976 543.816 430.85 544.054 430.696C544.18 430.626 544.306 430.556 544.432 430.486C544.488 430.472 544.544 430.43 544.6 430.388C546.602 429.24 551.544 426.384 552.874 425.628C559.538 421.764 563.85 411.992 563.85 398.188C563.864 394.646 563.598 391.076 563.066 387.52Z" fill="url(#paint22_linear_596_338)"/>
<path d="M540.106 404.208C536.648 402.206 533.834 396.27 533.834 390.95C533.834 385.63 536.634 382.928 540.106 384.916C543.564 386.918 546.364 392.854 546.364 398.174C546.364 403.508 543.564 406.21 540.106 404.208ZM554.288 392.574C551.334 372.498 540.54 352.618 527.674 345.198C521.71 341.754 516.208 341.502 511.714 343.868C511.56 343.952 511.392 344.036 511.252 344.148C510.888 344.344 510.538 344.582 510.188 344.82C509.53 345.282 508.886 345.8 508.284 346.388C508.2 346.458 508.116 346.556 508.004 346.64C507.738 346.906 507.486 347.186 507.248 347.48C506.94 347.83 506.646 348.18 506.366 348.558C505.792 349.314 505.246 350.14 504.756 351.036C504.518 351.47 504.266 351.932 504.042 352.408C502.852 354.858 501.9 357.7 501.27 360.934L423.164 315.826V321.412L423.906 321.846L424.592 322.252V323.428L423.15 324.268V327.516L433.748 349.944L444.22 356.006L447.706 351.792L456.946 357.322L462.252 366.422L468.09 369.796L475.412 363.3L484.414 368.494L487.438 380.954L502.502 389.648C503.258 392.84 504.224 395.962 505.358 399.014C505.456 399.336 505.568 399.644 505.708 399.994C510.72 413.168 518.686 424.438 527.674 429.632C528.822 430.29 529.942 430.836 531.062 431.256C531.692 431.522 532.322 431.718 532.952 431.886C533.512 432.04 534.072 432.18 534.632 432.264C536.494 432.6 538.286 432.586 539.966 432.25C540.204 432.194 540.456 432.138 540.694 432.082C541.044 432.012 541.38 431.914 541.716 431.774C541.968 431.676 542.234 431.578 542.5 431.466C542.78 431.368 543.046 431.242 543.312 431.088C543.564 430.976 543.816 430.85 544.054 430.696C544.18 430.626 544.306 430.556 544.432 430.486C544.488 430.472 544.544 430.43 544.6 430.388C550.984 426.356 555.086 416.724 555.086 403.242C555.1 399.714 554.806 396.144 554.288 392.574Z" fill="url(#paint23_linear_596_338)"/>
<path opacity="0.4" d="M546.365 398.174C546.365 403.494 543.565 406.21 540.107 404.208C536.635 402.206 533.835 396.284 533.835 390.95C533.835 385.616 536.635 382.914 540.107 384.916C541.031 385.448 541.913 386.26 542.669 387.268C542.977 390.768 544.377 394.366 546.295 396.816C546.351 397.264 546.365 397.726 546.365 398.174Z" fill="black"/>
<path opacity="0.4" d="M563.863 398.16C563.863 411.978 559.551 421.75 552.887 425.6C551.543 426.356 546.615 429.212 544.613 430.36C550.997 426.328 555.099 416.696 555.099 403.214C555.099 399.7 554.805 396.13 554.287 392.56C551.333 372.484 540.539 352.604 527.673 345.184C521.709 341.74 516.207 341.488 511.713 343.854C513.673 342.734 518.629 339.864 519.973 339.094C524.551 336.42 530.263 336.546 536.437 340.116C549.303 347.536 560.097 367.416 563.051 387.506C563.597 391.076 563.863 394.646 563.863 398.16Z" fill="white"/>
<path d="M555.1 403.228C555.1 416.71 550.998 426.342 544.614 430.374C546.616 429.226 551.558 426.37 552.888 425.614C559.552 421.75 563.864 411.978 563.864 398.174C563.864 397.67 563.85 397.152 563.836 396.634C560.826 398.37 557.774 400.134 555.072 401.688C555.086 402.206 555.1 402.71 555.1 403.228Z" fill="url(#paint24_linear_596_338)"/>
<path opacity="0.1" d="M555.1 403.228C555.1 416.71 550.998 426.342 544.614 430.374C546.616 429.226 551.558 426.37 552.888 425.614C559.552 421.75 563.864 411.978 563.864 398.174C563.864 397.67 563.85 397.152 563.836 396.634C560.826 398.37 557.774 400.134 555.072 401.688C555.086 402.206 555.1 402.71 555.1 403.228Z" fill="black"/>
<path opacity="0.15" d="M501.594 366.688V369.53L423.166 324.254L424.608 323.428V322.238L501.594 366.688Z" fill="black"/>
<path opacity="0.15" d="M501.594 367.864V369.53L423.166 324.254L424.608 323.428V323.4L501.594 367.864Z" fill="black"/>
<path opacity="0.15" d="M539.056 424.465C549.989 421.11 553.761 401.803 547.481 381.343C541.202 360.883 527.249 347.016 516.316 350.371C505.384 353.726 501.612 373.033 507.891 393.493C514.171 413.954 528.124 427.82 539.056 424.465Z" stroke="black" stroke-miterlimit="10"/>
<path opacity="0.4" d="M504.056 352.408C502.866 354.858 501.914 357.7 501.284 360.934L423.178 315.826L431.942 310.772L504.056 352.408Z" fill="white"/>
<path d="M605.516 356.79C609.618 349.048 614.28 331.66 616.604 322.882C619.908 310.422 614.56 302.582 608.498 302.26C604.69 302.834 592.202 348.306 592.202 348.306C590.816 349.412 571.804 359.044 565.686 361.466C564.608 361.9 563.404 361.872 562.298 361.48C559.358 360.416 557.37 360.612 554.5 360.318C552.246 360.094 551.112 359.296 550.832 359.772C550.468 360.388 550.3 361.942 551.938 363.09C552.764 363.664 554.122 364.182 555.858 364.798C555.858 364.798 552.61 365.918 548.284 365.834C542.418 365.708 540.304 368.256 544.854 374.206C547.71 377.93 552.302 379.106 562.634 375.536C565.616 374.5 569.648 372.498 573.4 371.14C581.17 368.312 583.158 368.018 589.122 366.002C597.704 363.118 603.696 360.234 605.516 356.79Z" fill="#FFA8A7"/>
<path d="M606.187 301.084C609.757 301.574 613.229 302.386 615.301 305.27C617.373 308.154 619.109 312.228 617.037 323.414C614.965 334.6 610.681 346.472 610.681 346.472C610.681 346.472 602.365 350.028 593.531 341.012L599.607 317.52C599.607 317.52 600.643 302.26 606.187 301.084Z" fill="#455A64"/>
<defs>
<linearGradient id="paint0_linear_596_338" x1="218.136" y1="356.328" x2="374.132" y2="504.964" gradientUnits="userSpaceOnUse">
<stop stop-color="#3FAEBF"/>
<stop offset="1" stop-color="#1C5C94"/>
</linearGradient>
<linearGradient id="paint1_linear_596_338" x1="224.016" y1="366.086" x2="362.583" y2="508.62" gradientUnits="userSpaceOnUse">
<stop stop-color="#3FAEBF"/>
<stop offset="1" stop-color="#1C5C94"/>
</linearGradient>
<linearGradient id="paint2_linear_596_338" x1="285.266" y1="453.684" x2="334.465" y2="526.153" gradientUnits="userSpaceOnUse">
<stop stop-color="#3FAEBF"/>
<stop offset="1" stop-color="#1C5C94"/>
</linearGradient>
<linearGradient id="paint3_linear_596_338" x1="81.1309" y1="40.7531" x2="567.756" y2="396.68" gradientUnits="userSpaceOnUse">
<stop stop-color="#3FAEBF"/>
<stop offset="1" stop-color="#1C5C94"/>
</linearGradient>
<linearGradient id="paint4_linear_596_338" x1="92.5552" y1="48.0269" x2="568.743" y2="390.749" gradientUnits="userSpaceOnUse">
<stop stop-color="#3FAEBF"/>
<stop offset="1" stop-color="#1C5C94"/>
</linearGradient>
<linearGradient id="paint5_linear_596_338" x1="81.1309" y1="492.982" x2="110.075" y2="506.292" gradientUnits="userSpaceOnUse">
<stop stop-color="#3FAEBF"/>
<stop offset="1" stop-color="#1C5C94"/>
</linearGradient>
<linearGradient id="paint6_linear_596_338" x1="92.54" y1="301.77" x2="313.854" y2="634.942" gradientUnits="userSpaceOnUse">
<stop stop-color="#3FAEBF"/>
<stop offset="1" stop-color="#1C5C94"/>
</linearGradient>
<linearGradient id="paint7_linear_596_338" x1="103.965" y1="66.7436" x2="521.027" y2="394.523" gradientUnits="userSpaceOnUse">
<stop stop-color="#3FAEBF"/>
<stop offset="1" stop-color="#1C5C94"/>
</linearGradient>
<linearGradient id="paint8_linear_596_338" x1="258.12" y1="407.641" x2="273.244" y2="419.296" gradientUnits="userSpaceOnUse">
<stop stop-color="#3FAEBF"/>
<stop offset="1" stop-color="#1C5C94"/>
</linearGradient>
<linearGradient id="paint9_linear_596_338" x1="133.756" y1="83.9401" x2="555.738" y2="418.553" gradientUnits="userSpaceOnUse">
<stop stop-color="#3FAEBF"/>
<stop offset="1" stop-color="#1C5C94"/>
</linearGradient>
<linearGradient id="paint10_linear_596_338" x1="139.202" y1="87.0088" x2="332.754" y2="392.533" gradientUnits="userSpaceOnUse">
<stop stop-color="#3FAEBF"/>
<stop offset="1" stop-color="#1C5C94"/>
</linearGradient>
<linearGradient id="paint11_linear_596_338" x1="203.911" y1="250.442" x2="389.405" y2="464.212" gradientUnits="userSpaceOnUse">
<stop stop-color="#3FAEBF"/>
<stop offset="1" stop-color="#1C5C94"/>
</linearGradient>
<linearGradient id="paint12_linear_596_338" x1="215.574" y1="257.497" x2="393.727" y2="459.494" gradientUnits="userSpaceOnUse">
<stop stop-color="#3FAEBF"/>
<stop offset="1" stop-color="#1C5C94"/>
</linearGradient>
<linearGradient id="paint13_linear_596_338" x1="245.055" y1="317.564" x2="297.759" y2="396.793" gradientUnits="userSpaceOnUse">
<stop stop-color="#3FAEBF"/>
<stop offset="1" stop-color="#1C5C94"/>
</linearGradient>
<linearGradient id="paint14_linear_596_338" x1="272.23" y1="217.664" x2="347.053" y2="280.566" gradientUnits="userSpaceOnUse">
<stop stop-color="#3FAEBF"/>
<stop offset="1" stop-color="#1C5C94"/>
</linearGradient>
<linearGradient id="paint15_linear_596_338" x1="281.344" y1="222.944" x2="349.384" y2="275.394" gradientUnits="userSpaceOnUse">
<stop stop-color="#3FAEBF"/>
<stop offset="1" stop-color="#1C5C94"/>
</linearGradient>
<linearGradient id="paint16_linear_596_338" x1="292.837" y1="253.37" x2="323.536" y2="283.315" gradientUnits="userSpaceOnUse">
<stop stop-color="#3FAEBF"/>
<stop offset="1" stop-color="#1C5C94"/>
</linearGradient>
<linearGradient id="paint17_linear_596_338" x1="605.009" y1="445.99" x2="661.565" y2="501.584" gradientUnits="userSpaceOnUse">
<stop stop-color="#3FAEBF"/>
<stop offset="1" stop-color="#1C5C94"/>
</linearGradient>
<linearGradient id="paint18_linear_596_338" x1="608.897" y1="478.534" x2="667.853" y2="536.854" gradientUnits="userSpaceOnUse">
<stop stop-color="#3FAEBF"/>
<stop offset="1" stop-color="#1C5C94"/>
</linearGradient>
<linearGradient id="paint19_linear_596_338" x1="560.251" y1="299.586" x2="641.538" y2="350.706" gradientUnits="userSpaceOnUse">
<stop stop-color="#3FAEBF"/>
<stop offset="1" stop-color="#1C5C94"/>
</linearGradient>
<linearGradient id="paint20_linear_596_338" x1="444.233" y1="346.71" x2="453.718" y2="359.168" gradientUnits="userSpaceOnUse">
<stop stop-color="#3FAEBF"/>
<stop offset="1" stop-color="#1C5C94"/>
</linearGradient>
<linearGradient id="paint21_linear_596_338" x1="468.104" y1="358.218" x2="479.72" y2="374.332" gradientUnits="userSpaceOnUse">
<stop stop-color="#3FAEBF"/>
<stop offset="1" stop-color="#1C5C94"/>
</linearGradient>
<linearGradient id="paint22_linear_596_338" x1="423.15" y1="310.772" x2="550.938" y2="457.769" gradientUnits="userSpaceOnUse">
<stop stop-color="#3FAEBF"/>
<stop offset="1" stop-color="#1C5C94"/>
</linearGradient>
<linearGradient id="paint23_linear_596_338" x1="423.15" y1="315.826" x2="545.978" y2="454.055" gradientUnits="userSpaceOnUse">
<stop stop-color="#3FAEBF"/>
<stop offset="1" stop-color="#1C5C94"/>
</linearGradient>
<linearGradient id="paint24_linear_596_338" x1="544.614" y1="396.634" x2="575.328" y2="414.075" gradientUnits="userSpaceOnUse">
<stop stop-color="#3FAEBF"/>
<stop offset="1" stop-color="#1C5C94"/>
</linearGradient>
</defs>
</svg>
