<svg width="700" height="700" viewBox="0 0 700 700" fill="none" xmlns="http://www.w3.org/2000/svg">
<path d="M629.86 557.886H583.492V558.236H629.86V557.886Z" fill="#EBEBEB"/>
<path d="M463.709 561.694H451.543V562.044H463.709V561.694Z" fill="#EBEBEB"/>
<path d="M582.093 544.894H555.227V545.244H582.093V544.894Z" fill="#EBEBEB"/>
<path d="M133.91 547.246H73.4443V547.596H133.91V547.246Z" fill="#EBEBEB"/>
<path d="M155.246 547.246H146.384V547.596H155.246V547.246Z" fill="#EBEBEB"/>
<path d="M315.211 553.154H184.059V553.504H315.211V553.154Z" fill="#EBEBEB"/>
<path d="M333.76 472.92H63.4198C59.0098 472.92 55.4258 469.336 55.4258 464.926V84.924C55.4258 80.514 59.0098 76.93 63.4198 76.93H333.76C338.17 76.93 341.754 80.514 341.754 84.924V464.926C341.754 469.336 338.17 472.92 333.76 472.92ZM63.4198 77.28C59.2058 77.28 55.7758 80.71 55.7758 84.924V464.926C55.7758 469.14 59.2058 472.57 63.4198 472.57H333.76C337.974 472.57 341.404 469.14 341.404 464.926V84.924C341.404 80.71 337.974 77.28 333.76 77.28H63.4198Z" fill="#EBEBEB"/>
<path d="M636.58 472.92H366.24C361.83 472.92 358.246 469.336 358.246 464.926V84.924C358.246 80.514 361.83 76.93 366.24 76.93H636.58C640.99 76.93 644.574 80.514 644.574 84.924V464.926C644.574 469.336 640.99 472.92 636.58 472.92ZM366.24 77.28C362.026 77.28 358.596 80.71 358.596 84.924V464.926C358.596 469.14 362.026 472.57 366.24 472.57H636.58C640.794 472.57 644.224 469.14 644.224 464.926V84.924C644.224 80.71 640.794 77.28 636.58 77.28H366.24Z" fill="#EBEBEB"/>
<path d="M700 535.36H0V535.71H700V535.36Z" fill="#EBEBEB"/>
<path d="M490.102 527.227H623.354V349.931H490.102V527.227Z" fill="#F5F5F5"/>
<path d="M464.674 527.227H490.098V349.931H464.674V527.227Z" fill="#E6E6E6"/>
<path d="M498.754 406.147H614.016V363.083H498.754V406.147Z" fill="#FAFAFA"/>
<path d="M571.409 363.076L570.905 368.816C570.737 370.706 569.155 372.162 567.251 372.162H545.495C543.591 372.162 542.009 370.706 541.841 368.816L541.337 363.076H571.409Z" fill="#EBEBEB"/>
<path d="M498.754 453.9H614.016V410.836H498.754V453.9Z" fill="#FAFAFA"/>
<path d="M571.409 410.844L570.905 416.584C570.737 418.474 569.155 419.93 567.251 419.93H545.495C543.591 419.93 542.009 418.474 541.841 416.584L541.337 410.844H571.409Z" fill="#EBEBEB"/>
<path d="M498.754 501.667H614.016V458.603H498.754V501.667Z" fill="#FAFAFA"/>
<path d="M571.409 458.598L570.905 464.338C570.737 466.228 569.155 467.684 567.251 467.684H545.495C543.591 467.684 542.009 466.228 541.841 464.338L541.337 458.598H571.409Z" fill="#EBEBEB"/>
<path d="M498.749 536.088H612.611L614.011 527.212H498.749V536.088Z" fill="#E6E6E6"/>
<path d="M474.949 536.088H498.749V527.212H473.549L474.949 536.088Z" fill="#E0E0E0"/>
<path d="M552.271 350.112H597.771L592.731 292.418H547.231L552.271 350.112Z" fill="#FAFAFA"/>
<path d="M552.272 350.112H550.102L545.048 292.418H547.232L552.272 350.112Z" fill="#EBEBEB"/>
<path d="M556.402 344.232H592.62L588.602 298.298H552.384L556.402 344.232Z" fill="#F0F0F0"/>
<path d="M559.048 340.452H589.302L585.956 302.078H555.688L559.048 340.452Z" fill="#E6E6E6"/>
<path d="M539.489 350.112L542.611 314.398H497.321L494.199 350.112H539.489Z" fill="#F0F0F0"/>
<path d="M539.489 350.112L542.611 314.398H545.047L541.925 350.112H539.489Z" fill="#E0E0E0"/>
<path d="M535.191 346.472L537.683 318.038H501.619L499.127 346.472H535.191Z" fill="#EBEBEB"/>
<path d="M532.42 344.134L534.506 320.39H504.378L502.306 344.134H532.42Z" fill="#F5F5F5"/>
<path d="M434.895 512.078C434.895 521.542 433.411 527.66 430.905 531.594C429.029 534.548 425.641 536.214 422.141 536.214H408.435C404.935 536.214 401.561 534.548 399.671 531.594C397.165 527.66 395.681 521.542 395.681 512.078C395.681 498.358 401.659 487.368 403.619 478.59C404.319 475.426 401.981 465.752 401.981 465.752H428.581C428.581 465.752 426.243 475.44 426.943 478.59C428.917 487.354 434.895 498.344 434.895 512.078Z" fill="#EBEBEB"/>
<path d="M480.198 456.526C480.198 444.612 461.508 449.554 456.804 431.06C455.026 424.06 470.216 408.198 470.216 408.198H422.826C422.826 408.198 438.03 424.06 436.238 431.06C431.534 449.554 412.844 444.598 412.844 456.526C412.844 469.658 439.206 496.986 440.466 527.758C440.578 530.502 435.51 536.214 435.51 536.214H457.518C457.518 536.214 452.45 530.516 452.562 527.758C453.836 496.986 480.198 469.644 480.198 456.526Z" fill="#F5F5F5"/>
<path d="M465.877 487.494C468.635 481.698 462.937 462 462.937 462H483.475C483.475 462 477.777 481.698 480.535 487.494C482.481 491.582 486.905 494.2 486.905 499.03V528.108C486.905 535.64 480.745 536.2 473.213 536.2C465.681 536.2 459.521 535.64 459.521 528.108V499.03C459.507 494.2 463.931 491.582 465.877 487.494Z" fill="#F0F0F0"/>
<path d="M231.209 315.742C219.407 310.632 212.687 299.852 216.201 291.704C219.729 283.556 232.189 281.092 243.991 286.202C255.793 291.312 262.527 302.092 258.999 310.24C255.471 318.374 243.011 320.852 231.209 315.742ZM240.603 294.056C235.073 291.662 229.235 292.824 227.583 296.632C225.931 300.454 229.081 305.494 234.611 307.888C240.141 310.282 245.979 309.12 247.631 305.312C249.283 301.504 246.133 296.45 240.603 294.056Z" fill="#E6E6E6"/>
<path d="M245.097 294.504L239.497 292.082L273.377 213.766C274.049 212.212 275.841 211.512 277.395 212.17C278.949 212.842 279.649 214.634 278.991 216.188L245.097 294.504Z" fill="#E6E6E6"/>
<path d="M281.567 223.762L270.801 219.058L273.237 213.458L283.989 218.162L281.567 223.762Z" fill="#E6E6E6"/>
<path d="M276.262 230.034L268.562 226.688L270.984 221.074L278.684 224.42L276.262 230.034Z" fill="#E6E6E6"/>
<path d="M267.878 231.788L265.452 237.39L274.086 241.129L276.512 235.527L267.878 231.788Z" fill="#E6E6E6"/>
<path d="M247.267 286.146L244.187 284.816C242.647 284.158 241.947 282.366 242.605 280.84L242.619 280.798C243.277 279.258 245.069 278.558 246.595 279.216L249.675 280.546C251.215 281.204 251.915 282.996 251.257 284.522L251.243 284.564C250.585 286.104 248.807 286.804 247.267 286.146Z" fill="#E6E6E6"/>
<path d="M487.857 259.224C497.209 265.454 499.617 278.32 493.233 287.896C486.849 297.472 474.053 300.202 464.701 293.986C455.349 287.756 452.941 274.89 459.325 265.314C465.709 255.724 478.505 252.994 487.857 259.224ZM470.847 284.746C475.229 287.658 481.221 286.384 484.217 281.89C487.213 277.396 486.079 271.376 481.697 268.45C477.315 265.538 471.323 266.812 468.327 271.306C465.345 275.8 466.479 281.82 470.847 284.746Z" fill="#E6E6E6"/>
<path d="M468.593 282.254L474.389 286.118L432.935 349.566C431.871 351.162 429.701 351.596 428.105 350.532C426.509 349.468 426.075 347.312 427.139 345.702L468.593 282.254Z" fill="#E6E6E6"/>
<path d="M427.392 331.87L439.586 340.06L433.496 349.202L421.274 340.998C419.524 339.822 419.048 337.442 420.224 335.692L422.058 332.934C423.234 331.17 425.628 330.694 427.392 331.87Z" fill="#E6E6E6"/>
<path d="M318.557 137.984L312.117 154.658C311.543 156.156 309.849 156.912 308.351 156.324C306.853 155.75 306.097 154.056 306.685 152.558L313.125 135.884C315.197 130.494 312.509 124.432 307.133 122.346L301.169 120.05C295.779 117.978 289.717 120.666 287.631 126.042L284.999 132.846L279.553 130.746L282.185 123.942C285.419 115.556 294.883 111.37 303.255 114.604L309.219 116.9C317.605 120.134 321.791 129.598 318.557 137.984Z" fill="#F0F0F0"/>
<path d="M317.534 140.602C317.1 140.056 316.526 139.594 315.826 139.328L283.346 126.784C282.618 126.504 281.862 126.448 281.148 126.588C279.846 126.84 278.698 127.736 278.194 129.066L265.65 161.546C264.852 163.604 265.874 165.9 267.932 166.698L300.412 179.242C302.47 180.04 304.766 179.018 305.564 176.96L318.108 144.48C318.626 143.136 318.374 141.666 317.534 140.602ZM292.866 165.704L282.562 161.728L288.008 152.222C287.322 150.836 287.196 149.184 287.798 147.63C288.932 144.69 292.236 143.22 295.19 144.354C298.13 145.488 299.6 148.806 298.466 151.746C297.864 153.3 296.66 154.434 295.218 154.994L292.866 165.704Z" fill="#E6E6E6"/>
<path d="M96.8141 517.245H355.996V377.763H96.8141V517.245Z" fill="#E6E6E6"/>
<path d="M335.223 535.341H351.519V523.035H335.223V535.341Z" fill="#E6E6E6"/>
<path d="M77.0214 535.341H93.3174L93.3174 367.383H77.0214L77.0214 535.341Z" fill="#E6E6E6"/>
<path d="M93.127 367.374V535.332H101.821V525.924H351.511V535.332H360.205V367.374H355.865H351.525H101.821H97.481H93.127ZM101.821 382.578H222.319V440.916H101.821V382.578ZM351.511 510.72H231.013V382.578H351.511V510.72ZM101.821 510.72V449.596H222.319V510.72H101.821Z" fill="#F0F0F0"/>
<path d="M230.997 510.728H343.361V388.858H230.997V510.728Z" fill="#F5F5F5"/>
<path d="M236.095 446.138C236.095 449.022 238.433 451.36 241.317 451.36C244.201 451.36 246.539 449.022 246.539 446.138C246.539 443.254 244.201 440.916 241.317 440.916C238.433 440.916 236.095 443.254 236.095 446.138Z" fill="#FAFAFA"/>
<path d="M241.317 451.36C243.417 451.36 245.223 450.1 246.049 448.308C246.357 448.966 246.539 449.708 246.539 450.478C246.539 453.362 244.201 455.7 241.317 455.7C238.433 455.7 236.095 453.362 236.095 450.478C236.095 449.694 236.277 448.966 236.585 448.308C237.411 450.1 239.217 451.36 241.317 451.36Z" fill="#E0E0E0"/>
<path d="M299.795 510.72H272.985L260.175 388.85H286.985L299.795 510.72Z" fill="#FAFAFA"/>
<path d="M266.125 510.72H260.777L247.981 388.85H253.315L266.125 510.72Z" fill="#FAFAFA"/>
<path d="M195.172 440.856H205.784V388.734H195.172V440.856Z" fill="#FAFAFA"/>
<path d="M151.137 440.856H161.749V388.734H151.137V440.856Z" fill="#F5F5F5"/>
<path d="M184.548 440.865H195.16V392.397H184.548V440.865Z" fill="#F5F5F5"/>
<path d="M161.761 440.865H172.373V392.397H161.761V440.865Z" fill="#FAFAFA"/>
<path d="M172.382 440.856H179.242V388.734H172.382V440.856Z" fill="#EBEBEB"/>
<path d="M179.232 440.865H184.538V392.397H179.232V440.865Z" fill="#FAFAFA"/>
<path d="M140.527 440.856H151.139V388.734H140.527V440.856Z" fill="#EBEBEB"/>
<path d="M129.904 440.865H140.516V392.397H129.904V440.865Z" fill="#E6E6E6"/>
<path d="M107.117 440.865H117.729V392.397H107.117V440.865Z" fill="#E6E6E6"/>
<path d="M117.737 440.856H124.597V388.734H117.737V440.856Z" fill="#FAFAFA"/>
<path d="M124.602 440.865H129.908V392.397H124.602V440.865Z" fill="#EBEBEB"/>
<path d="M101.801 440.859H107.107V389.969H101.801V440.859Z" fill="#EBEBEB"/>
<path d="M112.42 458.598H101.808V510.72H112.42V458.598Z" fill="#EBEBEB"/>
<path d="M156.435 458.598H145.823V510.72H156.435V458.598Z" fill="#FAFAFA"/>
<path d="M123.031 462.266H112.419V510.734H123.031V462.266Z" fill="#FAFAFA"/>
<path d="M145.823 462.266H135.211V510.734H145.823V462.266Z" fill="#EBEBEB"/>
<path d="M135.211 458.598H128.351V510.72H135.211V458.598Z" fill="#FAFAFA"/>
<path d="M128.351 462.266H123.045V510.734H128.351V462.266Z" fill="#F5F5F5"/>
<path d="M167.061 458.598H156.449V510.72H167.061V458.598Z" fill="#EBEBEB"/>
<path d="M177.674 462.266H167.062V510.734H177.674V462.266Z" fill="#F5F5F5"/>
<path d="M200.465 462.266H189.853V510.734H200.465V462.266Z" fill="#E6E6E6"/>
<path d="M189.854 458.598H182.994V510.72H189.854V458.598Z" fill="#FAFAFA"/>
<path d="M212.644 458.598H205.784V510.72H212.644V458.598Z" fill="#FAFAFA"/>
<path d="M182.994 462.266H177.688V510.734H182.994V462.266Z" fill="#EBEBEB"/>
<path d="M205.772 459.83H200.466V510.72H205.772V459.83Z" fill="#EBEBEB"/>
<path d="M113.652 277.606C113.652 277.606 111.874 278.432 111.062 280.084C110.25 281.736 112.77 284.802 112.77 284.802C112.77 284.802 114.898 286.286 116.998 285.32C119.112 284.368 119.112 284.368 119.112 284.368C119.112 284.368 115.514 278.11 113.764 278.054L113.652 277.606Z" fill="#E6E6E6"/>
<path d="M122.682 277.55C122.934 280.518 121.1 284.256 118.454 284.494C115.808 284.718 113.344 281.358 113.092 278.39C112.84 275.422 114.968 275.128 117.628 274.904C120.26 274.666 122.416 274.582 122.682 277.55Z" fill="#E6E6E6"/>
<path d="M114.911 276.682C114.911 276.682 116.941 278.292 121.113 277.354C121.113 277.354 114.533 281.736 114.911 276.682Z" fill="#E6E6E6"/>
<path d="M116.704 276.094C116.704 276.094 119.042 275.688 119.07 276.668C119.07 276.668 121.044 276.556 120.778 275.73C120.512 274.89 116.704 276.094 116.704 276.094Z" fill="#E6E6E6"/>
<g opacity="0.2">
<path d="M114.911 276.682C114.911 276.682 116.941 278.292 121.113 277.354C121.113 277.354 114.533 281.736 114.911 276.682Z" fill="#FAFAFA"/>
</g>
<g opacity="0.2">
<path d="M116.704 276.094C116.704 276.094 119.042 275.688 119.07 276.668C119.07 276.668 121.044 276.556 120.778 275.73C120.512 274.89 116.704 276.094 116.704 276.094Z" fill="#FAFAFA"/>
</g>
<path d="M114.001 285.432C114.841 286.804 116.563 287.504 118.159 287.308C119.755 287.112 121.183 286.118 122.107 284.802C123.031 283.486 123.465 281.876 123.563 280.28C123.591 279.86 123.619 278.824 123.073 278.67C122.569 278.53 122.261 279.23 122.037 279.552C121.365 280.49 120.665 281.372 119.811 282.156C118.985 282.912 118.075 283.584 117.095 284.13C116.815 284.284 114.155 285.67 114.001 285.432Z" fill="#E6E6E6"/>
<path d="M125.37 279.51C125.874 280.714 125.692 282.17 124.908 283.22C124.39 283.906 123.661 284.396 122.933 284.83C122.429 285.138 121.772 285.432 121.268 285.11C120.722 284.76 120.778 283.976 120.904 283.332C121.1 282.366 121.31 281.4 121.548 280.434C121.744 279.65 121.869 278.334 122.331 277.662C122.765 277.032 123.382 277.41 124.04 277.858C124.614 278.278 125.09 278.852 125.37 279.51Z" fill="#E6E6E6"/>
<g opacity="0.2">
<path d="M114.674 283.794C113.652 283.752 112.686 283.052 112.308 282.1C112.028 281.4 112.042 279.608 112.952 279.37C113.358 280.966 113.708 282.408 114.674 283.794Z" fill="#FAFAFA"/>
</g>
<g opacity="0.2">
<path d="M121.575 283.71C122.541 283.43 123.339 282.646 123.633 281.68C123.801 281.148 123.591 278.432 122.779 279.58C122.513 279.958 122.569 281.148 122.429 281.624C122.233 282.352 121.953 283.052 121.575 283.71Z" fill="#FAFAFA"/>
</g>
<g opacity="0.2">
<path d="M117.88 285.39C118.622 286.02 119.826 286.062 120.596 285.46C120.498 285.978 118.846 286.426 118.328 286.58C116.998 286.972 116.298 286.384 114.996 285.838C115.01 285.838 117.054 286.146 117.88 285.39Z" fill="#FAFAFA"/>
</g>
<path d="M115.568 339.92L115.694 299.53L117.766 287.238L118.55 287.378L116.492 299.6L116.338 340.69L115.568 339.92Z" fill="#E0E0E0"/>
<path d="M116.409 299.32L115.779 299.81C115.149 298.984 114.575 297.906 113.917 296.66C112.895 294.728 111.733 292.544 109.969 290.612L110.557 290.08C112.391 292.096 113.567 294.322 114.617 296.296C115.261 297.5 115.807 298.55 116.409 299.32Z" fill="#E0E0E0"/>
<path d="M116.899 293.902C117.977 293.622 118.943 292.936 119.559 292.012C120.259 290.962 120.511 289.688 120.735 288.442C119.335 288.862 117.837 288.176 116.395 288.344C115.247 288.47 114.169 289.184 113.581 290.178C112.825 291.48 112.517 292.95 113.189 293.552C113.735 294.056 115.457 294.28 116.899 293.902Z" fill="#E6E6E6"/>
<path d="M111.523 291.116C110.235 291.928 108.583 292.138 107.127 291.662C105.671 291.186 105.251 289.016 104.691 287.588C106.007 287.322 109.339 287.504 110.095 287.588C110.851 287.658 111.621 288.008 112.027 288.652C112.433 289.296 112.363 290.262 111.747 290.696C111.719 290.668 111.523 291.116 111.523 291.116Z" fill="#E6E6E6"/>
<path d="M104.901 293.482C105.783 292.404 107.967 291.634 109.339 291.886C110.711 292.138 111.873 293.076 112.363 294.196C111.999 295.064 111.033 295.554 110.095 295.624C109.157 295.694 108.233 295.414 107.337 295.134C106.441 294.854 105.517 294.588 104.579 294.644L104.901 293.482Z" fill="#E6E6E6"/>
<path d="M131.85 286.538C131.85 286.538 133.306 287.84 133.6 289.674C133.894 291.494 130.576 293.678 130.576 293.678C130.576 293.678 128.112 294.462 126.376 292.936C124.64 291.396 124.64 291.396 124.64 291.396C124.64 291.396 129.918 286.482 131.612 286.93L131.85 286.538Z" fill="#E6E6E6"/>
<path d="M123.226 283.836C122.106 286.594 122.764 290.71 125.228 291.718C127.692 292.712 131.024 290.22 132.144 287.462C133.264 284.704 131.304 283.794 128.84 282.8C126.39 281.778 124.346 281.078 123.226 283.836Z" fill="#E6E6E6"/>
<path d="M130.912 285.278C130.912 285.278 128.504 286.23 124.794 284.102C124.78 284.102 129.778 290.22 130.912 285.278Z" fill="#E6E6E6"/>
<path d="M129.372 284.186C129.372 284.186 127.258 283.108 126.936 284.032C126.936 284.032 125.074 283.346 125.578 282.632C126.096 281.918 129.372 284.186 129.372 284.186Z" fill="#E6E6E6"/>
<g opacity="0.2">
<path d="M130.912 285.278C130.912 285.278 128.504 286.23 124.794 284.102C124.78 284.102 129.778 290.22 130.912 285.278Z" fill="#FAFAFA"/>
</g>
<g opacity="0.2">
<path d="M129.372 284.186C129.372 284.186 127.258 283.108 126.936 284.032C126.936 284.032 125.074 283.346 125.578 282.632C126.096 281.918 129.372 284.186 129.372 284.186Z" fill="#FAFAFA"/>
</g>
<path d="M129.203 293.916C127.999 294.98 126.151 295.134 124.681 294.49C123.211 293.846 122.133 292.46 121.643 290.934C121.153 289.408 121.209 287.742 121.573 286.174C121.671 285.768 121.937 284.774 122.511 284.774C123.029 284.788 123.127 285.544 123.253 285.922C123.617 287.014 124.037 288.064 124.611 289.072C125.171 290.038 125.857 290.948 126.627 291.76C126.851 291.998 128.993 294.098 129.203 293.916Z" fill="#E6E6E6"/>
<path d="M120.09 284.914C119.264 285.922 118.998 287.364 119.446 288.596C119.74 289.408 120.286 290.08 120.86 290.724C121.252 291.172 121.798 291.634 122.372 291.48C122.988 291.312 123.17 290.528 123.24 289.898C123.338 288.918 123.422 287.924 123.464 286.944C123.506 286.132 123.772 284.844 123.534 284.06C123.31 283.332 122.61 283.5 121.854 283.752C121.168 283.948 120.552 284.354 120.09 284.914Z" fill="#E6E6E6"/>
<g opacity="0.2">
<path d="M129.05 292.138C130.044 292.39 131.164 292.026 131.808 291.214C132.284 290.626 132.802 288.904 131.99 288.428C131.136 289.828 130.38 291.102 129.05 292.138Z" fill="#FAFAFA"/>
</g>
<g opacity="0.2">
<path d="M122.47 290.038C121.63 289.492 121.084 288.498 121.098 287.49C121.098 286.93 122.092 284.41 122.526 285.726C122.666 286.16 122.274 287.28 122.26 287.784C122.246 288.554 122.316 289.31 122.47 290.038Z" fill="#FAFAFA"/>
</g>
<g opacity="0.2">
<path d="M125.509 292.726C124.613 293.118 123.451 292.796 122.891 291.998C122.835 292.53 124.291 293.44 124.725 293.734C125.887 294.504 126.727 294.14 128.127 294.014C128.127 294 126.083 293.706 125.509 292.726Z" fill="#FAFAFA"/>
</g>
<path d="M114.421 333.886L114.925 332.234L115.597 330.008L116.381 327.404L122.667 306.726L123.451 300.79L124.151 295.526L124.291 294.434L124.683 294.49L125.089 294.546L125.075 294.63L124.935 295.666L124.193 301.294L123.577 305.872L123.451 306.894L123.395 307.048L116.381 330.148L115.583 332.738L115.219 333.942L114.729 335.58L114.421 333.886Z" fill="#E0E0E0"/>
<path d="M122.82 306.488L123.282 307.132C124.136 306.53 124.99 305.662 125.998 304.668C127.538 303.128 129.288 301.378 131.542 300.048L131.136 299.362C128.798 300.748 127.006 302.54 125.438 304.108C124.458 305.074 123.618 305.914 122.82 306.488Z" fill="#E0E0E0"/>
<path d="M123.955 301.168C123.017 300.58 122.289 299.642 121.967 298.578C121.603 297.374 121.743 296.072 121.883 294.826C123.087 295.638 124.725 295.428 126.055 296.016C127.119 296.478 127.931 297.472 128.197 298.592C128.533 300.062 128.393 301.56 127.581 301.924C126.923 302.232 125.215 301.952 123.955 301.168Z" fill="#E6E6E6"/>
<path d="M129.905 300.076C130.899 301.238 132.425 301.924 133.937 301.896C135.463 301.868 136.513 299.908 137.465 298.718C136.289 298.074 133.041 297.276 132.299 297.122C131.557 296.968 130.717 297.066 130.143 297.57C129.569 298.06 129.359 299.012 129.807 299.614C129.849 299.6 129.905 300.076 129.905 300.076Z" fill="#E6E6E6"/>
<path d="M135.547 304.276C135.015 302.988 133.153 301.602 131.781 301.448C130.395 301.28 129.009 301.84 128.211 302.764C128.295 303.702 129.079 304.458 129.961 304.794C130.843 305.13 131.809 305.144 132.747 305.144C133.685 305.144 134.651 305.158 135.533 305.494L135.547 304.276Z" fill="#E6E6E6"/>
<path d="M103.488 284.914C103.488 284.914 101.878 286.048 101.374 287.812C100.87 289.59 103.908 292.152 103.908 292.152C103.908 292.152 106.26 293.23 108.164 291.9C110.068 290.584 110.068 290.584 110.068 290.584C110.068 290.584 105.392 285.082 103.67 285.334L103.488 284.914Z" fill="#E6E6E6"/>
<path d="M112.364 283.248C113.148 286.118 112.014 290.136 109.452 290.836C106.89 291.536 103.866 288.666 103.082 285.796C102.298 282.926 104.342 282.254 106.918 281.554C109.494 280.854 111.58 280.378 112.364 283.248Z" fill="#E6E6E6"/>
<path d="M104.566 283.78C104.566 283.78 106.848 284.998 110.782 283.332C110.782 283.332 105.112 288.834 104.566 283.78Z" fill="#E6E6E6"/>
<path d="M106.218 282.884C106.218 282.884 108.444 282.058 108.654 283.024C108.654 283.024 110.586 282.562 110.166 281.792C109.746 281.022 106.218 282.884 106.218 282.884Z" fill="#E6E6E6"/>
<g opacity="0.2">
<path d="M104.566 283.78C104.566 283.78 106.848 284.998 110.782 283.332C110.782 283.332 105.112 288.834 104.566 283.78Z" fill="#FAFAFA"/>
</g>
<g opacity="0.2">
<path d="M106.218 282.884C106.218 282.884 108.444 282.058 108.654 283.024C108.654 283.024 110.586 282.562 110.166 281.792C109.746 281.022 106.218 282.884 106.218 282.884Z" fill="#FAFAFA"/>
</g>
<path d="M105.237 292.558C106.315 293.748 108.135 294.14 109.661 293.664C111.201 293.188 112.433 291.956 113.091 290.5C113.763 289.044 113.903 287.378 113.707 285.782C113.665 285.376 113.497 284.34 112.937 284.284C112.419 284.228 112.237 284.97 112.069 285.334C111.579 286.384 111.047 287.378 110.347 288.302C109.675 289.198 108.891 290.01 108.037 290.738C107.813 290.92 105.433 292.768 105.237 292.558Z" fill="#E6E6E6"/>
<path d="M115.36 284.69C116.074 285.782 116.158 287.252 115.57 288.414C115.192 289.184 114.562 289.786 113.918 290.36C113.47 290.752 112.882 291.158 112.322 290.934C111.734 290.682 111.636 289.898 111.636 289.254C111.65 288.26 111.692 287.28 111.762 286.286C111.818 285.474 111.706 284.158 112.028 283.416C112.336 282.716 113.008 282.982 113.736 283.304C114.394 283.612 114.968 284.088 115.36 284.69Z" fill="#E6E6E6"/>
<g opacity="0.2">
<path d="M105.617 290.822C104.609 290.962 103.531 290.458 102.985 289.59C102.593 288.946 102.271 287.182 103.125 286.79C103.811 288.274 104.413 289.632 105.617 290.822Z" fill="#FAFAFA"/>
</g>
<g opacity="0.2">
<path d="M112.392 289.506C113.288 289.058 113.946 288.134 114.058 287.14C114.128 286.594 113.428 283.962 112.84 285.222C112.644 285.642 112.91 286.804 112.868 287.294C112.798 288.05 112.63 288.792 112.392 289.506Z" fill="#FAFAFA"/>
</g>
<g opacity="0.2">
<path d="M109.06 291.816C109.914 292.306 111.09 292.124 111.748 291.396C111.748 291.928 110.194 292.656 109.718 292.894C108.472 293.524 107.688 293.062 106.316 292.768C106.302 292.782 108.374 292.712 109.06 291.816Z" fill="#FAFAFA"/>
</g>
<path d="M116.564 345.884L109.438 306.124L109.27 293.664L110.068 293.65L110.236 306.054L117.474 346.5L116.564 345.884Z" fill="#E0E0E0"/>
<path d="M110.109 305.788L109.577 306.376C108.807 305.676 108.051 304.724 107.169 303.604C105.811 301.896 104.285 299.95 102.199 298.354L102.689 297.724C104.845 299.376 106.413 301.364 107.799 303.114C108.639 304.206 109.381 305.13 110.109 305.788Z" fill="#E0E0E0"/>
<path d="M109.604 300.37C110.612 299.894 111.438 299.054 111.886 298.032C112.39 296.87 112.404 295.568 112.404 294.308C111.102 294.966 109.506 294.574 108.12 294.994C107.014 295.33 106.076 296.212 105.684 297.304C105.18 298.718 105.138 300.23 105.894 300.692C106.538 301.084 108.26 301 109.604 300.37Z" fill="#E6E6E6"/>
<path d="M103.823 298.592C102.703 299.628 101.107 300.132 99.5947 299.922C98.0827 299.712 97.2707 297.654 96.4727 296.352C97.7187 295.848 101.037 295.442 101.793 295.372C102.549 295.316 103.361 295.512 103.879 296.072C104.397 296.632 104.495 297.584 103.963 298.144C103.935 298.13 103.823 298.592 103.823 298.592Z" fill="#E6E6E6"/>
<path d="M97.7331 302.106C98.4051 300.888 100.421 299.74 101.807 299.74C103.193 299.74 104.509 300.454 105.195 301.476C104.999 302.4 104.131 303.058 103.221 303.282C102.311 303.52 101.345 303.408 100.421 303.296C99.4831 303.184 98.5311 303.086 97.6211 303.31L97.7331 302.106Z" fill="#E6E6E6"/>
<path d="M119.489 321.482H111.117C110.487 321.468 109.927 321.874 109.745 322.476C109.059 324.646 107.589 330.358 107.589 339.36C107.589 349.244 110.165 362.362 110.977 366.24C111.117 366.898 111.691 367.36 112.349 367.374H118.173C118.845 367.374 119.405 366.898 119.545 366.24C120.357 362.362 122.933 349.244 122.933 339.36C122.933 330.358 121.463 324.66 120.777 322.476C120.623 321.902 120.091 321.51 119.489 321.482Z" fill="#F0F0F0"/>
<path d="M350.001 597.814C499.916 597.814 621.447 590.718 621.447 581.966C621.447 573.213 499.916 566.118 350.001 566.118C200.085 566.118 78.5547 573.213 78.5547 581.966C78.5547 590.718 200.085 597.814 350.001 597.814Z" fill="#F5F5F5"/>
<path d="M169.092 527.478C168.616 527.45 168.238 527.044 168.252 526.568C169.288 485.422 171.416 417.928 171.528 417.55C171.668 417.074 172.172 416.822 172.634 416.948C173.11 417.088 173.376 417.592 173.236 418.054C173.208 418.138 171.066 485.87 170.044 526.596C170.03 527.086 169.624 527.478 169.134 527.464C169.12 527.478 169.106 527.478 169.092 527.478Z" fill="#263238"/>
<path d="M163.562 390.082C163.912 393.246 167.706 404.236 170.87 403.9C174.034 403.55 175.378 392.014 175.042 388.836C174.692 385.672 171.85 383.376 168.686 383.726C165.508 384.062 163.226 386.918 163.562 390.082Z" fill="url(#paint0_linear_596_6037)"/>
<path d="M178.947 424.746C178.597 421.582 174.803 410.592 171.639 410.942C168.475 411.292 167.131 422.828 167.467 426.006C167.817 429.17 170.659 431.466 173.823 431.116C177.001 430.752 179.297 427.91 178.947 424.746Z" fill="url(#paint1_linear_596_6037)"/>
<path d="M153.931 415.1C157.095 414.75 168.085 410.956 167.735 407.792C167.385 404.628 155.849 403.284 152.671 403.62C149.507 403.97 147.211 406.812 147.561 409.976C147.911 413.154 150.767 415.45 153.931 415.1Z" fill="url(#paint2_linear_596_6037)"/>
<path d="M188.58 399.728C185.416 400.078 174.426 403.872 174.762 407.036C175.112 410.2 186.648 411.544 189.826 411.208C192.99 410.858 195.286 408.016 194.936 404.852C194.6 401.66 191.758 399.378 188.58 399.728Z" fill="url(#paint3_linear_596_6037)"/>
<path d="M153.568 400.596C156.06 402.598 166.504 407.68 168.506 405.188C170.508 402.696 163.284 393.582 160.806 391.594C158.328 389.592 154.688 389.998 152.686 392.476C150.684 394.968 151.09 398.594 153.568 400.596Z" fill="url(#paint4_linear_596_6037)"/>
<path d="M188.944 414.232C186.466 412.23 176.008 407.148 174.006 409.64C172.004 412.118 179.228 421.232 181.706 423.234C184.184 425.236 187.824 424.83 189.826 422.352C191.828 419.86 191.436 416.22 188.944 414.232Z" fill="url(#paint5_linear_596_6037)"/>
<path d="M164.446 425.096C166.448 422.618 171.53 412.16 169.038 410.158C166.56 408.156 157.446 415.38 155.444 417.858C153.442 420.336 153.848 423.976 156.326 425.978C158.818 427.98 162.444 427.588 164.446 425.096Z" fill="url(#paint6_linear_596_6037)"/>
<path d="M178.066 389.718C176.064 392.196 170.982 402.654 173.474 404.656C175.952 406.658 185.066 399.434 187.068 396.956C189.07 394.478 188.664 390.838 186.186 388.836C183.708 386.848 180.068 387.24 178.066 389.718Z" fill="url(#paint7_linear_596_6037)"/>
<g opacity="0.6">
<path d="M163.562 390.082C163.912 393.246 167.706 404.236 170.87 403.9C174.034 403.55 175.378 392.014 175.042 388.836C174.692 385.672 171.85 383.376 168.686 383.726C165.508 384.062 163.226 386.918 163.562 390.082Z" fill="white"/>
<path d="M178.947 424.746C178.597 421.582 174.803 410.592 171.639 410.942C168.475 411.292 167.131 422.828 167.467 426.006C167.817 429.17 170.659 431.466 173.823 431.116C177.001 430.752 179.297 427.91 178.947 424.746Z" fill="white"/>
<path d="M153.931 415.1C157.095 414.75 168.085 410.956 167.735 407.792C167.385 404.628 155.849 403.284 152.671 403.62C149.507 403.97 147.211 406.812 147.561 409.976C147.911 413.154 150.767 415.45 153.931 415.1Z" fill="white"/>
<path d="M188.58 399.728C185.416 400.078 174.426 403.872 174.762 407.036C175.112 410.2 186.648 411.544 189.826 411.208C192.99 410.858 195.286 408.016 194.936 404.852C194.6 401.66 191.758 399.378 188.58 399.728Z" fill="white"/>
<path d="M153.568 400.596C156.06 402.598 166.504 407.68 168.506 405.188C170.508 402.696 163.284 393.582 160.806 391.594C158.328 389.592 154.688 389.998 152.686 392.476C150.684 394.968 151.09 398.594 153.568 400.596Z" fill="white"/>
<path d="M188.944 414.232C186.466 412.23 176.008 407.148 174.006 409.64C172.004 412.118 179.228 421.232 181.706 423.234C184.184 425.236 187.824 424.83 189.826 422.352C191.828 419.86 191.436 416.22 188.944 414.232Z" fill="white"/>
<path d="M164.446 425.096C166.448 422.618 171.53 412.16 169.038 410.158C166.56 408.156 157.446 415.38 155.444 417.858C153.442 420.336 153.848 423.976 156.326 425.978C158.818 427.98 162.444 427.588 164.446 425.096Z" fill="white"/>
<path d="M178.066 389.718C176.064 392.196 170.982 402.654 173.474 404.656C175.952 406.658 185.066 399.434 187.068 396.956C189.07 394.478 188.664 390.838 186.186 388.836C183.708 386.848 180.068 387.24 178.066 389.718Z" fill="white"/>
</g>
<path d="M164.459 408.156C164.865 411.908 168.239 414.624 171.991 414.218C175.743 413.812 178.459 410.438 178.053 406.686C177.647 402.934 174.273 400.218 170.521 400.624C166.769 401.03 164.053 404.404 164.459 408.156Z" fill="url(#paint8_linear_596_6037)"/>
<path d="M165.13 497.336C157.248 497.504 143.752 490.224 138.432 483.112C133.042 475.902 148.162 480.34 146.594 474.67C145.026 469 126.42 473.242 122.962 465.122C119.504 457.002 132.944 458.822 132.398 454.678C131.852 450.52 117.936 451.402 113.442 442.778C108.948 434.14 121.198 438.956 119.266 435.372C117.334 431.788 101.948 416.752 108.36 413.588C114.772 410.424 129.192 426.09 134.022 427.826C138.852 429.562 139.944 418.712 146.23 423.878C152.516 429.044 147.882 451.752 155.274 454.72C160.776 456.932 158.41 446.558 164.752 449.162C175.854 453.712 168.336 497.266 165.13 497.336Z" fill="url(#paint9_linear_596_6037)"/>
<g opacity="0.2">
<path d="M165.13 497.336C157.248 497.504 143.752 490.224 138.432 483.112C133.042 475.902 148.162 480.34 146.594 474.67C145.026 469 126.42 473.242 122.962 465.122C119.504 457.002 132.944 458.822 132.398 454.678C131.852 450.52 117.936 451.402 113.442 442.778C108.948 434.14 121.198 438.956 119.266 435.372C117.334 431.788 101.948 416.752 108.36 413.588C114.772 410.424 129.192 426.09 134.022 427.826C138.852 429.562 139.944 418.712 146.23 423.878C152.516 429.044 147.882 451.752 155.274 454.72C160.776 456.932 158.41 446.558 164.752 449.162C175.854 453.712 168.336 497.266 165.13 497.336Z" fill="white"/>
</g>
<path d="M176.469 487.326C176.595 487.55 175.419 488.67 179.311 488.824C188.901 489.216 205.855 488.572 212.225 479.85C221.311 467.404 200.353 468.538 202.383 461.678C204.427 454.818 226.953 460.418 231.349 450.618C235.745 440.818 219.365 442.736 220.121 437.682C220.877 432.642 238.069 439.18 243.739 428.778C249.409 418.376 234.387 423.948 236.823 419.636C239.259 415.324 258.327 397.39 250.599 393.4C242.871 389.41 224.965 408.128 219.057 410.13C213.149 412.132 211.777 393.778 204.021 399.91C196.251 406.056 201.347 433.776 192.289 437.206C185.541 439.768 189.223 429.842 180.893 430.22C169.595 430.752 165.871 469.616 176.469 487.326Z" fill="url(#paint10_linear_596_6037)"/>
<g opacity="0.3">
<path d="M176.469 487.326C176.595 487.55 175.419 488.67 179.311 488.824C188.901 489.216 205.855 488.572 212.225 479.85C221.311 467.404 200.353 468.538 202.383 461.678C204.427 454.818 226.953 460.418 231.349 450.618C235.745 440.818 219.365 442.736 220.121 437.682C220.877 432.642 238.069 439.18 243.739 428.778C249.409 418.376 234.387 423.948 236.823 419.636C239.259 415.324 258.327 397.39 250.599 393.4C242.871 389.41 224.965 408.128 219.057 410.13C213.149 412.132 211.777 393.778 204.021 399.91C196.251 406.056 201.347 433.776 192.289 437.206C185.541 439.768 189.223 429.842 180.893 430.22C169.595 430.752 165.871 469.616 176.469 487.326Z" fill="white"/>
</g>
<path d="M169.287 521.262C169.273 521.262 169.259 521.262 169.231 521.262C168.895 521.22 168.643 520.912 168.685 520.562C176.553 456.134 213.667 429.954 214.045 429.702C214.325 429.506 214.717 429.576 214.913 429.87C215.109 430.15 215.039 430.542 214.759 430.738C214.395 430.99 177.729 456.89 169.931 520.73C169.889 521.038 169.595 521.276 169.287 521.262Z" fill="#263238"/>
<path d="M205.588 438.648C205.336 438.634 205.098 438.466 205.014 438.214C204.902 437.892 205.084 437.528 205.42 437.43C205.644 437.36 211.174 435.61 220.232 437.528C220.568 437.598 220.778 437.934 220.708 438.27C220.638 438.606 220.302 438.83 219.966 438.746C211.258 436.898 205.854 438.592 205.798 438.606C205.742 438.648 205.672 438.648 205.588 438.648Z" fill="#263238"/>
<path d="M198.743 446.474C198.407 446.46 198.155 446.194 198.141 445.858C197.945 426.37 209.229 411.152 209.341 410.998C209.551 410.718 209.943 410.662 210.209 410.872C210.489 411.082 210.545 411.474 210.335 411.74C210.223 411.894 199.191 426.79 199.387 445.83C199.387 446.18 199.107 446.46 198.771 446.46C198.757 446.474 198.743 446.474 198.743 446.474Z" fill="#263238"/>
<path d="M187.684 462.966C187.53 462.966 187.376 462.896 187.25 462.77C187.012 462.518 187.026 462.126 187.278 461.888C187.362 461.804 195.706 454.09 206.64 458.01C206.962 458.122 207.13 458.486 207.018 458.808C206.906 459.13 206.542 459.298 206.22 459.186C196 455.518 188.202 462.728 188.132 462.798C188.006 462.924 187.852 462.98 187.684 462.966Z" fill="#263238"/>
<path d="M181.901 474.474C181.663 474.46 181.453 474.32 181.355 474.096C181.173 473.69 177.085 463.89 179.339 449.932C179.395 449.596 179.703 449.358 180.053 449.414C180.389 449.47 180.627 449.792 180.571 450.128C178.373 463.708 182.461 473.508 182.503 473.606C182.643 473.928 182.489 474.292 182.167 474.418C182.083 474.46 181.999 474.474 181.901 474.474Z" fill="#263238"/>
<path d="M169.525 544.278C169.203 544.264 168.937 543.998 168.923 543.676L168.111 526.61C165.717 469.882 126.811 431.284 126.419 430.906C126.167 430.668 126.167 430.276 126.405 430.024C126.643 429.772 127.035 429.772 127.287 430.01C127.679 430.402 166.949 469.308 169.357 526.568L170.169 543.634C170.183 543.984 169.903 544.264 169.567 544.278C169.567 544.278 169.539 544.278 169.525 544.278Z" fill="#263238"/>
<path d="M142.478 452.214C142.45 452.214 142.408 452.214 142.38 452.2C142.324 452.186 142.254 452.158 142.198 452.13L142.002 452.046C136.906 449.932 131.208 448.826 125.972 448.952C125.622 448.966 125.342 448.686 125.328 448.336C125.314 447.986 125.594 447.706 125.944 447.692C131.348 447.58 137.228 448.7 142.478 450.884L142.688 450.968C142.73 450.982 142.758 450.996 142.8 451.024C143.038 451.15 143.192 451.43 143.122 451.71C143.052 452.018 142.772 452.228 142.478 452.214Z" fill="#263238"/>
<path d="M147.981 459.522C147.967 459.522 147.967 459.522 147.953 459.522C147.603 459.494 147.351 459.186 147.393 458.85C148.905 442.106 140.225 428.33 140.141 428.19C139.959 427.896 140.043 427.518 140.337 427.322C140.631 427.14 141.009 427.224 141.205 427.518C141.289 427.658 150.193 441.784 148.653 458.962C148.597 459.284 148.317 459.536 147.981 459.522Z" fill="#263238"/>
<path d="M153.663 469.224C153.509 469.224 153.355 469.154 153.243 469.042C153.173 468.972 146.859 462.742 137.605 465.206C137.269 465.304 136.933 465.094 136.835 464.758C136.751 464.422 136.947 464.086 137.283 463.988C147.251 461.328 153.845 467.88 154.125 468.16C154.363 468.412 154.363 468.804 154.125 469.042C153.999 469.168 153.831 469.238 153.663 469.224Z" fill="#263238"/>
<path d="M160.873 485.212C160.789 485.212 160.691 485.184 160.607 485.142C160.299 484.988 160.187 484.61 160.341 484.302C160.383 484.218 164.667 475.846 163.687 463.764C163.659 463.414 163.911 463.12 164.261 463.092C164.611 463.05 164.905 463.316 164.933 463.666C165.941 476.126 161.629 484.526 161.447 484.876C161.335 485.1 161.097 485.226 160.873 485.212Z" fill="#263238"/>
<path d="M204.623 546.966C204.623 566.86 195.677 583.002 168.573 583.002C142.701 583.002 132.523 566.86 132.523 546.966C132.523 539.462 134.833 532.476 138.753 526.708H198.407C202.313 532.476 204.623 539.462 204.623 546.966Z" fill="url(#paint11_linear_596_6037)"/>
<path opacity="0.7" d="M204.623 546.966C204.623 566.86 195.677 583.002 168.573 583.002C142.701 583.002 132.523 566.86 132.523 546.966C132.523 539.462 134.833 532.476 138.753 526.708H198.407C202.313 532.476 204.623 539.462 204.623 546.966Z" fill="white"/>
<path d="M411.74 565.404L425.684 563.374L422.17 530.754L408.212 532.784L411.74 565.404Z" fill="#E8BFBF"/>
<path d="M436.408 563.864C437.626 563.78 438.76 563.276 439.656 562.45C440.034 561.974 440.16 561.33 439.978 560.742C439.894 560.378 439.628 560.07 439.278 559.958C437.416 559.286 432.32 563.052 431.746 563.472C431.634 563.556 431.592 563.71 431.62 563.85C431.662 563.976 431.788 564.074 431.928 564.074C433.426 564.13 434.924 564.06 436.408 563.864ZM438.368 560.588C438.578 560.532 438.802 560.546 438.998 560.602C439.138 560.644 439.25 560.77 439.292 560.924C439.404 561.316 439.334 561.736 439.082 562.044C438.368 562.94 436.086 563.444 432.908 563.444C434.56 562.184 436.422 561.204 438.396 560.56L438.368 560.588Z" fill="url(#paint12_linear_596_6037)"/>
<path d="M432.012 564.088L432.124 564.032C433.678 563.01 436.464 559.468 435.932 557.928C435.778 557.578 435.484 557.144 434.546 557.2C433.874 557.214 433.23 557.508 432.782 558.026C431.27 559.762 431.578 563.584 431.578 563.738C431.578 563.85 431.62 563.962 431.718 564.032C431.802 564.088 431.914 564.102 432.012 564.088ZM434.35 557.9L434.532 557.816C435.148 557.788 435.218 558.012 435.232 558.096C435.554 559.02 433.706 561.75 432.166 563.01C432.026 561.4 432.39 559.79 433.23 558.418C433.524 558.11 433.93 557.914 434.364 557.886L434.35 557.9Z" fill="url(#paint13_linear_596_6037)"/>
<path d="M424.254 557.592L411.892 560.532C411.332 560.644 410.954 561.162 411.01 561.736L411.416 579.628C411.584 580.888 412.746 581.756 413.992 581.588C414.076 581.574 414.16 581.56 414.244 581.532C419.606 580.202 422.126 579.292 428.944 577.724C433.116 576.758 446.346 575.764 451.764 573.356C457.182 570.948 455.068 565.446 452.604 565.978C444.652 567.686 434.446 564.284 428.65 559.104C427.866 558.712 425.108 557.382 424.254 557.592Z" fill="#263238"/>
<path opacity="0.2" d="M422.17 530.754L423.976 547.568L410.032 549.612L408.212 532.798L422.17 530.754Z" fill="black"/>
<path d="M429.617 540.652L403.815 545.468C403.815 545.468 391.285 527.576 388.919 514.878C386.455 501.648 389.087 456.624 388.919 456.022C381.625 431.382 361.787 367.542 352.225 344.05C346.919 331.03 343.195 322.266 343.195 322.266L345.869 321.664L366.925 313.04L382.269 315.938C382.269 315.938 428.903 410.242 433.803 445.718C437.457 472.206 429.617 540.652 429.617 540.652Z" fill="url(#paint14_linear_596_6037)"/>
<path opacity="0.3" d="M429.617 540.652L403.815 545.468C403.815 545.468 391.285 527.576 388.919 514.878C386.455 501.648 389.087 456.624 388.919 456.022C381.625 431.382 361.787 367.542 352.225 344.05C346.919 331.03 343.195 322.266 343.195 322.266L345.869 321.664L366.925 313.04L382.269 315.938C382.269 315.938 428.903 410.242 433.803 445.718C437.457 472.206 429.617 540.652 429.617 540.652Z" fill="white"/>
<path opacity="0.2" d="M382.844 434.686C375.55 410.046 360.822 372.68 351.246 349.188L344.904 326.802L343.686 322.49L345.912 326.564L370.902 381.934C381.934 403.13 383.012 435.288 382.844 434.686Z" fill="black"/>
<path d="M269.599 557.732L282.031 562.968L295.289 534.506L282.871 529.27L269.599 557.732Z" fill="#E8BFBF"/>
<path d="M290.121 568.918C291.101 569.534 292.277 569.8 293.425 569.66C293.985 569.506 294.447 569.086 294.629 568.526C294.769 568.204 294.741 567.812 294.531 567.518C293.467 565.95 287.405 565.964 286.733 565.978C286.593 565.978 286.481 566.076 286.425 566.188C286.383 566.314 286.439 566.454 286.537 566.538C287.671 567.448 288.861 568.246 290.121 568.918ZM293.481 567.504C293.677 567.588 293.845 567.714 293.957 567.882C294.041 567.994 294.055 568.162 293.999 568.288C293.873 568.652 293.579 568.932 293.201 569.044C292.137 569.324 290.107 568.428 287.643 566.636C289.631 566.594 291.619 566.888 293.509 567.518L293.481 567.504Z" fill="url(#paint15_linear_596_6037)"/>
<path d="M286.607 566.608L286.719 566.636C288.483 566.72 292.655 565.558 293.117 564.074C293.187 563.724 293.215 563.22 292.459 562.73C291.927 562.352 291.269 562.226 290.639 562.366C288.497 562.856 286.565 565.964 286.481 566.09C286.411 566.174 286.383 566.3 286.425 566.398C286.439 566.496 286.509 566.566 286.607 566.608ZM291.913 563.15L292.109 563.192C292.599 563.514 292.529 563.738 292.501 563.808C292.235 564.704 289.267 565.768 287.363 565.88C288.161 564.564 289.365 563.528 290.779 562.94C291.185 562.87 291.605 562.954 291.955 563.178L291.913 563.15Z" fill="url(#paint16_linear_596_6037)"/>
<path d="M284.284 557.214L273.07 552.496C272.58 552.272 271.992 552.454 271.712 552.93L261.912 566.972C261.338 568.036 261.73 569.366 262.794 569.94C262.864 569.982 262.948 570.01 263.018 570.052C267.904 572.054 270.368 572.782 276.528 575.414C280.294 577.038 291.074 583.73 296.618 584.934C302.162 586.138 303.632 580.706 301.434 579.698C294.336 576.52 288.372 568.134 286.818 560.854C286.44 560.112 285.068 557.522 284.284 557.214Z" fill="#263238"/>
<path opacity="0.2" d="M295.833 534.842L288.637 549.332L276.345 543.816L283.513 529.312L295.833 534.842Z" fill="black"/>
<path d="M298.424 550.634L273.672 537.446C273.672 537.446 268.926 519.82 273.672 508.578C282.8 486.948 306.572 455.14 306.726 454.538C313.068 429.632 324.184 361.452 327.992 336.364C330.106 322.462 331.338 319.466 331.338 319.466L333.956 320.32L371.826 320.39C371.826 320.39 378.966 377.748 351.582 466.55C344.764 488.642 333.354 507.01 314.566 531.874C307.44 541.31 298.424 550.634 298.424 550.634Z" fill="url(#paint17_linear_596_6037)"/>
<path opacity="0.3" d="M298.424 550.634L273.672 537.446C273.672 537.446 268.926 519.82 273.672 508.578C282.8 486.948 306.572 455.14 306.726 454.538C313.068 429.632 324.184 361.452 327.992 336.364C330.106 322.462 331.338 319.466 331.338 319.466L333.956 320.32L371.826 320.39C371.826 320.39 378.966 377.748 351.582 466.55C344.764 488.642 333.354 507.01 314.566 531.874C307.44 541.31 298.424 550.634 298.424 550.634Z" fill="white"/>
<path d="M405.384 273.546C405.664 269.29 408.478 263.816 410.914 261.282C411.698 260.47 414.652 259.238 416.318 258.146C424.536 252.756 441 246.022 441 246.022L446.082 250.446C446.082 250.446 436.058 260.134 430.094 264.782C428.918 265.692 427.56 266.798 426.132 267.974C423.542 270.144 411.32 278.194 408.996 280.21L405.384 273.546Z" fill="#E8BFBF"/>
<path d="M455.476 243.516L446.082 250.46L440.818 246.582C440.818 246.582 442.974 243.838 445.172 241.724C446.138 240.786 446.67 239.512 446.684 238.168C446.698 236.096 447.02 233.702 448.14 231.938C448.168 231.896 448.182 231.854 448.21 231.826C450.24 228.76 455.014 229.684 455.966 233.226L457.324 238.238C457.856 240.198 457.128 242.298 455.476 243.516Z" fill="#E8BFBF"/>
<path d="M408.38 275.422L405.902 277.69C405.132 277.074 403.9 276.08 402.36 274.806C390.292 264.782 360.038 240.492 372.106 233.548C382.438 227.598 393.428 245.798 398.902 251.258C400.022 252.392 403.074 255.906 405.538 260.33C408.114 264.964 410.018 270.578 408.38 275.422Z" fill="#263238"/>
<path d="M405.525 258.146C401.241 261.282 397.587 265.258 394.829 269.794C396.817 276.374 401.815 282.086 408.115 284.83C411.573 276.822 413.169 268.198 412.497 259.504C410.313 259.028 407.709 258.622 405.525 258.146Z" fill="#263238"/>
<path d="M339.094 232.134C334.782 233.52 329.84 232.414 327.068 235.998C324.296 239.582 323.47 244.328 323.47 248.864C323.47 255.164 324.912 261.38 326.354 267.512C328.09 274.96 329.826 282.408 331.576 289.856C332.766 294.952 331.52 318.612 332.78 319.018C332.78 319.018 372.358 318.248 382.284 316.848C382.284 316.848 383.152 292.516 383.936 284.228C384.118 282.394 386.904 274.582 387.226 272.622C388.766 263.382 385.742 256.858 382.536 248.052C382.536 248.052 375.522 233.94 372.106 233.562C366.016 232.862 351.12 228.256 339.094 232.134Z" fill="#263238"/>
<path d="M337.428 243.796C337.288 242.97 330.26 228.788 323.526 238.7C314.16 252.504 313.53 269.836 313.53 269.836C313.53 269.836 307.776 286.692 311.78 290.374C315.798 294.056 320.124 296.422 322.924 294.336C325.724 292.25 327.544 288.078 327.544 288.078C327.544 288.078 339.892 258.244 337.428 243.796Z" fill="#263238"/>
<path d="M336.966 226.87C334.012 229.18 334.404 234.514 337.652 236.376C336.84 239.232 337.792 242.536 340.018 244.51C342.244 246.484 345.632 247.044 348.376 245.896C347.186 248.024 348.53 250.824 350.574 252.14C352.618 253.456 355.152 253.694 357.56 254.016C359.968 254.338 362.516 254.856 364.28 256.55C366.772 252.966 369.264 249.368 371.77 245.784C372.736 244.384 373.744 242.886 373.828 241.192C373.898 239.498 372.61 237.622 370.916 237.748C372.638 235.956 372.68 232.792 370.986 230.958C369.306 229.124 366.156 228.886 364.21 230.454C364.56 229.012 363.72 227.486 362.502 226.646C361.284 225.806 359.772 225.512 358.302 225.372L336.966 226.87Z" fill="#263238"/>
<path d="M341.46 208.6C343.406 215.74 345.772 228.914 341.04 234.122C341.04 234.122 354.41 239.47 363.902 250.208C368.326 245.91 367.864 241.08 366.506 237.552C365.456 234.822 363.202 232.792 360.5 231.644C355.292 229.432 355.25 224.308 356.118 219.408L341.46 208.6Z" fill="#E8BFBF"/>
<path opacity="0.2" d="M344.371 220.766L349.285 222.096C351.385 222.67 353.597 222.796 355.753 222.474C355.739 223.538 355.543 225.778 356.215 226.968C353.387 228.326 348.613 227.388 346.513 224.91C345.631 223.944 344.847 221.97 344.371 220.766Z" fill="black"/>
<path d="M331.925 202.51C337.133 213.486 339.093 218.246 347.115 221.746C359.183 227.024 371.503 218.204 369.669 205.898C368.031 194.824 359.785 178.724 346.975 178.668C337.819 178.584 330.329 185.92 330.231 195.076C330.217 197.652 330.791 200.2 331.925 202.51Z" fill="#E8BFBF"/>
<path d="M337.637 181.538C333.843 179.774 329.139 181.216 325.975 183.988C322.769 186.816 320.809 190.764 318.933 194.614C317.911 196.7 316.889 198.828 316.413 201.096C315.937 203.378 316.078 205.87 317.282 207.858C318.458 209.804 320.655 211.092 322.923 211.218C324.225 211.288 325.752 212.24 326.186 213.472C326.578 214.62 326.395 215.866 326.213 217.056C326.031 218.218 325.863 219.422 326.227 220.528C326.83 222.376 328.803 223.496 330.749 223.692C332.681 223.874 334.599 223.314 336.475 222.768C337.651 222.418 338.841 222.614 339.765 223.44C339.989 223.65 340.185 223.888 340.325 224.168C340.899 225.274 342.579 225.092 343.069 223.944C344.763 219.912 342.3 213.486 338.632 208.572C336.686 205.968 336.783 206.626 336.028 203.462C335.383 200.83 336.35 198.086 337.54 195.65C339.108 192.402 341.137 189.224 340.507 185.346C340.213 183.708 339.149 182.238 337.637 181.538Z" fill="#263238"/>
<path d="M332.247 213.752C333.969 215.586 336.363 216.664 338.883 216.748C342.229 216.818 343.069 213.626 341.459 210.91C340.003 208.46 336.503 205.478 333.479 206.654C330.455 207.83 330.147 211.456 332.247 213.752Z" fill="#E8BFBF"/>
<path d="M352.84 200.564C353.232 201.53 353.988 202.034 354.59 201.782C355.192 201.53 355.346 200.62 355.01 199.682C354.674 198.744 353.862 198.226 353.26 198.464C352.658 198.702 352.476 199.64 352.84 200.564Z" fill="#263238"/>
<path d="M363.088 196.14C363.466 197.106 364.236 197.61 364.838 197.372C365.426 197.12 365.594 196.21 365.258 195.272C364.922 194.334 364.11 193.816 363.508 194.04C362.906 194.292 362.724 195.23 363.088 196.14Z" fill="#263238"/>
<path d="M363.243 194.222L365.189 192.696C365.189 192.696 364.769 194.866 363.243 194.222Z" fill="#263238"/>
<path d="M360.429 198.198C362.809 200.55 364.601 200.97 367.177 202.594C367.107 204.876 364.951 205.408 364.951 205.408L360.429 198.198Z" fill="#ED847E"/>
<path d="M363.859 209.888C364.307 209.72 364.727 209.524 365.147 209.286C365.287 209.216 365.329 209.048 365.259 208.908C365.259 208.908 365.259 208.894 365.245 208.894C365.161 208.754 364.993 208.712 364.853 208.768C362.683 210.028 360.037 210.168 357.741 209.146C357.601 209.076 357.419 209.118 357.349 209.272C357.279 209.412 357.321 209.594 357.475 209.664C359.491 210.602 361.787 210.672 363.859 209.888Z" fill="#263238"/>
<path d="M352.463 192.934C352.449 193.2 352.267 193.424 352.015 193.494C349.327 194.292 348.137 197.694 348.137 197.722C348.025 198.044 347.689 198.212 347.367 198.1C347.045 197.988 346.877 197.652 346.989 197.33C347.087 197.204 348.389 193.298 351.665 192.318C351.987 192.234 352.323 192.416 352.421 192.724C352.449 192.794 352.463 192.864 352.463 192.934Z" fill="#263238"/>
<path d="M364.852 191.282C364.628 191.422 364.348 191.394 364.138 191.226C361.954 189.476 358.468 190.442 358.454 190.442C358.132 190.54 357.796 190.358 357.698 190.036C357.6 189.714 357.782 189.378 358.104 189.28C358.272 189.294 362.22 188.132 364.894 190.26C365.146 190.47 365.188 190.848 364.992 191.114C364.95 191.198 364.908 191.24 364.852 191.282Z" fill="#263238"/>
<path d="M353.022 198.618L354.968 197.106C354.968 197.106 354.52 199.276 353.022 198.618Z" fill="#263238"/>
<path d="M338.478 179.704C335.426 179.956 332.514 181.692 330.862 184.268C329.756 186.004 329.364 188.636 331.002 189.868C331.772 190.442 332.794 190.554 333.746 190.638C338.002 191.016 343.266 187.726 343.266 187.726C341.628 180.768 356.216 175.378 363.412 186.158C365.526 189.322 364.952 191.618 368.466 193.088C370.118 193.774 372.302 193.592 373.366 195.034C375.13 197.428 371.742 201.488 373.898 203.546C375.368 204.96 378.7 204.414 378.896 206.444C378.994 207.396 378.364 208.768 379.288 209.048C379.792 209.202 380.254 208.74 380.59 208.32C381.388 207.312 382.2 206.262 382.466 205.016C382.732 203.77 382.298 202.258 381.122 201.726C380.226 201.32 377.86 201.768 378.028 202.748C378.224 203.91 377.216 198.184 377.664 196.028C378.056 194.138 379.848 192.514 379.302 190.666C378.714 188.692 376.376 187.908 374.346 187.614C372.316 187.306 370.006 187.068 368.76 185.444C367.374 183.624 368.004 181.02 367.556 178.78C366.982 175.924 364.602 173.698 361.928 172.536C353.822 169.008 341.264 169.512 338.478 179.704Z" fill="#263238"/>
<path d="M361.535 217.056L333.549 231.112C324.351 235.732 320.179 246.61 323.945 256.2L337.441 290.626C341.207 300.216 351.651 305.368 361.549 302.512L391.649 293.832C402.933 290.584 408.967 278.334 404.683 267.4L389.073 227.584C384.775 216.678 372.021 211.792 361.535 217.056ZM356.901 276.192C350.657 278.642 343.615 275.562 341.165 269.318C338.715 263.074 341.795 256.032 348.039 253.596C354.283 251.146 361.325 254.226 363.775 260.47C366.225 266.714 363.145 273.742 356.901 276.192Z" fill="url(#paint18_linear_596_6037)"/>
<path d="M361.535 217.056L333.549 231.112C324.351 235.732 320.179 246.61 323.945 256.2L337.441 290.626C341.207 300.216 351.651 305.368 361.549 302.512L391.649 293.832C402.933 290.584 408.967 278.334 404.683 267.4L389.073 227.584C384.775 216.678 372.021 211.792 361.535 217.056ZM356.901 276.192C350.657 278.642 343.615 275.562 341.165 269.318C338.715 263.074 341.795 256.032 348.039 253.596C354.283 251.146 361.325 254.226 363.775 260.47C366.225 266.714 363.145 273.742 356.901 276.192Z" fill="url(#paint19_linear_596_6037)"/>
<path opacity="0.1" d="M404.67 267.428L389.046 227.612C384.762 216.678 372.008 211.792 361.522 217.056L353.388 221.144L347.928 223.888L333.536 231.126C324.324 235.746 320.166 246.624 323.918 256.214L337.414 290.64C341.18 300.23 351.624 305.382 361.522 302.526L391.636 293.846C394.1 293.132 396.312 291.984 398.23 290.514C399.714 289.38 401.016 288.064 402.094 286.594C406.056 281.288 407.288 274.12 404.67 267.428ZM356.902 276.192C350.672 278.642 343.616 275.562 341.18 269.318C338.73 263.088 341.81 256.032 348.054 253.596C354.284 251.146 361.34 254.226 363.776 260.456C366.212 266.714 363.146 273.742 356.902 276.192Z" fill="white"/>
<path d="M361.815 219.688L335.565 232.876C326.927 237.216 323.035 247.408 326.549 256.396L339.205 288.68C342.733 297.668 352.533 302.512 361.815 299.824L390.053 291.676C400.637 288.624 406.293 277.144 402.275 266.896L387.631 229.558C383.627 219.324 371.657 214.732 361.815 219.688ZM341.165 269.318C338.715 263.074 341.795 256.032 348.039 253.596C354.283 251.146 361.325 254.226 363.775 260.47C366.225 266.714 363.145 273.756 356.901 276.192C350.657 278.642 343.615 275.562 341.165 269.318Z" fill="url(#paint20_linear_596_6037)"/>
<path opacity="0.1" d="M361.815 219.688L335.565 232.876C326.927 237.216 323.035 247.408 326.549 256.396L339.205 288.68C342.733 297.668 352.533 302.512 361.815 299.824L390.053 291.676C400.637 288.624 406.293 277.144 402.275 266.896L387.631 229.558C383.627 219.324 371.657 214.732 361.815 219.688ZM341.165 269.318C338.715 263.074 341.795 256.032 348.039 253.596C354.283 251.146 361.325 254.226 363.775 260.47C366.225 266.714 363.145 273.756 356.901 276.192C350.657 278.642 343.615 275.562 341.165 269.318Z" fill="url(#paint21_linear_596_6037)"/>
<path d="M492.267 207.228L491.469 208.698L491.021 209.51L489.761 211.82L490.293 217.742C490.321 217.994 490.293 218.246 490.209 218.47C490.041 218.988 489.649 219.408 489.131 219.618L478.071 223.944C477.553 224.154 476.979 224.098 476.503 223.832C476.349 223.748 476.209 223.636 476.083 223.51L469.825 217.154L469.811 217.14L460.921 220.626L462.209 223.916L453.319 227.402L455.447 232.82L448.895 235.382C448.363 235.592 447.761 235.55 447.271 235.298C447.103 235.214 446.963 235.102 446.823 234.976L443.043 231.42L434.153 234.906L436.281 240.324L426.929 243.992L429.057 249.424C429.407 250.306 428.973 251.314 428.077 251.664L402.457 261.688L391.341 233.338L484.007 197.064L485.463 197.806L490.167 200.214C492.673 201.544 493.653 204.708 492.267 207.228Z" fill="url(#paint22_linear_596_6037)"/>
<g opacity="0.1">
<path d="M492.267 207.228L491.469 208.698L491.021 209.51L489.761 211.82L490.293 217.742C490.321 217.994 490.293 218.246 490.209 218.47C490.041 218.988 489.649 219.408 489.131 219.618L478.071 223.944C477.553 224.154 476.979 224.098 476.503 223.832C476.349 223.748 476.209 223.636 476.083 223.51L469.825 217.154L469.811 217.14L460.921 220.626L462.209 223.916L453.319 227.402L455.447 232.82L448.895 235.382C448.363 235.592 447.761 235.55 447.271 235.298C447.103 235.214 446.963 235.102 446.823 234.976L443.043 231.42L434.153 234.906L436.281 240.324L426.929 243.992L429.057 249.424C429.407 250.306 428.973 251.314 428.077 251.664L402.457 261.688L391.341 233.338L484.007 197.064L485.463 197.806L490.167 200.214C492.673 201.544 493.653 204.708 492.267 207.228Z" fill="white"/>
</g>
<path d="M491.903 204.008L392.839 242.788L389.955 235.508L484.399 198.534L489.103 200.942C490.895 201.866 491.917 202.72 491.903 204.008Z" fill="url(#paint23_linear_596_6037)"/>
<path opacity="0.1" d="M491.903 204.008L392.839 242.788L389.955 235.508L484.399 198.534L489.103 200.942C490.895 201.866 491.917 202.72 491.903 204.008Z" fill="black"/>
<path d="M489.943 209.468L488.991 211.624C488.977 211.666 488.963 211.694 488.977 211.736L489.509 217.602C489.523 217.812 489.509 218.022 489.453 218.232C489.439 218.302 489.383 218.358 489.313 218.386L477.287 223.118C477.217 223.146 477.147 223.146 477.091 223.104C476.979 223.034 476.867 222.95 476.769 222.838L469.881 215.922C469.811 215.852 469.727 215.838 469.643 215.866L459.871 219.716C459.759 219.758 459.703 219.898 459.745 220.01L460.907 222.95C460.949 223.062 460.893 223.202 460.781 223.244L452.451 226.52C452.339 226.562 452.283 226.702 452.325 226.814L454.327 231.896C454.369 232.008 454.313 232.148 454.201 232.19L448.097 234.598C448.041 234.626 447.957 234.626 447.901 234.584C447.775 234.514 447.649 234.416 447.537 234.318L443.071 230.202C443.001 230.146 442.917 230.132 442.833 230.16L433.131 233.982C433.019 234.024 432.963 234.164 433.005 234.276L435.063 239.484C435.105 239.596 435.049 239.736 434.937 239.778L397.683 254.436C397.571 254.478 397.431 254.422 397.389 254.31L393.665 244.986C393.623 244.874 393.679 244.734 393.791 244.692L490.867 206.486C491.049 206.416 491.245 206.598 491.161 206.794L489.943 209.468Z" fill="url(#paint24_linear_596_6037)"/>
<path opacity="0.1" d="M489.943 209.468L488.991 211.624C488.977 211.666 488.963 211.694 488.977 211.736L489.509 217.602C489.523 217.812 489.509 218.022 489.453 218.232C489.439 218.302 489.383 218.358 489.313 218.386L477.287 223.118C477.217 223.146 477.147 223.146 477.091 223.104C476.979 223.034 476.867 222.95 476.769 222.838L469.881 215.922C469.811 215.852 469.727 215.838 469.643 215.866L459.871 219.716C459.759 219.758 459.703 219.898 459.745 220.01L460.907 222.95C460.949 223.062 460.893 223.202 460.781 223.244L452.451 226.52C452.339 226.562 452.283 226.702 452.325 226.814L454.327 231.896C454.369 232.008 454.313 232.148 454.201 232.19L448.097 234.598C448.041 234.626 447.957 234.626 447.901 234.584C447.775 234.514 447.649 234.416 447.537 234.318L443.071 230.202C443.001 230.146 442.917 230.132 442.833 230.16L433.131 233.982C433.019 234.024 432.963 234.164 433.005 234.276L435.063 239.484C435.105 239.596 435.049 239.736 434.937 239.778L397.683 254.436C397.571 254.478 397.431 254.422 397.389 254.31L393.665 244.986C393.623 244.874 393.679 244.734 393.791 244.692L490.867 206.486C491.049 206.416 491.245 206.598 491.161 206.794L489.943 209.468Z" fill="black"/>
<path opacity="0.3" d="M347.297 250.572C339.471 253.638 335.607 262.472 338.673 270.298C341.739 278.124 350.573 281.988 358.413 278.922C366.239 275.856 370.103 267.022 367.037 259.196C363.971 251.356 355.137 247.506 347.297 250.572ZM356.901 276.192C350.657 278.642 343.615 275.562 341.165 269.318C338.715 263.074 341.795 256.032 348.039 253.596C354.283 251.146 361.325 254.226 363.775 260.47C366.225 266.714 363.145 273.742 356.901 276.192Z" fill="white"/>
<path opacity="0.1" d="M402.094 286.58C401.002 288.05 399.714 289.38 398.23 290.5L347.928 223.874L347.886 223.818C347.886 223.818 352.31 221.592 353.318 220.934C353.318 220.99 353.346 221.06 353.388 221.144C355.6 225.848 395.136 277.186 402.094 286.58Z" fill="white"/>
<path opacity="0.1" d="M394.828 292.614C394.506 292.768 379.862 297.22 379.862 297.22L363.524 275.59C367.752 271.446 369.334 265.034 367.038 259.182C363.972 251.356 355.138 247.492 347.298 250.558C346.612 250.824 345.968 251.132 345.338 251.496L330.89 232.358C330.89 232.358 343.588 226.31 345.002 225.428C345.38 228.102 394.828 292.04 394.828 292.614Z" fill="white"/>
<path d="M334.866 187.516C333.228 189.462 332.556 192.192 333.116 194.67C333.662 197.148 335.426 199.332 337.736 200.41C338.926 200.97 340.242 201.236 341.432 201.81C342.608 202.398 343.714 203.42 343.84 204.736C343.98 206.192 342.916 207.536 343.014 208.992C343.112 210.322 344.148 211.372 345.198 212.198C346.248 213.024 347.424 213.794 347.998 214.998C348.572 216.202 348.208 217.98 346.92 218.33C346.654 218.75 346.542 219.744 346.892 220.094C347.242 220.444 347.844 220.528 348.264 220.262C350.238 219.044 351.596 216.762 351.61 214.438C351.624 212.114 350.168 209.86 348.054 208.908C347.676 208.138 347.97 207.158 348.292 206.36C348.936 204.764 349.58 203.154 350.21 201.558C350.462 200.928 350.238 199.78 349.804 199.262C349.37 198.744 348.726 198.45 348.096 198.184L343.966 196.42C342.412 195.748 337.778 189.56 343.266 187.754C342.552 186.158 341.306 185.668 339.598 185.346C337.89 185.024 335.986 186.186 334.866 187.516Z" fill="#263238"/>
<path d="M342.355 180.852C342.215 182.476 342.075 184.114 341.949 185.738C343.321 183.498 345.855 179.144 345.757 179.312C344.679 179.9 343.433 180.264 342.355 180.852Z" fill="#263238"/>
<path d="M344.204 183.526C346.122 181.762 348.026 179.984 349.944 178.22C348.474 177.674 346.682 178.08 345.604 179.228C345.632 179.102 344.736 181.818 344.204 183.526Z" fill="#263238"/>
<path d="M332.542 315.98C325.08 325.248 327.558 332.346 317.254 348.754C330.246 358.386 344.498 359.982 362.222 358.61C364.322 354.9 365.372 351.036 367.472 347.326C370.468 351.05 372.89 354.186 375.886 357.91C385.168 356.454 396.2 353.85 403.536 349.118C397.054 341.684 393.022 332.402 388.878 324.198C386.932 320.348 387.744 318.738 382.578 313.698C366.128 314.454 349.818 314.86 333.368 315.616C333.816 315.63 332.108 315.952 332.542 315.98Z" fill="#263238"/>
<path d="M334.586 314.426L333.55 318.752C333.396 319.088 333.802 319.41 334.362 319.382L379.694 317.38C380.128 317.38 380.478 317.128 380.492 316.862L380.73 312.564C380.73 312.27 380.352 312.032 379.876 312.06L335.328 314.02C335.048 314.02 334.754 314.174 334.586 314.426Z" fill="url(#paint25_linear_596_6037)"/>
<path d="M334.586 314.426L333.55 318.752C333.396 319.088 333.802 319.41 334.362 319.382L379.694 317.38C380.128 317.38 380.478 317.128 380.492 316.862L380.73 312.564C380.73 312.27 380.352 312.032 379.876 312.06L335.328 314.02C335.048 314.02 334.754 314.174 334.586 314.426Z" fill="url(#paint26_linear_596_6037)"/>
<path d="M344.583 319.396L343.267 319.452C343.015 319.452 342.805 319.34 342.819 319.186L343.169 313.6C343.169 313.446 343.393 313.306 343.659 313.292L344.975 313.222C345.227 313.222 345.437 313.334 345.423 313.502L345.073 319.074C345.059 319.228 344.835 319.382 344.583 319.396Z" fill="#263238"/>
<path d="M377.314 317.982L375.998 318.038C375.746 318.038 375.536 317.926 375.55 317.772L375.9 312.2C375.9 312.032 376.124 311.892 376.376 311.878L377.692 311.822C377.944 311.822 378.154 311.934 378.14 312.088L377.79 317.66C377.79 317.828 377.58 317.968 377.314 317.982Z" fill="#263238"/>
<path d="M350.434 292.208C350.518 292.614 354.046 298.228 356.804 297.836C356.832 297.836 356.846 297.836 356.874 297.822C357.672 297.71 358.484 298.032 358.974 298.676C360.08 300.118 360.752 300.944 361.494 301.896C362.712 303.436 364.826 303.926 366.59 303.1C367.122 302.862 367.64 302.582 368.158 302.316C369.866 301.406 370.734 299.446 370.272 297.57C369.768 295.512 368.97 293.524 367.92 291.676C367.556 291.046 367.15 290.416 366.52 290.052C365.89 289.688 359.814 287.854 357.462 287.924C355.012 288.008 352.688 291.214 350.434 292.208Z" fill="#E8BFBF"/>
<path d="M357.532 287.742C357.532 287.742 320.32 276.472 312.284 283.976C307.566 288.386 309.792 292.558 312.438 295.232C314.398 297.234 318.682 296.744 321.468 296.604L350.784 293.734L357.532 287.742Z" fill="#E8BFBF"/>
<path d="M336.139 282.59C335.943 280.574 334.375 278.908 332.569 277.998C330.763 277.102 328.705 276.822 326.703 276.57C322.027 275.982 317.351 275.38 312.675 274.792C310.295 277.788 308.587 281.918 308.671 285.754C308.741 289.576 310.183 293.37 312.675 296.282C314.915 291.956 317.869 287.504 322.237 285.348C326.591 283.206 331.351 281.722 336.139 282.59Z" fill="#263238"/>
<path opacity="0.1" d="M326.55 214.62C326.508 214.536 326.508 214.494 326.55 214.48C326.844 214.396 326.802 214.452 326.55 214.62Z" fill="white"/>
<path d="M419.006 154.364L429.38 173.6L471.688 137.676C472.066 137.354 471.632 136.78 471.226 137.06L431.564 163.24L425.446 151.312L419.006 154.364Z" fill="white"/>
<path d="M485.758 154.462C485.758 171.598 467.768 185.486 445.592 185.486C437.08 185.486 429.184 183.456 422.688 179.942L399.098 190.19L413.98 173.6C408.618 168.35 405.412 161.7 405.412 154.462C405.412 137.326 423.402 123.438 445.578 123.438C467.768 123.438 485.758 137.326 485.758 154.462Z" stroke="white" stroke-width="1.3" stroke-miterlimit="10"/>
<defs>
<linearGradient id="paint0_linear_596_6037" x1="163.529" y1="383.691" x2="181.956" y2="394.18" gradientUnits="userSpaceOnUse">
<stop stop-color="#3FAEBF"/>
<stop offset="1" stop-color="#1C5C94"/>
</linearGradient>
<linearGradient id="paint1_linear_596_6037" x1="167.417" y1="410.934" x2="185.846" y2="421.427" gradientUnits="userSpaceOnUse">
<stop stop-color="#3FAEBF"/>
<stop offset="1" stop-color="#1C5C94"/>
</linearGradient>
<linearGradient id="paint2_linear_596_6037" x1="147.525" y1="403.57" x2="158.119" y2="422" gradientUnits="userSpaceOnUse">
<stop stop-color="#3FAEBF"/>
<stop offset="1" stop-color="#1C5C94"/>
</linearGradient>
<linearGradient id="paint3_linear_596_6037" x1="174.755" y1="399.693" x2="185.349" y2="418.123" gradientUnits="userSpaceOnUse">
<stop stop-color="#3FAEBF"/>
<stop offset="1" stop-color="#1C5C94"/>
</linearGradient>
<linearGradient id="paint4_linear_596_6037" x1="151.412" y1="390.32" x2="167.785" y2="408.608" gradientUnits="userSpaceOnUse">
<stop stop-color="#3FAEBF"/>
<stop offset="1" stop-color="#1C5C94"/>
</linearGradient>
<linearGradient id="paint5_linear_596_6037" x1="173.66" y1="408.967" x2="190.033" y2="427.258" gradientUnits="userSpaceOnUse">
<stop stop-color="#3FAEBF"/>
<stop offset="1" stop-color="#1C5C94"/>
</linearGradient>
<linearGradient id="paint6_linear_596_6037" x1="154.17" y1="409.812" x2="172.528" y2="426.09" gradientUnits="userSpaceOnUse">
<stop stop-color="#3FAEBF"/>
<stop offset="1" stop-color="#1C5C94"/>
</linearGradient>
<linearGradient id="paint7_linear_596_6037" x1="172.801" y1="387.568" x2="191.15" y2="403.847" gradientUnits="userSpaceOnUse">
<stop stop-color="#3FAEBF"/>
<stop offset="1" stop-color="#1C5C94"/>
</linearGradient>
<linearGradient id="paint8_linear_596_6037" x1="164.419" y1="400.584" x2="178.914" y2="415.01" gradientUnits="userSpaceOnUse">
<stop stop-color="#3FAEBF"/>
<stop offset="1" stop-color="#1C5C94"/>
</linearGradient>
<linearGradient id="paint9_linear_596_6037" x1="106.807" y1="413.167" x2="192.599" y2="477.889" gradientUnits="userSpaceOnUse">
<stop stop-color="#3FAEBF"/>
<stop offset="1" stop-color="#1C5C94"/>
</linearGradient>
<linearGradient id="paint10_linear_596_6037" x1="170.191" y1="392.844" x2="270.73" y2="478.508" gradientUnits="userSpaceOnUse">
<stop stop-color="#3FAEBF"/>
<stop offset="1" stop-color="#1C5C94"/>
</linearGradient>
<linearGradient id="paint11_linear_596_6037" x1="132.523" y1="526.708" x2="190.48" y2="600.587" gradientUnits="userSpaceOnUse">
<stop stop-color="#3FAEBF"/>
<stop offset="1" stop-color="#1C5C94"/>
</linearGradient>
<linearGradient id="paint12_linear_596_6037" x1="431.611" y1="559.878" x2="435.191" y2="567.019" gradientUnits="userSpaceOnUse">
<stop stop-color="#3FAEBF"/>
<stop offset="1" stop-color="#1C5C94"/>
</linearGradient>
<linearGradient id="paint13_linear_596_6037" x1="431.552" y1="557.195" x2="438.198" y2="561.459" gradientUnits="userSpaceOnUse">
<stop stop-color="#3FAEBF"/>
<stop offset="1" stop-color="#1C5C94"/>
</linearGradient>
<linearGradient id="paint14_linear_596_6037" x1="343.195" y1="313.04" x2="510.673" y2="378.717" gradientUnits="userSpaceOnUse">
<stop stop-color="#3FAEBF"/>
<stop offset="1" stop-color="#1C5C94"/>
</linearGradient>
<linearGradient id="paint15_linear_596_6037" x1="286.411" y1="565.976" x2="289.364" y2="572.535" gradientUnits="userSpaceOnUse">
<stop stop-color="#3FAEBF"/>
<stop offset="1" stop-color="#1C5C94"/>
</linearGradient>
<linearGradient id="paint16_linear_596_6037" x1="286.405" y1="562.311" x2="290.586" y2="568.793" gradientUnits="userSpaceOnUse">
<stop stop-color="#3FAEBF"/>
<stop offset="1" stop-color="#1C5C94"/>
</linearGradient>
<linearGradient id="paint17_linear_596_6037" x1="271.562" y1="319.466" x2="450.908" y2="397.534" gradientUnits="userSpaceOnUse">
<stop stop-color="#3FAEBF"/>
<stop offset="1" stop-color="#1C5C94"/>
</linearGradient>
<linearGradient id="paint18_linear_596_6037" x1="322.563" y1="214.93" x2="416.058" y2="302.861" gradientUnits="userSpaceOnUse">
<stop stop-color="#3FAEBF"/>
<stop offset="1" stop-color="#1C5C94"/>
</linearGradient>
<linearGradient id="paint19_linear_596_6037" x1="322.563" y1="214.93" x2="416.058" y2="302.861" gradientUnits="userSpaceOnUse">
<stop stop-color="#3FAEBF"/>
<stop offset="1" stop-color="#1C5C94"/>
</linearGradient>
<linearGradient id="paint20_linear_596_6037" x1="325.261" y1="217.685" x2="412.949" y2="300.149" gradientUnits="userSpaceOnUse">
<stop stop-color="#3FAEBF"/>
<stop offset="1" stop-color="#1C5C94"/>
</linearGradient>
<linearGradient id="paint21_linear_596_6037" x1="325.261" y1="217.685" x2="412.949" y2="300.149" gradientUnits="userSpaceOnUse">
<stop stop-color="#3FAEBF"/>
<stop offset="1" stop-color="#1C5C94"/>
</linearGradient>
<linearGradient id="paint22_linear_596_6037" x1="391.341" y1="197.064" x2="453.518" y2="294.316" gradientUnits="userSpaceOnUse">
<stop stop-color="#3FAEBF"/>
<stop offset="1" stop-color="#1C5C94"/>
</linearGradient>
<linearGradient id="paint23_linear_596_6037" x1="389.955" y1="198.534" x2="424.334" y2="277.36" gradientUnits="userSpaceOnUse">
<stop stop-color="#3FAEBF"/>
<stop offset="1" stop-color="#1C5C94"/>
</linearGradient>
<linearGradient id="paint24_linear_596_6037" x1="393.651" y1="206.471" x2="434.056" y2="288.217" gradientUnits="userSpaceOnUse">
<stop stop-color="#3FAEBF"/>
<stop offset="1" stop-color="#1C5C94"/>
</linearGradient>
<linearGradient id="paint25_linear_596_6037" x1="333.518" y1="312.058" x2="335.881" y2="327.221" gradientUnits="userSpaceOnUse">
<stop stop-color="#3FAEBF"/>
<stop offset="1" stop-color="#1C5C94"/>
</linearGradient>
<linearGradient id="paint26_linear_596_6037" x1="333.518" y1="312.058" x2="335.881" y2="327.221" gradientUnits="userSpaceOnUse">
<stop stop-color="#3FAEBF"/>
<stop offset="1" stop-color="#1C5C94"/>
</linearGradient>
</defs>
</svg>
